G04 #@! TF.GenerationSoftware,KiCad,Pcbnew,9.0.6*
G04 #@! TF.CreationDate,2025-12-17T14:31:33+09:00*
G04 #@! TF.ProjectId,Assemble_L,41737365-6d62-46c6-955f-4c2e6b696361,rev?*
G04 #@! TF.SameCoordinates,Original*
G04 #@! TF.FileFunction,Paste,Bot*
G04 #@! TF.FilePolarity,Positive*
%FSLAX46Y46*%
G04 Gerber Fmt 4.6, Leading zero omitted, Abs format (unit mm)*
G04 Created by KiCad (PCBNEW 9.0.6) date 2025-12-17 14:31:33*
%MOMM*%
%LPD*%
G01*
G04 APERTURE LIST*
G04 Aperture macros list*
%AMRoundRect*
0 Rectangle with rounded corners*
0 $1 Rounding radius*
0 $2 $3 $4 $5 $6 $7 $8 $9 X,Y pos of 4 corners*
0 Add a 4 corners polygon primitive as box body*
4,1,4,$2,$3,$4,$5,$6,$7,$8,$9,$2,$3,0*
0 Add four circle primitives for the rounded corners*
1,1,$1+$1,$2,$3*
1,1,$1+$1,$4,$5*
1,1,$1+$1,$6,$7*
1,1,$1+$1,$8,$9*
0 Add four rect primitives between the rounded corners*
20,1,$1+$1,$2,$3,$4,$5,0*
20,1,$1+$1,$4,$5,$6,$7,0*
20,1,$1+$1,$6,$7,$8,$9,0*
20,1,$1+$1,$8,$9,$2,$3,0*%
G04 Aperture macros list end*
%ADD10R,1.300000X0.950000*%
%ADD11R,0.950000X1.300000*%
%ADD12RoundRect,0.173077X-1.126923X0.951923X-1.126923X-0.951923X1.126923X-0.951923X1.126923X0.951923X0*%
%ADD13RoundRect,0.200000X-1.100000X1.100000X-1.100000X-1.100000X1.100000X-1.100000X1.100000X1.100000X0*%
G04 APERTURE END LIST*
D10*
G04 #@! TO.C,D5-0*
X157747006Y-63698491D03*
X154197006Y-63698491D03*
G04 #@! TD*
G04 #@! TO.C,D3-0*
X119646974Y-63698491D03*
X116096974Y-63698491D03*
G04 #@! TD*
D11*
G04 #@! TO.C,DS5*
X189904847Y-129193860D03*
X189904847Y-132743860D03*
G04 #@! TD*
D10*
G04 #@! TO.C,D3-2*
X133934486Y-101798523D03*
X130384486Y-101798523D03*
G04 #@! TD*
D11*
G04 #@! TO.C,DI4*
X65484430Y-116096974D03*
X65484430Y-119646974D03*
G04 #@! TD*
D10*
G04 #@! TO.C,D2-1*
X110121966Y-82748507D03*
X106571966Y-82748507D03*
G04 #@! TD*
G04 #@! TO.C,D1-4*
X105359462Y-139898555D03*
X101809462Y-139898555D03*
G04 #@! TD*
D12*
G04 #@! TO.C,RC1-3*
X115262500Y-105900000D03*
D13*
X113062500Y-117875000D03*
G04 #@! TD*
D10*
G04 #@! TO.C,D2-0*
X100596958Y-63698491D03*
X97046958Y-63698491D03*
G04 #@! TD*
D11*
G04 #@! TO.C,DI1*
X59531300Y-92879767D03*
X59531300Y-96429767D03*
G04 #@! TD*
D10*
G04 #@! TO.C,D3-4*
X143459494Y-139898555D03*
X139909494Y-139898555D03*
G04 #@! TD*
D12*
G04 #@! TO.C,RC1-0*
X77162500Y-48750000D03*
D13*
X74962500Y-60725000D03*
G04 #@! TD*
D10*
G04 #@! TO.C,D4-0*
X138696990Y-63698491D03*
X135146990Y-63698491D03*
G04 #@! TD*
G04 #@! TO.C,D2-4*
X124409478Y-139898555D03*
X120859478Y-139898555D03*
G04 #@! TD*
G04 #@! TO.C,D1-2*
X114884470Y-101798523D03*
X111334470Y-101798523D03*
G04 #@! TD*
G04 #@! TO.C,D6-0*
X176797022Y-63698491D03*
X173247022Y-63698491D03*
G04 #@! TD*
G04 #@! TO.C,D1-0*
X81546942Y-63698491D03*
X77996942Y-63698491D03*
G04 #@! TD*
G04 #@! TO.C,D4-1*
X148221998Y-82748507D03*
X144671998Y-82748507D03*
G04 #@! TD*
D12*
G04 #@! TO.C,RC4-2*
X148600000Y-86850000D03*
D13*
X146400000Y-98825000D03*
G04 #@! TD*
D10*
G04 #@! TO.C,D5-2*
X172034518Y-101798523D03*
X168484518Y-101798523D03*
G04 #@! TD*
D12*
G04 #@! TO.C,RC5-3*
X172412500Y-105900000D03*
D13*
X170212500Y-117875000D03*
G04 #@! TD*
D10*
G04 #@! TO.C,D2-3*
X138696990Y-120848539D03*
X135146990Y-120848539D03*
G04 #@! TD*
D11*
G04 #@! TO.C,DI0*
X65484430Y-85140698D03*
X65484430Y-88690698D03*
G04 #@! TD*
D12*
G04 #@! TO.C,RC0-2*
X84306250Y-86850000D03*
D13*
X82106250Y-98825000D03*
G04 #@! TD*
D12*
G04 #@! TO.C,RC5-0*
X153362500Y-48750000D03*
D13*
X151162500Y-60725000D03*
G04 #@! TD*
D12*
G04 #@! TO.C,RC3-1*
X124787500Y-67800000D03*
D13*
X122587500Y-79775000D03*
G04 #@! TD*
D11*
G04 #@! TO.C,DS1*
X92273515Y-72043812D03*
X92273515Y-75593812D03*
G04 #@! TD*
D12*
G04 #@! TO.C,RC2-0*
X96212500Y-48750000D03*
D13*
X94012500Y-60725000D03*
G04 #@! TD*
D12*
G04 #@! TO.C,RC4-1*
X143837500Y-67800000D03*
D13*
X141637500Y-79775000D03*
G04 #@! TD*
D12*
G04 #@! TO.C,RC6-1*
X191462500Y-48750000D03*
D13*
X189262500Y-60725000D03*
G04 #@! TD*
D10*
G04 #@! TO.C,D4-3*
X157747006Y-120848539D03*
X154197006Y-120848539D03*
G04 #@! TD*
D12*
G04 #@! TO.C,RC6-2*
X181937500Y-67800000D03*
D13*
X179737500Y-79775000D03*
G04 #@! TD*
D10*
G04 #@! TO.C,D5-3*
X176797022Y-120848539D03*
X173247022Y-120848539D03*
G04 #@! TD*
G04 #@! TO.C,D0-1*
X86309446Y-82748507D03*
X82759446Y-82748507D03*
G04 #@! TD*
D12*
G04 #@! TO.C,RC4-3*
X153362500Y-105900000D03*
D13*
X151162500Y-117875000D03*
G04 #@! TD*
D11*
G04 #@! TO.C,DI2*
X65484430Y-100618836D03*
X65484430Y-104168836D03*
G04 #@! TD*
D12*
G04 #@! TO.C,RC5-4*
X158125000Y-124950000D03*
D13*
X155925000Y-136925000D03*
G04 #@! TD*
D12*
G04 #@! TO.C,RC6-0*
X172412500Y-48750000D03*
D13*
X170212500Y-60725000D03*
G04 #@! TD*
D11*
G04 #@! TO.C,DI3*
X59531300Y-108357905D03*
X59531300Y-111907905D03*
G04 #@! TD*
G04 #@! TO.C,DS2*
X120848539Y-91093828D03*
X120848539Y-94643828D03*
G04 #@! TD*
D10*
G04 #@! TO.C,D0-2*
X88690698Y-101798523D03*
X85140698Y-101798523D03*
G04 #@! TD*
G04 #@! TO.C,D1-3*
X119646974Y-120848539D03*
X116096974Y-120848539D03*
G04 #@! TD*
D12*
G04 #@! TO.C,RC2-3*
X134312500Y-105900000D03*
D13*
X132112500Y-117875000D03*
G04 #@! TD*
D10*
G04 #@! TO.C,D5-4*
X162509510Y-139898555D03*
X158959510Y-139898555D03*
G04 #@! TD*
D11*
G04 #@! TO.C,DI5*
X59531300Y-123836043D03*
X59531300Y-127386043D03*
G04 #@! TD*
D10*
G04 #@! TO.C,D6-5*
X183940778Y-139898555D03*
X180390778Y-139898555D03*
G04 #@! TD*
D11*
G04 #@! TO.C,DS4*
X168473579Y-129193860D03*
X168473579Y-132743860D03*
G04 #@! TD*
D12*
G04 #@! TO.C,RC0-4*
X77162500Y-124950000D03*
D13*
X74962500Y-136925000D03*
G04 #@! TD*
D10*
G04 #@! TO.C,D4-2*
X152984502Y-101798523D03*
X149434502Y-101798523D03*
G04 #@! TD*
D12*
G04 #@! TO.C,RC5-1*
X162887500Y-67800000D03*
D13*
X160687500Y-79775000D03*
G04 #@! TD*
D12*
G04 #@! TO.C,RC1-4*
X100975000Y-124950000D03*
D13*
X98775000Y-136925000D03*
G04 #@! TD*
D11*
G04 #@! TO.C,DS0*
X87511011Y-52993796D03*
X87511011Y-56543796D03*
G04 #@! TD*
D10*
G04 #@! TO.C,D6-4*
X195847038Y-120848539D03*
X192297038Y-120848539D03*
G04 #@! TD*
D12*
G04 #@! TO.C,RC4-0*
X134312500Y-48750000D03*
D13*
X132112500Y-60725000D03*
G04 #@! TD*
D12*
G04 #@! TO.C,RC5-2*
X167650000Y-86850000D03*
D13*
X165450000Y-98825000D03*
G04 #@! TD*
D12*
G04 #@! TO.C,RC6-3*
X186700000Y-86850000D03*
D13*
X184500000Y-98825000D03*
G04 #@! TD*
D10*
G04 #@! TO.C,D6-2*
X186322030Y-82748507D03*
X182772030Y-82748507D03*
G04 #@! TD*
D12*
G04 #@! TO.C,RC6-5*
X179556250Y-124950000D03*
D13*
X177356250Y-136925000D03*
G04 #@! TD*
D10*
G04 #@! TO.C,D6-1*
X195847038Y-63698491D03*
X192297038Y-63698491D03*
G04 #@! TD*
D12*
G04 #@! TO.C,RC2-1*
X105737500Y-67800000D03*
D13*
X103537500Y-79775000D03*
G04 #@! TD*
D12*
G04 #@! TO.C,RC6-4*
X191462500Y-105900000D03*
D13*
X189262500Y-117875000D03*
G04 #@! TD*
D12*
G04 #@! TO.C,RC2-4*
X120025000Y-124950000D03*
D13*
X117825000Y-136925000D03*
G04 #@! TD*
D10*
G04 #@! TO.C,D6-3*
X191084534Y-101798523D03*
X187534534Y-101798523D03*
G04 #@! TD*
D12*
G04 #@! TO.C,RC0-1*
X81925000Y-67800000D03*
D13*
X79725000Y-79775000D03*
G04 #@! TD*
D12*
G04 #@! TO.C,RC3-4*
X139075000Y-124950000D03*
D13*
X136875000Y-136925000D03*
G04 #@! TD*
D10*
G04 #@! TO.C,D0-3*
X91071950Y-120848539D03*
X87521950Y-120848539D03*
G04 #@! TD*
G04 #@! TO.C,D5-1*
X167272014Y-82748507D03*
X163722014Y-82748507D03*
G04 #@! TD*
D12*
G04 #@! TO.C,RC1-2*
X110500000Y-86850000D03*
D13*
X108300000Y-98825000D03*
G04 #@! TD*
D12*
G04 #@! TO.C,RC0-3*
X86687500Y-105900000D03*
D13*
X84487500Y-117875000D03*
G04 #@! TD*
D12*
G04 #@! TO.C,RC3-0*
X115262500Y-48750000D03*
D13*
X113062500Y-60725000D03*
G04 #@! TD*
D10*
G04 #@! TO.C,D3-1*
X129171982Y-82748507D03*
X125621982Y-82748507D03*
G04 #@! TD*
G04 #@! TO.C,D0-4*
X81546942Y-139898555D03*
X77996942Y-139898555D03*
G04 #@! TD*
D11*
G04 #@! TO.C,DS3*
X149423563Y-129193860D03*
X149423563Y-132743860D03*
G04 #@! TD*
D12*
G04 #@! TO.C,RC3-2*
X129550000Y-86850000D03*
D13*
X127350000Y-98825000D03*
G04 #@! TD*
M02*
