%TF.GenerationSoftware,KiCad,Pcbnew,9.0.6*%
%TF.CreationDate,2025-12-17T14:31:33+09:00*%
%TF.ProjectId,Assemble_L,41737365-6d62-46c6-955f-4c2e6b696361,rev?*%
%TF.SameCoordinates,Original*%
%TF.FileFunction,Drillmap*%
%TF.FilePolarity,Positive*%
%FSLAX45Y45*%
G04 Gerber Fmt 4.5, Leading zero omitted, Abs format (unit mm)*
G04 Created by KiCad (PCBNEW 9.0.6) date 2025-12-17 14:31:33*
%MOMM*%
%LPD*%
G01*
G04 APERTURE LIST*
%ADD10C,0.050000*%
%ADD11C,0.200000*%
%ADD12C,0.100000*%
G04 APERTURE END LIST*
D10*
X4724379Y-14347043D02*
G75*
G02*
X4524377Y-14147043I1J200003D01*
G01*
X19883454Y-10596571D02*
X19883454Y-8891570D01*
X20359705Y-12063448D02*
G75*
G02*
X20159705Y-12263455I-200005J-2D01*
G01*
X20359705Y-12063448D02*
X20359705Y-10796571D01*
X19407204Y-8691570D02*
X19407204Y-6548443D01*
X18738297Y-6548443D02*
G75*
G02*
X18528297Y-6548443I-105000J0D01*
G01*
X18528297Y-6548443D02*
G75*
G02*
X18738297Y-6548443I105000J0D01*
G01*
X19407204Y-6548443D02*
X20159705Y-6548443D01*
X7427350Y-12501573D02*
G75*
G02*
X7217350Y-12501573I-105000J0D01*
G01*
X7217350Y-12501573D02*
G75*
G02*
X7427350Y-12501573I105000J0D01*
G01*
X20159705Y-4702973D02*
X4724375Y-4702973D01*
X20159705Y-4702973D02*
G75*
G02*
X20359697Y-4902973I-5J-199997D01*
G01*
X20359705Y-6348443D02*
X20359705Y-4902973D01*
X4524375Y-4902973D02*
G75*
G02*
X4724375Y-4702975I199995J3D01*
G01*
X12606573Y-5179223D02*
G75*
G02*
X12396573Y-5179223I-105000J0D01*
G01*
X12396573Y-5179223D02*
G75*
G02*
X12606573Y-5179223I105000J0D01*
G01*
X7427350Y-6548443D02*
G75*
G02*
X7217350Y-6548443I-105000J0D01*
G01*
X7217350Y-6548443D02*
G75*
G02*
X7427350Y-6548443I105000J0D01*
G01*
X20359705Y-6348443D02*
G75*
G02*
X20159705Y-6548445I-200005J3D01*
G01*
X4724379Y-14347043D02*
X19207204Y-14347043D01*
X12606573Y-12501573D02*
G75*
G02*
X12396573Y-12501573I-105000J0D01*
G01*
X12396573Y-12501573D02*
G75*
G02*
X12606573Y-12501573I105000J0D01*
G01*
X19683454Y-8691570D02*
G75*
G02*
X19883460Y-8891570I-4J-200010D01*
G01*
X20159705Y-10596571D02*
G75*
G02*
X20359709Y-10796571I-5J-200009D01*
G01*
X19683454Y-8691570D02*
X19407204Y-8691570D01*
X18738297Y-12501573D02*
G75*
G02*
X18528297Y-12501573I-105000J0D01*
G01*
X18528297Y-12501573D02*
G75*
G02*
X18738297Y-12501573I105000J0D01*
G01*
X20159705Y-10596571D02*
X19883454Y-10596571D01*
X19407204Y-14147043D02*
X19407204Y-12263448D01*
X4524375Y-4902973D02*
X4524379Y-14147043D01*
X19407204Y-12263448D02*
X20159705Y-12263448D01*
X19407204Y-14147043D02*
G75*
G02*
X19207204Y-14347044I-200004J3D01*
G01*
D11*
D12*
X4747500Y-8081250D02*
X4777500Y-8111250D01*
X4777500Y-8081250D02*
X4747500Y-8111250D01*
X4747500Y-8795625D02*
X4777500Y-8825625D01*
X4777500Y-8795625D02*
X4747500Y-8825625D01*
X4747500Y-9510000D02*
X4777500Y-9540000D01*
X4777500Y-9510000D02*
X4747500Y-9540000D01*
X4747500Y-10224375D02*
X4777500Y-10254375D01*
X4777500Y-10224375D02*
X4747500Y-10254375D01*
X4747500Y-10938750D02*
X4777500Y-10968750D01*
X4777500Y-10938750D02*
X4747500Y-10968750D01*
X4747500Y-11653125D02*
X4777500Y-11683125D01*
X4777500Y-11653125D02*
X4747500Y-11683125D01*
X4747500Y-12367500D02*
X4777500Y-12397500D01*
X4777500Y-12367500D02*
X4747500Y-12397500D01*
X4747500Y-13081875D02*
X4777500Y-13111875D01*
X4777500Y-13081875D02*
X4747500Y-13111875D01*
X4747500Y-13796250D02*
X4777500Y-13826250D01*
X4777500Y-13796250D02*
X4747500Y-13826250D01*
X5223750Y-8319375D02*
X5253750Y-8349375D01*
X5253750Y-8319375D02*
X5223750Y-8349375D01*
X5223750Y-9033750D02*
X5253750Y-9063750D01*
X5253750Y-9033750D02*
X5223750Y-9063750D01*
X5223750Y-9748125D02*
X5253750Y-9778125D01*
X5253750Y-9748125D02*
X5223750Y-9778125D01*
X5223750Y-10462500D02*
X5253750Y-10492500D01*
X5253750Y-10462500D02*
X5223750Y-10492500D01*
X5223750Y-11176875D02*
X5253750Y-11206875D01*
X5253750Y-11176875D02*
X5223750Y-11206875D01*
X5223750Y-11891250D02*
X5253750Y-11921250D01*
X5253750Y-11891250D02*
X5223750Y-11921250D01*
X5223750Y-12605625D02*
X5253750Y-12635625D01*
X5253750Y-12605625D02*
X5223750Y-12635625D01*
X5223750Y-13320000D02*
X5253750Y-13350000D01*
X5253750Y-13320000D02*
X5223750Y-13350000D01*
X5223750Y-14034375D02*
X5253750Y-14064375D01*
X5253750Y-14034375D02*
X5223750Y-14064375D01*
X5461875Y-6176250D02*
X5491875Y-6206250D01*
X5491875Y-6176250D02*
X5461875Y-6206250D01*
X5461875Y-6414375D02*
X5491875Y-6444375D01*
X5491875Y-6414375D02*
X5461875Y-6444375D01*
X5700000Y-8557500D02*
X5730000Y-8587500D01*
X5730000Y-8557500D02*
X5700000Y-8587500D01*
X5700000Y-10224375D02*
X5730000Y-10254375D01*
X5730000Y-10224375D02*
X5700000Y-10254375D01*
X5700000Y-10938750D02*
X5730000Y-10968750D01*
X5730000Y-10938750D02*
X5700000Y-10968750D01*
X5700000Y-11653125D02*
X5730000Y-11683125D01*
X5730000Y-11653125D02*
X5700000Y-11683125D01*
X5700000Y-12367500D02*
X5730000Y-12397500D01*
X5730000Y-12367500D02*
X5700000Y-12397500D01*
X5700000Y-13558125D02*
X5730000Y-13588125D01*
X5730000Y-13558125D02*
X5700000Y-13588125D01*
X5938125Y-5461875D02*
X5968125Y-5491875D01*
X5968125Y-5461875D02*
X5938125Y-5491875D01*
X5938125Y-6176250D02*
X5968125Y-6206250D01*
X5968125Y-6176250D02*
X5938125Y-6206250D01*
X5938125Y-6414375D02*
X5968125Y-6444375D01*
X5968125Y-6414375D02*
X5938125Y-6444375D01*
X5938125Y-6890625D02*
X5968125Y-6920625D01*
X5968125Y-6890625D02*
X5938125Y-6920625D01*
X6176250Y-8795625D02*
X6206250Y-8825625D01*
X6206250Y-8795625D02*
X6176250Y-8825625D01*
X6176250Y-9271875D02*
X6206250Y-9301875D01*
X6206250Y-9271875D02*
X6176250Y-9301875D01*
X6176250Y-11176875D02*
X6206250Y-11206875D01*
X6206250Y-11176875D02*
X6176250Y-11206875D01*
X6176250Y-12605625D02*
X6206250Y-12635625D01*
X6206250Y-12605625D02*
X6176250Y-12635625D01*
X6176250Y-14034375D02*
X6206250Y-14064375D01*
X6206250Y-14034375D02*
X6176250Y-14064375D01*
X6414375Y-7843125D02*
X6444375Y-7873125D01*
X6444375Y-7843125D02*
X6414375Y-7873125D01*
X6890625Y-5223750D02*
X6920625Y-5253750D01*
X6920625Y-5223750D02*
X6890625Y-5253750D01*
X6890625Y-6890625D02*
X6920625Y-6920625D01*
X6920625Y-6890625D02*
X6890625Y-6920625D01*
X6890625Y-8795625D02*
X6920625Y-8825625D01*
X6920625Y-8795625D02*
X6890625Y-8825625D01*
X6890625Y-9510000D02*
X6920625Y-9540000D01*
X6920625Y-9510000D02*
X6890625Y-9540000D01*
X6890625Y-10224375D02*
X6920625Y-10254375D01*
X6920625Y-10224375D02*
X6890625Y-10254375D01*
X6890625Y-10938750D02*
X6920625Y-10968750D01*
X6920625Y-10938750D02*
X6890625Y-10968750D01*
X6890625Y-11653125D02*
X6920625Y-11683125D01*
X6920625Y-11653125D02*
X6890625Y-11683125D01*
X6890625Y-12367500D02*
X6920625Y-12397500D01*
X6920625Y-12367500D02*
X6890625Y-12397500D01*
X6890625Y-13081875D02*
X6920625Y-13111875D01*
X6920625Y-13081875D02*
X6890625Y-13111875D01*
X6890631Y-5938130D02*
X6920631Y-5968130D01*
X6920631Y-5938130D02*
X6890631Y-5968130D01*
X7128750Y-7843125D02*
X7158750Y-7873125D01*
X7158750Y-7843125D02*
X7128750Y-7873125D01*
X7188287Y-6712037D02*
X7218287Y-6742037D01*
X7218287Y-6712037D02*
X7188287Y-6742037D01*
X7247819Y-12784229D02*
X7277819Y-12814229D01*
X7277819Y-12784229D02*
X7247819Y-12814229D01*
X7366875Y-8557500D02*
X7396875Y-8587500D01*
X7396875Y-8557500D02*
X7366875Y-8587500D01*
X7366875Y-9748125D02*
X7396875Y-9778125D01*
X7396875Y-9748125D02*
X7366875Y-9778125D01*
X7366875Y-10462500D02*
X7396875Y-10492500D01*
X7396875Y-10462500D02*
X7366875Y-10492500D01*
X7366875Y-11176875D02*
X7396875Y-11206875D01*
X7396875Y-11176875D02*
X7366875Y-11206875D01*
X7366875Y-11891250D02*
X7396875Y-11921250D01*
X7396875Y-11891250D02*
X7366875Y-11921250D01*
X7605000Y-7605000D02*
X7635000Y-7635000D01*
X7635000Y-7605000D02*
X7605000Y-7635000D01*
X7605006Y-6712037D02*
X7635006Y-6742037D01*
X7635006Y-6712037D02*
X7605006Y-6742037D01*
X7843125Y-7128750D02*
X7873125Y-7158750D01*
X7873125Y-7128750D02*
X7843125Y-7158750D01*
X7843125Y-10224375D02*
X7873125Y-10254375D01*
X7873125Y-10224375D02*
X7843125Y-10254375D01*
X7843125Y-13558125D02*
X7873125Y-13588125D01*
X7873125Y-13558125D02*
X7843125Y-13588125D01*
X8319375Y-5223750D02*
X8349375Y-5253750D01*
X8349375Y-5223750D02*
X8319375Y-5253750D01*
X8319375Y-13558125D02*
X8349375Y-13588125D01*
X8349375Y-13558125D02*
X8319375Y-13588125D01*
X8415625Y-8670000D02*
X8445625Y-8700000D01*
X8445625Y-8670000D02*
X8415625Y-8700000D01*
X8557500Y-12843750D02*
X8587500Y-12873750D01*
X8587500Y-12843750D02*
X8557500Y-12873750D01*
X8795625Y-12605625D02*
X8825625Y-12635625D01*
X8825625Y-12605625D02*
X8795625Y-12635625D01*
X9033750Y-12367500D02*
X9063750Y-12397500D01*
X9063750Y-12367500D02*
X9033750Y-12397500D01*
X9033750Y-13081875D02*
X9063750Y-13111875D01*
X9063750Y-13081875D02*
X9033750Y-13111875D01*
X9033750Y-13558125D02*
X9063750Y-13588125D01*
X9063750Y-13558125D02*
X9033750Y-13588125D01*
X9033750Y-14034375D02*
X9063750Y-14064375D01*
X9063750Y-14034375D02*
X9033750Y-14064375D01*
X9271875Y-8557500D02*
X9301875Y-8587500D01*
X9301875Y-8557500D02*
X9271875Y-8587500D01*
X9271875Y-10700625D02*
X9301875Y-10730625D01*
X9301875Y-10700625D02*
X9271875Y-10730625D01*
X9510000Y-7605000D02*
X9540000Y-7635000D01*
X9540000Y-7605000D02*
X9510000Y-7635000D01*
X9510000Y-9510000D02*
X9540000Y-9540000D01*
X9540000Y-9510000D02*
X9510000Y-9540000D01*
X9510000Y-13320000D02*
X9540000Y-13350000D01*
X9540000Y-13320000D02*
X9510000Y-13350000D01*
X9510000Y-13796250D02*
X9540000Y-13826250D01*
X9540000Y-13796250D02*
X9510000Y-13826250D01*
X9606250Y-4860000D02*
X9636250Y-4890000D01*
X9636250Y-4860000D02*
X9606250Y-4890000D01*
X9986250Y-8081250D02*
X10016250Y-8111250D01*
X10016250Y-8081250D02*
X9986250Y-8111250D01*
X9986250Y-8795625D02*
X10016250Y-8825625D01*
X10016250Y-8795625D02*
X9986250Y-8825625D01*
X9986250Y-9510000D02*
X10016250Y-9540000D01*
X10016250Y-9510000D02*
X9986250Y-9540000D01*
X9986250Y-10938750D02*
X10016250Y-10968750D01*
X10016250Y-10938750D02*
X9986250Y-10968750D01*
X9986250Y-11653125D02*
X10016250Y-11683125D01*
X10016250Y-11653125D02*
X9986250Y-11683125D01*
X10462500Y-5223750D02*
X10492500Y-5253750D01*
X10492500Y-5223750D02*
X10462500Y-5253750D01*
X10700625Y-10700625D02*
X10730625Y-10730625D01*
X10730625Y-10700625D02*
X10700625Y-10730625D01*
X10700625Y-11891250D02*
X10730625Y-11921250D01*
X10730625Y-11891250D02*
X10700625Y-11921250D01*
X10700625Y-12605625D02*
X10730625Y-12635625D01*
X10730625Y-12605625D02*
X10700625Y-12635625D01*
X10938750Y-5700000D02*
X10968750Y-5730000D01*
X10968750Y-5700000D02*
X10938750Y-5730000D01*
X10938750Y-13320000D02*
X10968750Y-13350000D01*
X10968750Y-13320000D02*
X10938750Y-13350000D01*
X10938750Y-13558125D02*
X10968750Y-13588125D01*
X10968750Y-13558125D02*
X10938750Y-13588125D01*
X11176875Y-6890625D02*
X11206875Y-6920625D01*
X11206875Y-6890625D02*
X11176875Y-6920625D01*
X11176875Y-12605625D02*
X11206875Y-12635625D01*
X11206875Y-12605625D02*
X11176875Y-12635625D01*
X11415000Y-8795625D02*
X11445000Y-8825625D01*
X11445000Y-8795625D02*
X11415000Y-8825625D01*
X11415000Y-13320000D02*
X11445000Y-13350000D01*
X11445000Y-13320000D02*
X11415000Y-13350000D01*
X11415000Y-13558125D02*
X11445000Y-13588125D01*
X11445000Y-13558125D02*
X11415000Y-13588125D01*
X11415000Y-14034375D02*
X11445000Y-14064375D01*
X11445000Y-14034375D02*
X11415000Y-14064375D01*
X11511250Y-4860000D02*
X11541250Y-4890000D01*
X11541250Y-4860000D02*
X11511250Y-4890000D01*
X11653125Y-7128750D02*
X11683125Y-7158750D01*
X11683125Y-7128750D02*
X11653125Y-7158750D01*
X11653125Y-9033750D02*
X11683125Y-9063750D01*
X11683125Y-9033750D02*
X11653125Y-9063750D01*
X11891250Y-10938750D02*
X11921250Y-10968750D01*
X11921250Y-10938750D02*
X11891250Y-10968750D01*
X12129375Y-4985625D02*
X12159375Y-5015625D01*
X12159375Y-4985625D02*
X12129375Y-5015625D01*
X12129375Y-10462500D02*
X12159375Y-10492500D01*
X12159375Y-10462500D02*
X12129375Y-10492500D01*
X12605625Y-5461875D02*
X12635625Y-5491875D01*
X12635625Y-5461875D02*
X12605625Y-5491875D01*
X12605625Y-10938750D02*
X12635625Y-10968750D01*
X12635625Y-10938750D02*
X12605625Y-10968750D01*
X12605625Y-12843750D02*
X12635625Y-12873750D01*
X12635625Y-12843750D02*
X12605625Y-12873750D01*
X12843750Y-4985625D02*
X12873750Y-5015625D01*
X12873750Y-4985625D02*
X12843750Y-5015625D01*
X12843750Y-6176250D02*
X12873750Y-6206250D01*
X12873750Y-6176250D02*
X12843750Y-6206250D01*
X12843750Y-7128750D02*
X12873750Y-7158750D01*
X12873750Y-7128750D02*
X12843750Y-7158750D01*
X12843750Y-13558125D02*
X12873750Y-13588125D01*
X12873750Y-13558125D02*
X12843750Y-13588125D01*
X13081875Y-13081875D02*
X13111875Y-13111875D01*
X13111875Y-13081875D02*
X13081875Y-13111875D01*
X13081875Y-13558125D02*
X13111875Y-13588125D01*
X13111875Y-13558125D02*
X13081875Y-13588125D01*
X13320000Y-12843750D02*
X13350000Y-12873750D01*
X13350000Y-12843750D02*
X13320000Y-12873750D01*
X13320000Y-14034375D02*
X13350000Y-14064375D01*
X13350000Y-14034375D02*
X13320000Y-14064375D01*
X13558125Y-7128750D02*
X13588125Y-7158750D01*
X13588125Y-7128750D02*
X13558125Y-7158750D01*
X13558125Y-7843125D02*
X13588125Y-7873125D01*
X13588125Y-7843125D02*
X13558125Y-7873125D01*
X13558125Y-8795625D02*
X13588125Y-8825625D01*
X13588125Y-8795625D02*
X13558125Y-8825625D01*
X14034375Y-4985625D02*
X14064375Y-5015625D01*
X14064375Y-4985625D02*
X14034375Y-5015625D01*
X14034375Y-8795625D02*
X14064375Y-8825625D01*
X14064375Y-8795625D02*
X14034375Y-8825625D01*
X14034375Y-9271875D02*
X14064375Y-9301875D01*
X14064375Y-9271875D02*
X14034375Y-9301875D01*
X14034375Y-13558125D02*
X14064375Y-13588125D01*
X14064375Y-13558125D02*
X14034375Y-13588125D01*
X14272500Y-9748125D02*
X14302500Y-9778125D01*
X14302500Y-9748125D02*
X14272500Y-9778125D01*
X14272500Y-10700625D02*
X14302500Y-10730625D01*
X14302500Y-10700625D02*
X14272500Y-10730625D01*
X14272500Y-12605625D02*
X14302500Y-12635625D01*
X14302500Y-12605625D02*
X14272500Y-12635625D01*
X14368750Y-6765000D02*
X14398750Y-6795000D01*
X14398750Y-6765000D02*
X14368750Y-6795000D01*
X14510625Y-8081250D02*
X14540625Y-8111250D01*
X14540625Y-8081250D02*
X14510625Y-8111250D01*
X14510625Y-11176875D02*
X14540625Y-11206875D01*
X14540625Y-11176875D02*
X14510625Y-11206875D01*
X14510625Y-12129375D02*
X14540625Y-12159375D01*
X14540625Y-12129375D02*
X14510625Y-12159375D01*
X14510625Y-12843750D02*
X14540625Y-12873750D01*
X14540625Y-12843750D02*
X14510625Y-12873750D01*
X14748750Y-4985625D02*
X14778750Y-5015625D01*
X14778750Y-4985625D02*
X14748750Y-5015625D01*
X14748750Y-5461875D02*
X14778750Y-5491875D01*
X14778750Y-5461875D02*
X14748750Y-5491875D01*
X14748750Y-10700625D02*
X14778750Y-10730625D01*
X14778750Y-10700625D02*
X14748750Y-10730625D01*
X14748750Y-11891250D02*
X14778750Y-11921250D01*
X14778750Y-11891250D02*
X14748750Y-11921250D01*
X15225000Y-7128750D02*
X15255000Y-7158750D01*
X15255000Y-7128750D02*
X15225000Y-7158750D01*
X15225000Y-8795625D02*
X15255000Y-8825625D01*
X15255000Y-8795625D02*
X15225000Y-8825625D01*
X15225000Y-13558125D02*
X15255000Y-13588125D01*
X15255000Y-13558125D02*
X15225000Y-13588125D01*
X15225000Y-14034375D02*
X15255000Y-14064375D01*
X15255000Y-14034375D02*
X15225000Y-14064375D01*
X15463125Y-7605000D02*
X15493125Y-7635000D01*
X15493125Y-7605000D02*
X15463125Y-7635000D01*
X15701250Y-7128750D02*
X15731250Y-7158750D01*
X15731250Y-7128750D02*
X15701250Y-7158750D01*
X15701250Y-9033750D02*
X15731250Y-9063750D01*
X15731250Y-9033750D02*
X15701250Y-9063750D01*
X15701250Y-10462500D02*
X15731250Y-10492500D01*
X15731250Y-10462500D02*
X15701250Y-10492500D01*
X15701250Y-11891250D02*
X15731250Y-11921250D01*
X15731250Y-11891250D02*
X15701250Y-11921250D01*
X15879857Y-10879228D02*
X15909857Y-10909228D01*
X15909857Y-10879228D02*
X15879857Y-10909228D01*
X15939375Y-4985625D02*
X15969375Y-5015625D01*
X15969375Y-4985625D02*
X15939375Y-5015625D01*
X15939375Y-13558125D02*
X15969375Y-13588125D01*
X15969375Y-13558125D02*
X15939375Y-13588125D01*
X16177500Y-5461875D02*
X16207500Y-5491875D01*
X16207500Y-5461875D02*
X16177500Y-5491875D01*
X16177500Y-8795625D02*
X16207500Y-8825625D01*
X16207500Y-8795625D02*
X16177500Y-8825625D01*
X16177500Y-9748125D02*
X16207500Y-9778125D01*
X16207500Y-9748125D02*
X16177500Y-9778125D01*
X16177500Y-12843750D02*
X16207500Y-12873750D01*
X16207500Y-12843750D02*
X16177500Y-12873750D01*
X16273750Y-6765000D02*
X16303750Y-6795000D01*
X16303750Y-6765000D02*
X16273750Y-6795000D01*
X16415625Y-4985625D02*
X16445625Y-5015625D01*
X16445625Y-4985625D02*
X16415625Y-5015625D01*
X16415625Y-10700625D02*
X16445625Y-10730625D01*
X16445625Y-10700625D02*
X16415625Y-10730625D01*
X16415625Y-11415000D02*
X16445625Y-11445000D01*
X16445625Y-11415000D02*
X16415625Y-11445000D01*
X16415625Y-12367500D02*
X16445625Y-12397500D01*
X16445625Y-12367500D02*
X16415625Y-12397500D01*
X16415625Y-12605625D02*
X16445625Y-12635625D01*
X16445625Y-12605625D02*
X16415625Y-12635625D01*
X16534701Y-12665167D02*
X16564701Y-12695167D01*
X16564701Y-12665167D02*
X16534701Y-12695167D01*
X16653750Y-6890625D02*
X16683750Y-6920625D01*
X16683750Y-6890625D02*
X16653750Y-6920625D01*
X16891875Y-14034375D02*
X16921875Y-14064375D01*
X16921875Y-14034375D02*
X16891875Y-14064375D01*
X17130000Y-7128750D02*
X17160000Y-7158750D01*
X17160000Y-7128750D02*
X17130000Y-7158750D01*
X17130000Y-8557500D02*
X17160000Y-8587500D01*
X17160000Y-8557500D02*
X17130000Y-8587500D01*
X17130000Y-12367500D02*
X17160000Y-12397500D01*
X17160000Y-12367500D02*
X17130000Y-12397500D01*
X17130000Y-12843750D02*
X17160000Y-12873750D01*
X17160000Y-12843750D02*
X17130000Y-12873750D01*
X17130000Y-13558125D02*
X17160000Y-13588125D01*
X17160000Y-13558125D02*
X17130000Y-13588125D01*
X17226250Y-4860000D02*
X17256250Y-4890000D01*
X17256250Y-4860000D02*
X17226250Y-4890000D01*
X17368125Y-9033750D02*
X17398125Y-9063750D01*
X17398125Y-9033750D02*
X17368125Y-9063750D01*
X17368125Y-14034375D02*
X17398125Y-14064375D01*
X17398125Y-14034375D02*
X17368125Y-14064375D01*
X17606250Y-5223750D02*
X17636250Y-5253750D01*
X17636250Y-5223750D02*
X17606250Y-5253750D01*
X17606250Y-6890625D02*
X17636250Y-6920625D01*
X17636250Y-6890625D02*
X17606250Y-6920625D01*
X17606250Y-7366875D02*
X17636250Y-7396875D01*
X17636250Y-7366875D02*
X17606250Y-7396875D01*
X17606250Y-8081250D02*
X17636250Y-8111250D01*
X17636250Y-8081250D02*
X17606250Y-8111250D01*
X17606250Y-8557500D02*
X17636250Y-8587500D01*
X17636250Y-8557500D02*
X17606250Y-8587500D01*
X17606250Y-10938750D02*
X17636250Y-10968750D01*
X17636250Y-10938750D02*
X17606250Y-10968750D01*
X17606250Y-12605625D02*
X17636250Y-12635625D01*
X17636250Y-12605625D02*
X17606250Y-12635625D01*
X17844375Y-9510000D02*
X17874375Y-9540000D01*
X17874375Y-9510000D02*
X17844375Y-9540000D01*
X17844375Y-10224375D02*
X17874375Y-10254375D01*
X17874375Y-10224375D02*
X17844375Y-10254375D01*
X18082500Y-13558125D02*
X18112500Y-13588125D01*
X18112500Y-13558125D02*
X18082500Y-13588125D01*
X18320625Y-5223750D02*
X18350625Y-5253750D01*
X18350625Y-5223750D02*
X18320625Y-5253750D01*
X18320625Y-8795625D02*
X18350625Y-8825625D01*
X18350625Y-8795625D02*
X18320625Y-8825625D01*
X18320625Y-10700625D02*
X18350625Y-10730625D01*
X18350625Y-10700625D02*
X18320625Y-10730625D01*
X18320640Y-12724698D02*
X18350640Y-12754698D01*
X18350640Y-12724698D02*
X18320640Y-12754698D01*
X18558750Y-5938125D02*
X18588750Y-5968125D01*
X18588750Y-5938125D02*
X18558750Y-5968125D01*
X18558750Y-12129375D02*
X18588750Y-12159375D01*
X18588750Y-12129375D02*
X18558750Y-12159375D01*
X18796891Y-6831099D02*
X18826891Y-6861099D01*
X18826891Y-6831099D02*
X18796891Y-6861099D01*
X19035000Y-7128750D02*
X19065000Y-7158750D01*
X19065000Y-7128750D02*
X19035000Y-7158750D01*
X19035000Y-14034375D02*
X19065000Y-14064375D01*
X19065000Y-14034375D02*
X19035000Y-14064375D01*
X19094547Y-8795625D02*
X19124547Y-8825625D01*
X19124547Y-8795625D02*
X19094547Y-8825625D01*
X19273125Y-6176250D02*
X19303125Y-6206250D01*
X19303125Y-6176250D02*
X19273125Y-6206250D01*
X19273125Y-13320000D02*
X19303125Y-13350000D01*
X19303125Y-13320000D02*
X19273125Y-13350000D01*
X19511250Y-4985625D02*
X19541250Y-5015625D01*
X19541250Y-4985625D02*
X19511250Y-5015625D01*
X19511250Y-9271875D02*
X19541250Y-9301875D01*
X19541250Y-9271875D02*
X19511250Y-9301875D01*
X19511250Y-10224375D02*
X19541250Y-10254375D01*
X19541250Y-10224375D02*
X19511250Y-10254375D01*
X19511250Y-10700625D02*
X19541250Y-10730625D01*
X19541250Y-10700625D02*
X19511250Y-10730625D01*
X19570798Y-8974226D02*
X19600798Y-9004226D01*
X19600798Y-8974226D02*
X19570798Y-9004226D01*
X19749375Y-9748125D02*
X19779375Y-9778125D01*
X19779375Y-9748125D02*
X19749375Y-9778125D01*
X19808923Y-10879228D02*
X19838923Y-10909228D01*
X19838923Y-10879228D02*
X19808923Y-10909228D01*
X19987500Y-4985625D02*
X20017500Y-5015625D01*
X20017500Y-4985625D02*
X19987500Y-5015625D01*
X19987500Y-5461875D02*
X20017500Y-5491875D01*
X20017500Y-5461875D02*
X19987500Y-5491875D01*
X19987500Y-11176875D02*
X20017500Y-11206875D01*
X20017500Y-11176875D02*
X19987500Y-11206875D01*
X5993770Y-9084477D02*
G75*
G02*
X5912490Y-9084477I-40640J0D01*
G01*
X5912490Y-9084477D02*
G75*
G02*
X5993770Y-9084477I40640J0D01*
G01*
X5993770Y-9846477D02*
G75*
G02*
X5912490Y-9846477I-40640J0D01*
G01*
X5912490Y-9846477D02*
G75*
G02*
X5993770Y-9846477I40640J0D01*
G01*
X5993770Y-10632291D02*
G75*
G02*
X5912490Y-10632291I-40640J0D01*
G01*
X5912490Y-10632291D02*
G75*
G02*
X5993770Y-10632291I40640J0D01*
G01*
X5993770Y-11394290D02*
G75*
G02*
X5912490Y-11394290I-40640J0D01*
G01*
X5912490Y-11394290D02*
G75*
G02*
X5993770Y-11394290I40640J0D01*
G01*
X5993770Y-12180104D02*
G75*
G02*
X5912490Y-12180104I-40640J0D01*
G01*
X5912490Y-12180104D02*
G75*
G02*
X5993770Y-12180104I40640J0D01*
G01*
X5993770Y-12942104D02*
G75*
G02*
X5912490Y-12942104I-40640J0D01*
G01*
X5912490Y-12942104D02*
G75*
G02*
X5993770Y-12942104I40640J0D01*
G01*
X6589083Y-8310570D02*
G75*
G02*
X6507803Y-8310570I-40640J0D01*
G01*
X6507803Y-8310570D02*
G75*
G02*
X6589083Y-8310570I40640J0D01*
G01*
X6589083Y-9072570D02*
G75*
G02*
X6507803Y-9072570I-40640J0D01*
G01*
X6507803Y-9072570D02*
G75*
G02*
X6589083Y-9072570I40640J0D01*
G01*
X6589083Y-9858384D02*
G75*
G02*
X6507803Y-9858384I-40640J0D01*
G01*
X6507803Y-9858384D02*
G75*
G02*
X6589083Y-9858384I40640J0D01*
G01*
X6589083Y-10620384D02*
G75*
G02*
X6507803Y-10620384I-40640J0D01*
G01*
X6507803Y-10620384D02*
G75*
G02*
X6589083Y-10620384I40640J0D01*
G01*
X6589083Y-11406197D02*
G75*
G02*
X6507803Y-11406197I-40640J0D01*
G01*
X6507803Y-11406197D02*
G75*
G02*
X6589083Y-11406197I40640J0D01*
G01*
X6589083Y-12168197D02*
G75*
G02*
X6507803Y-12168197I-40640J0D01*
G01*
X6507803Y-12168197D02*
G75*
G02*
X6589083Y-12168197I40640J0D01*
G01*
X7636834Y-6369849D02*
G75*
G02*
X7555554Y-6369849I-40640J0D01*
G01*
X7555554Y-6369849D02*
G75*
G02*
X7636834Y-6369849I40640J0D01*
G01*
X7636834Y-13989855D02*
G75*
G02*
X7555554Y-13989855I-40640J0D01*
G01*
X7555554Y-13989855D02*
G75*
G02*
X7636834Y-13989855I40640J0D01*
G01*
X8113085Y-8274851D02*
G75*
G02*
X8031805Y-8274851I-40640J0D01*
G01*
X8031805Y-8274851D02*
G75*
G02*
X8113085Y-8274851I40640J0D01*
G01*
X8351210Y-10179852D02*
G75*
G02*
X8269930Y-10179852I-40640J0D01*
G01*
X8269930Y-10179852D02*
G75*
G02*
X8351210Y-10179852I40640J0D01*
G01*
X8398834Y-6369849D02*
G75*
G02*
X8317554Y-6369849I-40640J0D01*
G01*
X8317554Y-6369849D02*
G75*
G02*
X8398834Y-6369849I40640J0D01*
G01*
X8398834Y-13989855D02*
G75*
G02*
X8317554Y-13989855I-40640J0D01*
G01*
X8317554Y-13989855D02*
G75*
G02*
X8398834Y-13989855I40640J0D01*
G01*
X8589335Y-12084854D02*
G75*
G02*
X8508055Y-12084854I-40640J0D01*
G01*
X8508055Y-12084854D02*
G75*
G02*
X8589335Y-12084854I40640J0D01*
G01*
X8791741Y-5095880D02*
G75*
G02*
X8710461Y-5095880I-40640J0D01*
G01*
X8710461Y-5095880D02*
G75*
G02*
X8791741Y-5095880I40640J0D01*
G01*
X8791741Y-5857880D02*
G75*
G02*
X8710461Y-5857880I-40640J0D01*
G01*
X8710461Y-5857880D02*
G75*
G02*
X8791741Y-5857880I40640J0D01*
G01*
X8875085Y-8274851D02*
G75*
G02*
X8793805Y-8274851I-40640J0D01*
G01*
X8793805Y-8274851D02*
G75*
G02*
X8875085Y-8274851I40640J0D01*
G01*
X9113210Y-10179852D02*
G75*
G02*
X9031930Y-10179852I-40640J0D01*
G01*
X9031930Y-10179852D02*
G75*
G02*
X9113210Y-10179852I40640J0D01*
G01*
X9267992Y-7000881D02*
G75*
G02*
X9186712Y-7000881I-40640J0D01*
G01*
X9186712Y-7000881D02*
G75*
G02*
X9267992Y-7000881I40640J0D01*
G01*
X9267992Y-7762881D02*
G75*
G02*
X9186712Y-7762881I-40640J0D01*
G01*
X9186712Y-7762881D02*
G75*
G02*
X9267992Y-7762881I40640J0D01*
G01*
X9351335Y-12084854D02*
G75*
G02*
X9270055Y-12084854I-40640J0D01*
G01*
X9270055Y-12084854D02*
G75*
G02*
X9351335Y-12084854I40640J0D01*
G01*
X9541836Y-6369849D02*
G75*
G02*
X9460556Y-6369849I-40640J0D01*
G01*
X9460556Y-6369849D02*
G75*
G02*
X9541836Y-6369849I40640J0D01*
G01*
X10018086Y-13989855D02*
G75*
G02*
X9936806Y-13989855I-40640J0D01*
G01*
X9936806Y-13989855D02*
G75*
G02*
X10018086Y-13989855I40640J0D01*
G01*
X10303836Y-6369849D02*
G75*
G02*
X10222556Y-6369849I-40640J0D01*
G01*
X10222556Y-6369849D02*
G75*
G02*
X10303836Y-6369849I40640J0D01*
G01*
X10494337Y-8274851D02*
G75*
G02*
X10413057Y-8274851I-40640J0D01*
G01*
X10413057Y-8274851D02*
G75*
G02*
X10494337Y-8274851I40640J0D01*
G01*
X10780086Y-13989855D02*
G75*
G02*
X10698806Y-13989855I-40640J0D01*
G01*
X10698806Y-13989855D02*
G75*
G02*
X10780086Y-13989855I40640J0D01*
G01*
X10970587Y-10179852D02*
G75*
G02*
X10889307Y-10179852I-40640J0D01*
G01*
X10889307Y-10179852D02*
G75*
G02*
X10970587Y-10179852I40640J0D01*
G01*
X11256337Y-8274851D02*
G75*
G02*
X11175057Y-8274851I-40640J0D01*
G01*
X11175057Y-8274851D02*
G75*
G02*
X11256337Y-8274851I40640J0D01*
G01*
X11446837Y-6369849D02*
G75*
G02*
X11365557Y-6369849I-40640J0D01*
G01*
X11365557Y-6369849D02*
G75*
G02*
X11446837Y-6369849I40640J0D01*
G01*
X11446837Y-12084854D02*
G75*
G02*
X11365557Y-12084854I-40640J0D01*
G01*
X11365557Y-12084854D02*
G75*
G02*
X11446837Y-12084854I40640J0D01*
G01*
X11732587Y-10179852D02*
G75*
G02*
X11651307Y-10179852I-40640J0D01*
G01*
X11651307Y-10179852D02*
G75*
G02*
X11732587Y-10179852I40640J0D01*
G01*
X11923088Y-13989855D02*
G75*
G02*
X11841808Y-13989855I-40640J0D01*
G01*
X11841808Y-13989855D02*
G75*
G02*
X11923088Y-13989855I40640J0D01*
G01*
X12125494Y-8905883D02*
G75*
G02*
X12044214Y-8905883I-40640J0D01*
G01*
X12044214Y-8905883D02*
G75*
G02*
X12125494Y-8905883I40640J0D01*
G01*
X12125494Y-9667883D02*
G75*
G02*
X12044214Y-9667883I-40640J0D01*
G01*
X12044214Y-9667883D02*
G75*
G02*
X12125494Y-9667883I40640J0D01*
G01*
X12208837Y-6369849D02*
G75*
G02*
X12127557Y-6369849I-40640J0D01*
G01*
X12127557Y-6369849D02*
G75*
G02*
X12208837Y-6369849I40640J0D01*
G01*
X12208837Y-12084854D02*
G75*
G02*
X12127557Y-12084854I-40640J0D01*
G01*
X12127557Y-12084854D02*
G75*
G02*
X12208837Y-12084854I40640J0D01*
G01*
X12399338Y-8274851D02*
G75*
G02*
X12318058Y-8274851I-40640J0D01*
G01*
X12318058Y-8274851D02*
G75*
G02*
X12399338Y-8274851I40640J0D01*
G01*
X12685088Y-13989855D02*
G75*
G02*
X12603808Y-13989855I-40640J0D01*
G01*
X12603808Y-13989855D02*
G75*
G02*
X12685088Y-13989855I40640J0D01*
G01*
X12875589Y-10179852D02*
G75*
G02*
X12794309Y-10179852I-40640J0D01*
G01*
X12794309Y-10179852D02*
G75*
G02*
X12875589Y-10179852I40640J0D01*
G01*
X13161338Y-8274851D02*
G75*
G02*
X13080058Y-8274851I-40640J0D01*
G01*
X13080058Y-8274851D02*
G75*
G02*
X13161338Y-8274851I40640J0D01*
G01*
X13351839Y-6369849D02*
G75*
G02*
X13270559Y-6369849I-40640J0D01*
G01*
X13270559Y-6369849D02*
G75*
G02*
X13351839Y-6369849I40640J0D01*
G01*
X13351839Y-12084854D02*
G75*
G02*
X13270559Y-12084854I-40640J0D01*
G01*
X13270559Y-12084854D02*
G75*
G02*
X13351839Y-12084854I40640J0D01*
G01*
X13637589Y-10179852D02*
G75*
G02*
X13556309Y-10179852I-40640J0D01*
G01*
X13556309Y-10179852D02*
G75*
G02*
X13637589Y-10179852I40640J0D01*
G01*
X13828089Y-13989855D02*
G75*
G02*
X13746809Y-13989855I-40640J0D01*
G01*
X13746809Y-13989855D02*
G75*
G02*
X13828089Y-13989855I40640J0D01*
G01*
X14113839Y-6369849D02*
G75*
G02*
X14032559Y-6369849I-40640J0D01*
G01*
X14032559Y-6369849D02*
G75*
G02*
X14113839Y-6369849I40640J0D01*
G01*
X14113839Y-12084854D02*
G75*
G02*
X14032559Y-12084854I-40640J0D01*
G01*
X14032559Y-12084854D02*
G75*
G02*
X14113839Y-12084854I40640J0D01*
G01*
X14304340Y-8274851D02*
G75*
G02*
X14223060Y-8274851I-40640J0D01*
G01*
X14223060Y-8274851D02*
G75*
G02*
X14304340Y-8274851I40640J0D01*
G01*
X14590089Y-13989855D02*
G75*
G02*
X14508809Y-13989855I-40640J0D01*
G01*
X14508809Y-13989855D02*
G75*
G02*
X14590089Y-13989855I40640J0D01*
G01*
X14780590Y-10179852D02*
G75*
G02*
X14699310Y-10179852I-40640J0D01*
G01*
X14699310Y-10179852D02*
G75*
G02*
X14780590Y-10179852I40640J0D01*
G01*
X14982996Y-12715886D02*
G75*
G02*
X14901716Y-12715886I-40640J0D01*
G01*
X14901716Y-12715886D02*
G75*
G02*
X14982996Y-12715886I40640J0D01*
G01*
X14982996Y-13477886D02*
G75*
G02*
X14901716Y-13477886I-40640J0D01*
G01*
X14901716Y-13477886D02*
G75*
G02*
X14982996Y-13477886I40640J0D01*
G01*
X15066340Y-8274851D02*
G75*
G02*
X14985060Y-8274851I-40640J0D01*
G01*
X14985060Y-8274851D02*
G75*
G02*
X15066340Y-8274851I40640J0D01*
G01*
X15256841Y-6369849D02*
G75*
G02*
X15175561Y-6369849I-40640J0D01*
G01*
X15175561Y-6369849D02*
G75*
G02*
X15256841Y-6369849I40640J0D01*
G01*
X15256841Y-12084854D02*
G75*
G02*
X15175561Y-12084854I-40640J0D01*
G01*
X15175561Y-12084854D02*
G75*
G02*
X15256841Y-12084854I40640J0D01*
G01*
X15542590Y-10179852D02*
G75*
G02*
X15461310Y-10179852I-40640J0D01*
G01*
X15461310Y-10179852D02*
G75*
G02*
X15542590Y-10179852I40640J0D01*
G01*
X15733091Y-13989855D02*
G75*
G02*
X15651811Y-13989855I-40640J0D01*
G01*
X15651811Y-13989855D02*
G75*
G02*
X15733091Y-13989855I40640J0D01*
G01*
X16018841Y-6369849D02*
G75*
G02*
X15937561Y-6369849I-40640J0D01*
G01*
X15937561Y-6369849D02*
G75*
G02*
X16018841Y-6369849I40640J0D01*
G01*
X16018841Y-12084854D02*
G75*
G02*
X15937561Y-12084854I-40640J0D01*
G01*
X15937561Y-12084854D02*
G75*
G02*
X16018841Y-12084854I40640J0D01*
G01*
X16209341Y-8274851D02*
G75*
G02*
X16128061Y-8274851I-40640J0D01*
G01*
X16128061Y-8274851D02*
G75*
G02*
X16209341Y-8274851I40640J0D01*
G01*
X16495091Y-13989855D02*
G75*
G02*
X16413811Y-13989855I-40640J0D01*
G01*
X16413811Y-13989855D02*
G75*
G02*
X16495091Y-13989855I40640J0D01*
G01*
X16685592Y-10179852D02*
G75*
G02*
X16604312Y-10179852I-40640J0D01*
G01*
X16604312Y-10179852D02*
G75*
G02*
X16685592Y-10179852I40640J0D01*
G01*
X16887998Y-12715886D02*
G75*
G02*
X16806718Y-12715886I-40640J0D01*
G01*
X16806718Y-12715886D02*
G75*
G02*
X16887998Y-12715886I40640J0D01*
G01*
X16887998Y-13477886D02*
G75*
G02*
X16806718Y-13477886I-40640J0D01*
G01*
X16806718Y-13477886D02*
G75*
G02*
X16887998Y-13477886I40640J0D01*
G01*
X16971341Y-8274851D02*
G75*
G02*
X16890061Y-8274851I-40640J0D01*
G01*
X16890061Y-8274851D02*
G75*
G02*
X16971341Y-8274851I40640J0D01*
G01*
X17161842Y-6369849D02*
G75*
G02*
X17080562Y-6369849I-40640J0D01*
G01*
X17080562Y-6369849D02*
G75*
G02*
X17161842Y-6369849I40640J0D01*
G01*
X17161842Y-12084854D02*
G75*
G02*
X17080562Y-12084854I-40640J0D01*
G01*
X17080562Y-12084854D02*
G75*
G02*
X17161842Y-12084854I40640J0D01*
G01*
X17447592Y-10179852D02*
G75*
G02*
X17366312Y-10179852I-40640J0D01*
G01*
X17366312Y-10179852D02*
G75*
G02*
X17447592Y-10179852I40640J0D01*
G01*
X17876218Y-13989855D02*
G75*
G02*
X17794938Y-13989855I-40640J0D01*
G01*
X17794938Y-13989855D02*
G75*
G02*
X17876218Y-13989855I40640J0D01*
G01*
X17923842Y-6369849D02*
G75*
G02*
X17842562Y-6369849I-40640J0D01*
G01*
X17842562Y-6369849D02*
G75*
G02*
X17923842Y-6369849I40640J0D01*
G01*
X17923842Y-12084854D02*
G75*
G02*
X17842562Y-12084854I-40640J0D01*
G01*
X17842562Y-12084854D02*
G75*
G02*
X17923842Y-12084854I40640J0D01*
G01*
X18114343Y-8274851D02*
G75*
G02*
X18033063Y-8274851I-40640J0D01*
G01*
X18033063Y-8274851D02*
G75*
G02*
X18114343Y-8274851I40640J0D01*
G01*
X18590593Y-10179852D02*
G75*
G02*
X18509313Y-10179852I-40640J0D01*
G01*
X18509313Y-10179852D02*
G75*
G02*
X18590593Y-10179852I40640J0D01*
G01*
X18638218Y-13989855D02*
G75*
G02*
X18556938Y-13989855I-40640J0D01*
G01*
X18556938Y-13989855D02*
G75*
G02*
X18638218Y-13989855I40640J0D01*
G01*
X18876343Y-8274851D02*
G75*
G02*
X18795063Y-8274851I-40640J0D01*
G01*
X18795063Y-8274851D02*
G75*
G02*
X18876343Y-8274851I40640J0D01*
G01*
X19031125Y-12715886D02*
G75*
G02*
X18949845Y-12715886I-40640J0D01*
G01*
X18949845Y-12715886D02*
G75*
G02*
X19031125Y-12715886I40640J0D01*
G01*
X19031125Y-13477886D02*
G75*
G02*
X18949845Y-13477886I-40640J0D01*
G01*
X18949845Y-13477886D02*
G75*
G02*
X19031125Y-13477886I40640J0D01*
G01*
X19066844Y-6369849D02*
G75*
G02*
X18985564Y-6369849I-40640J0D01*
G01*
X18985564Y-6369849D02*
G75*
G02*
X19066844Y-6369849I40640J0D01*
G01*
X19066844Y-12084854D02*
G75*
G02*
X18985564Y-12084854I-40640J0D01*
G01*
X18985564Y-12084854D02*
G75*
G02*
X19066844Y-12084854I40640J0D01*
G01*
X19352593Y-10179852D02*
G75*
G02*
X19271313Y-10179852I-40640J0D01*
G01*
X19271313Y-10179852D02*
G75*
G02*
X19352593Y-10179852I40640J0D01*
G01*
X19828844Y-6369849D02*
G75*
G02*
X19747564Y-6369849I-40640J0D01*
G01*
X19747564Y-6369849D02*
G75*
G02*
X19828844Y-6369849I40640J0D01*
G01*
X19828844Y-12084854D02*
G75*
G02*
X19747564Y-12084854I-40640J0D01*
G01*
X19747564Y-12084854D02*
G75*
G02*
X19828844Y-12084854I40640J0D01*
G01*
X4953000Y-5146675D02*
X4953000Y-5235575D01*
X4908550Y-5191125D02*
X4997450Y-5191125D01*
X4953000Y-5400675D02*
X4953000Y-5489575D01*
X4908550Y-5445125D02*
X4997450Y-5445125D01*
X4953000Y-5654675D02*
X4953000Y-5743575D01*
X4908550Y-5699125D02*
X4997450Y-5699125D01*
X4953000Y-5908675D02*
X4953000Y-5997575D01*
X4908550Y-5953125D02*
X4997450Y-5953125D01*
X4953000Y-6162675D02*
X4953000Y-6251575D01*
X4908550Y-6207125D02*
X4997450Y-6207125D01*
X4953000Y-6416675D02*
X4953000Y-6505575D01*
X4908550Y-6461125D02*
X4997450Y-6461125D01*
X4953000Y-6670675D02*
X4953000Y-6759575D01*
X4908550Y-6715125D02*
X4997450Y-6715125D01*
X6477000Y-5146675D02*
X6477000Y-5235575D01*
X6432550Y-5191125D02*
X6521450Y-5191125D01*
X6477000Y-5400675D02*
X6477000Y-5489575D01*
X6432550Y-5445125D02*
X6521450Y-5445125D01*
X6477000Y-5654675D02*
X6477000Y-5743575D01*
X6432550Y-5699125D02*
X6521450Y-5699125D01*
X6477000Y-5908675D02*
X6477000Y-5997575D01*
X6432550Y-5953125D02*
X6521450Y-5953125D01*
X6477000Y-6162675D02*
X6477000Y-6251575D01*
X6432550Y-6207125D02*
X6521450Y-6207125D01*
X6477000Y-6416675D02*
X6477000Y-6505575D01*
X6432550Y-6461125D02*
X6521450Y-6461125D01*
X6477000Y-6670675D02*
X6477000Y-6759575D01*
X6432550Y-6715125D02*
X6521450Y-6715125D01*
D11*
X4782652Y-14661027D02*
X4782652Y-14461027D01*
X4782652Y-14461027D02*
X4830271Y-14461027D01*
X4830271Y-14461027D02*
X4858842Y-14470551D01*
X4858842Y-14470551D02*
X4877890Y-14489598D01*
X4877890Y-14489598D02*
X4887414Y-14508646D01*
X4887414Y-14508646D02*
X4896938Y-14546741D01*
X4896938Y-14546741D02*
X4896938Y-14575313D01*
X4896938Y-14575313D02*
X4887414Y-14613408D01*
X4887414Y-14613408D02*
X4877890Y-14632456D01*
X4877890Y-14632456D02*
X4858842Y-14651503D01*
X4858842Y-14651503D02*
X4830271Y-14661027D01*
X4830271Y-14661027D02*
X4782652Y-14661027D01*
X4982652Y-14661027D02*
X4982652Y-14527694D01*
X4982652Y-14565789D02*
X4992176Y-14546741D01*
X4992176Y-14546741D02*
X5001699Y-14537217D01*
X5001699Y-14537217D02*
X5020747Y-14527694D01*
X5020747Y-14527694D02*
X5039795Y-14527694D01*
X5106461Y-14661027D02*
X5106461Y-14527694D01*
X5106461Y-14461027D02*
X5096938Y-14470551D01*
X5096938Y-14470551D02*
X5106461Y-14480075D01*
X5106461Y-14480075D02*
X5115985Y-14470551D01*
X5115985Y-14470551D02*
X5106461Y-14461027D01*
X5106461Y-14461027D02*
X5106461Y-14480075D01*
X5230271Y-14661027D02*
X5211223Y-14651503D01*
X5211223Y-14651503D02*
X5201699Y-14632456D01*
X5201699Y-14632456D02*
X5201699Y-14461027D01*
X5335033Y-14661027D02*
X5315985Y-14651503D01*
X5315985Y-14651503D02*
X5306461Y-14632456D01*
X5306461Y-14632456D02*
X5306461Y-14461027D01*
X5563604Y-14661027D02*
X5563604Y-14461027D01*
X5563604Y-14461027D02*
X5630271Y-14603884D01*
X5630271Y-14603884D02*
X5696937Y-14461027D01*
X5696937Y-14461027D02*
X5696937Y-14661027D01*
X5877890Y-14661027D02*
X5877890Y-14556265D01*
X5877890Y-14556265D02*
X5868366Y-14537217D01*
X5868366Y-14537217D02*
X5849318Y-14527694D01*
X5849318Y-14527694D02*
X5811223Y-14527694D01*
X5811223Y-14527694D02*
X5792176Y-14537217D01*
X5877890Y-14651503D02*
X5858842Y-14661027D01*
X5858842Y-14661027D02*
X5811223Y-14661027D01*
X5811223Y-14661027D02*
X5792176Y-14651503D01*
X5792176Y-14651503D02*
X5782652Y-14632456D01*
X5782652Y-14632456D02*
X5782652Y-14613408D01*
X5782652Y-14613408D02*
X5792176Y-14594360D01*
X5792176Y-14594360D02*
X5811223Y-14584837D01*
X5811223Y-14584837D02*
X5858842Y-14584837D01*
X5858842Y-14584837D02*
X5877890Y-14575313D01*
X5973128Y-14527694D02*
X5973128Y-14727694D01*
X5973128Y-14537217D02*
X5992176Y-14527694D01*
X5992176Y-14527694D02*
X6030271Y-14527694D01*
X6030271Y-14527694D02*
X6049318Y-14537217D01*
X6049318Y-14537217D02*
X6058842Y-14546741D01*
X6058842Y-14546741D02*
X6068366Y-14565789D01*
X6068366Y-14565789D02*
X6068366Y-14622932D01*
X6068366Y-14622932D02*
X6058842Y-14641979D01*
X6058842Y-14641979D02*
X6049318Y-14651503D01*
X6049318Y-14651503D02*
X6030271Y-14661027D01*
X6030271Y-14661027D02*
X5992176Y-14661027D01*
X5992176Y-14661027D02*
X5973128Y-14651503D01*
X6154080Y-14641979D02*
X6163604Y-14651503D01*
X6163604Y-14651503D02*
X6154080Y-14661027D01*
X6154080Y-14661027D02*
X6144557Y-14651503D01*
X6144557Y-14651503D02*
X6154080Y-14641979D01*
X6154080Y-14641979D02*
X6154080Y-14661027D01*
X6154080Y-14537217D02*
X6163604Y-14546741D01*
X6163604Y-14546741D02*
X6154080Y-14556265D01*
X6154080Y-14556265D02*
X6144557Y-14546741D01*
X6144557Y-14546741D02*
X6154080Y-14537217D01*
X6154080Y-14537217D02*
X6154080Y-14556265D01*
D12*
X4491875Y-14974543D02*
X4521875Y-15004543D01*
X4521875Y-14974543D02*
X4491875Y-15004543D01*
D11*
X4820747Y-14881027D02*
X4839795Y-14881027D01*
X4839795Y-14881027D02*
X4858842Y-14890551D01*
X4858842Y-14890551D02*
X4868366Y-14900075D01*
X4868366Y-14900075D02*
X4877890Y-14919122D01*
X4877890Y-14919122D02*
X4887414Y-14957217D01*
X4887414Y-14957217D02*
X4887414Y-15004837D01*
X4887414Y-15004837D02*
X4877890Y-15042932D01*
X4877890Y-15042932D02*
X4868366Y-15061979D01*
X4868366Y-15061979D02*
X4858842Y-15071503D01*
X4858842Y-15071503D02*
X4839795Y-15081027D01*
X4839795Y-15081027D02*
X4820747Y-15081027D01*
X4820747Y-15081027D02*
X4801699Y-15071503D01*
X4801699Y-15071503D02*
X4792176Y-15061979D01*
X4792176Y-15061979D02*
X4782652Y-15042932D01*
X4782652Y-15042932D02*
X4773128Y-15004837D01*
X4773128Y-15004837D02*
X4773128Y-14957217D01*
X4773128Y-14957217D02*
X4782652Y-14919122D01*
X4782652Y-14919122D02*
X4792176Y-14900075D01*
X4792176Y-14900075D02*
X4801699Y-14890551D01*
X4801699Y-14890551D02*
X4820747Y-14881027D01*
X4973128Y-15061979D02*
X4982652Y-15071503D01*
X4982652Y-15071503D02*
X4973128Y-15081027D01*
X4973128Y-15081027D02*
X4963604Y-15071503D01*
X4963604Y-15071503D02*
X4973128Y-15061979D01*
X4973128Y-15061979D02*
X4973128Y-15081027D01*
X5049319Y-14881027D02*
X5173128Y-14881027D01*
X5173128Y-14881027D02*
X5106461Y-14957217D01*
X5106461Y-14957217D02*
X5135033Y-14957217D01*
X5135033Y-14957217D02*
X5154080Y-14966741D01*
X5154080Y-14966741D02*
X5163604Y-14976265D01*
X5163604Y-14976265D02*
X5173128Y-14995313D01*
X5173128Y-14995313D02*
X5173128Y-15042932D01*
X5173128Y-15042932D02*
X5163604Y-15061979D01*
X5163604Y-15061979D02*
X5154080Y-15071503D01*
X5154080Y-15071503D02*
X5135033Y-15081027D01*
X5135033Y-15081027D02*
X5077890Y-15081027D01*
X5077890Y-15081027D02*
X5058842Y-15071503D01*
X5058842Y-15071503D02*
X5049319Y-15061979D01*
X5296938Y-14881027D02*
X5315985Y-14881027D01*
X5315985Y-14881027D02*
X5335033Y-14890551D01*
X5335033Y-14890551D02*
X5344557Y-14900075D01*
X5344557Y-14900075D02*
X5354080Y-14919122D01*
X5354080Y-14919122D02*
X5363604Y-14957217D01*
X5363604Y-14957217D02*
X5363604Y-15004837D01*
X5363604Y-15004837D02*
X5354080Y-15042932D01*
X5354080Y-15042932D02*
X5344557Y-15061979D01*
X5344557Y-15061979D02*
X5335033Y-15071503D01*
X5335033Y-15071503D02*
X5315985Y-15081027D01*
X5315985Y-15081027D02*
X5296938Y-15081027D01*
X5296938Y-15081027D02*
X5277890Y-15071503D01*
X5277890Y-15071503D02*
X5268366Y-15061979D01*
X5268366Y-15061979D02*
X5258842Y-15042932D01*
X5258842Y-15042932D02*
X5249319Y-15004837D01*
X5249319Y-15004837D02*
X5249319Y-14957217D01*
X5249319Y-14957217D02*
X5258842Y-14919122D01*
X5258842Y-14919122D02*
X5268366Y-14900075D01*
X5268366Y-14900075D02*
X5277890Y-14890551D01*
X5277890Y-14890551D02*
X5296938Y-14881027D01*
X5487414Y-14881027D02*
X5506461Y-14881027D01*
X5506461Y-14881027D02*
X5525509Y-14890551D01*
X5525509Y-14890551D02*
X5535033Y-14900075D01*
X5535033Y-14900075D02*
X5544557Y-14919122D01*
X5544557Y-14919122D02*
X5554080Y-14957217D01*
X5554080Y-14957217D02*
X5554080Y-15004837D01*
X5554080Y-15004837D02*
X5544557Y-15042932D01*
X5544557Y-15042932D02*
X5535033Y-15061979D01*
X5535033Y-15061979D02*
X5525509Y-15071503D01*
X5525509Y-15071503D02*
X5506461Y-15081027D01*
X5506461Y-15081027D02*
X5487414Y-15081027D01*
X5487414Y-15081027D02*
X5468366Y-15071503D01*
X5468366Y-15071503D02*
X5458842Y-15061979D01*
X5458842Y-15061979D02*
X5449319Y-15042932D01*
X5449319Y-15042932D02*
X5439795Y-15004837D01*
X5439795Y-15004837D02*
X5439795Y-14957217D01*
X5439795Y-14957217D02*
X5449319Y-14919122D01*
X5449319Y-14919122D02*
X5458842Y-14900075D01*
X5458842Y-14900075D02*
X5468366Y-14890551D01*
X5468366Y-14890551D02*
X5487414Y-14881027D01*
X5639795Y-15081027D02*
X5639795Y-14947694D01*
X5639795Y-14966741D02*
X5649318Y-14957217D01*
X5649318Y-14957217D02*
X5668366Y-14947694D01*
X5668366Y-14947694D02*
X5696938Y-14947694D01*
X5696938Y-14947694D02*
X5715985Y-14957217D01*
X5715985Y-14957217D02*
X5725509Y-14976265D01*
X5725509Y-14976265D02*
X5725509Y-15081027D01*
X5725509Y-14976265D02*
X5735033Y-14957217D01*
X5735033Y-14957217D02*
X5754080Y-14947694D01*
X5754080Y-14947694D02*
X5782652Y-14947694D01*
X5782652Y-14947694D02*
X5801699Y-14957217D01*
X5801699Y-14957217D02*
X5811223Y-14976265D01*
X5811223Y-14976265D02*
X5811223Y-15081027D01*
X5906461Y-15081027D02*
X5906461Y-14947694D01*
X5906461Y-14966741D02*
X5915985Y-14957217D01*
X5915985Y-14957217D02*
X5935033Y-14947694D01*
X5935033Y-14947694D02*
X5963604Y-14947694D01*
X5963604Y-14947694D02*
X5982652Y-14957217D01*
X5982652Y-14957217D02*
X5992176Y-14976265D01*
X5992176Y-14976265D02*
X5992176Y-15081027D01*
X5992176Y-14976265D02*
X6001699Y-14957217D01*
X6001699Y-14957217D02*
X6020747Y-14947694D01*
X6020747Y-14947694D02*
X6049318Y-14947694D01*
X6049318Y-14947694D02*
X6068366Y-14957217D01*
X6068366Y-14957217D02*
X6077890Y-14976265D01*
X6077890Y-14976265D02*
X6077890Y-15081027D01*
X6468366Y-14871503D02*
X6296938Y-15128646D01*
X6725509Y-14881027D02*
X6744557Y-14881027D01*
X6744557Y-14881027D02*
X6763604Y-14890551D01*
X6763604Y-14890551D02*
X6773128Y-14900075D01*
X6773128Y-14900075D02*
X6782652Y-14919122D01*
X6782652Y-14919122D02*
X6792176Y-14957217D01*
X6792176Y-14957217D02*
X6792176Y-15004837D01*
X6792176Y-15004837D02*
X6782652Y-15042932D01*
X6782652Y-15042932D02*
X6773128Y-15061979D01*
X6773128Y-15061979D02*
X6763604Y-15071503D01*
X6763604Y-15071503D02*
X6744557Y-15081027D01*
X6744557Y-15081027D02*
X6725509Y-15081027D01*
X6725509Y-15081027D02*
X6706461Y-15071503D01*
X6706461Y-15071503D02*
X6696938Y-15061979D01*
X6696938Y-15061979D02*
X6687414Y-15042932D01*
X6687414Y-15042932D02*
X6677890Y-15004837D01*
X6677890Y-15004837D02*
X6677890Y-14957217D01*
X6677890Y-14957217D02*
X6687414Y-14919122D01*
X6687414Y-14919122D02*
X6696938Y-14900075D01*
X6696938Y-14900075D02*
X6706461Y-14890551D01*
X6706461Y-14890551D02*
X6725509Y-14881027D01*
X6877890Y-15061979D02*
X6887414Y-15071503D01*
X6887414Y-15071503D02*
X6877890Y-15081027D01*
X6877890Y-15081027D02*
X6868366Y-15071503D01*
X6868366Y-15071503D02*
X6877890Y-15061979D01*
X6877890Y-15061979D02*
X6877890Y-15081027D01*
X7011223Y-14881027D02*
X7030271Y-14881027D01*
X7030271Y-14881027D02*
X7049319Y-14890551D01*
X7049319Y-14890551D02*
X7058842Y-14900075D01*
X7058842Y-14900075D02*
X7068366Y-14919122D01*
X7068366Y-14919122D02*
X7077890Y-14957217D01*
X7077890Y-14957217D02*
X7077890Y-15004837D01*
X7077890Y-15004837D02*
X7068366Y-15042932D01*
X7068366Y-15042932D02*
X7058842Y-15061979D01*
X7058842Y-15061979D02*
X7049319Y-15071503D01*
X7049319Y-15071503D02*
X7030271Y-15081027D01*
X7030271Y-15081027D02*
X7011223Y-15081027D01*
X7011223Y-15081027D02*
X6992176Y-15071503D01*
X6992176Y-15071503D02*
X6982652Y-15061979D01*
X6982652Y-15061979D02*
X6973128Y-15042932D01*
X6973128Y-15042932D02*
X6963604Y-15004837D01*
X6963604Y-15004837D02*
X6963604Y-14957217D01*
X6963604Y-14957217D02*
X6973128Y-14919122D01*
X6973128Y-14919122D02*
X6982652Y-14900075D01*
X6982652Y-14900075D02*
X6992176Y-14890551D01*
X6992176Y-14890551D02*
X7011223Y-14881027D01*
X7268366Y-15081027D02*
X7154081Y-15081027D01*
X7211223Y-15081027D02*
X7211223Y-14881027D01*
X7211223Y-14881027D02*
X7192176Y-14909598D01*
X7192176Y-14909598D02*
X7173128Y-14928646D01*
X7173128Y-14928646D02*
X7154081Y-14938170D01*
X7458842Y-15081027D02*
X7344557Y-15081027D01*
X7401700Y-15081027D02*
X7401700Y-14881027D01*
X7401700Y-14881027D02*
X7382652Y-14909598D01*
X7382652Y-14909598D02*
X7363604Y-14928646D01*
X7363604Y-14928646D02*
X7344557Y-14938170D01*
X7573128Y-14966741D02*
X7554081Y-14957217D01*
X7554081Y-14957217D02*
X7544557Y-14947694D01*
X7544557Y-14947694D02*
X7535033Y-14928646D01*
X7535033Y-14928646D02*
X7535033Y-14919122D01*
X7535033Y-14919122D02*
X7544557Y-14900075D01*
X7544557Y-14900075D02*
X7554081Y-14890551D01*
X7554081Y-14890551D02*
X7573128Y-14881027D01*
X7573128Y-14881027D02*
X7611223Y-14881027D01*
X7611223Y-14881027D02*
X7630271Y-14890551D01*
X7630271Y-14890551D02*
X7639795Y-14900075D01*
X7639795Y-14900075D02*
X7649319Y-14919122D01*
X7649319Y-14919122D02*
X7649319Y-14928646D01*
X7649319Y-14928646D02*
X7639795Y-14947694D01*
X7639795Y-14947694D02*
X7630271Y-14957217D01*
X7630271Y-14957217D02*
X7611223Y-14966741D01*
X7611223Y-14966741D02*
X7573128Y-14966741D01*
X7573128Y-14966741D02*
X7554081Y-14976265D01*
X7554081Y-14976265D02*
X7544557Y-14985789D01*
X7544557Y-14985789D02*
X7535033Y-15004837D01*
X7535033Y-15004837D02*
X7535033Y-15042932D01*
X7535033Y-15042932D02*
X7544557Y-15061979D01*
X7544557Y-15061979D02*
X7554081Y-15071503D01*
X7554081Y-15071503D02*
X7573128Y-15081027D01*
X7573128Y-15081027D02*
X7611223Y-15081027D01*
X7611223Y-15081027D02*
X7630271Y-15071503D01*
X7630271Y-15071503D02*
X7639795Y-15061979D01*
X7639795Y-15061979D02*
X7649319Y-15042932D01*
X7649319Y-15042932D02*
X7649319Y-15004837D01*
X7649319Y-15004837D02*
X7639795Y-14985789D01*
X7639795Y-14985789D02*
X7630271Y-14976265D01*
X7630271Y-14976265D02*
X7611223Y-14966741D01*
X7725509Y-14881027D02*
X7725509Y-14919122D01*
X7801700Y-14881027D02*
X7801700Y-14919122D01*
X8096938Y-15157217D02*
X8087414Y-15147694D01*
X8087414Y-15147694D02*
X8068366Y-15119122D01*
X8068366Y-15119122D02*
X8058843Y-15100075D01*
X8058843Y-15100075D02*
X8049319Y-15071503D01*
X8049319Y-15071503D02*
X8039795Y-15023884D01*
X8039795Y-15023884D02*
X8039795Y-14985789D01*
X8039795Y-14985789D02*
X8049319Y-14938170D01*
X8049319Y-14938170D02*
X8058843Y-14909598D01*
X8058843Y-14909598D02*
X8068366Y-14890551D01*
X8068366Y-14890551D02*
X8087414Y-14861979D01*
X8087414Y-14861979D02*
X8096938Y-14852456D01*
X8277890Y-15081027D02*
X8163604Y-15081027D01*
X8220747Y-15081027D02*
X8220747Y-14881027D01*
X8220747Y-14881027D02*
X8201700Y-14909598D01*
X8201700Y-14909598D02*
X8182652Y-14928646D01*
X8182652Y-14928646D02*
X8163604Y-14938170D01*
X8373128Y-15081027D02*
X8411224Y-15081027D01*
X8411224Y-15081027D02*
X8430271Y-15071503D01*
X8430271Y-15071503D02*
X8439795Y-15061979D01*
X8439795Y-15061979D02*
X8458843Y-15033408D01*
X8458843Y-15033408D02*
X8468366Y-14995313D01*
X8468366Y-14995313D02*
X8468366Y-14919122D01*
X8468366Y-14919122D02*
X8458843Y-14900075D01*
X8458843Y-14900075D02*
X8449319Y-14890551D01*
X8449319Y-14890551D02*
X8430271Y-14881027D01*
X8430271Y-14881027D02*
X8392176Y-14881027D01*
X8392176Y-14881027D02*
X8373128Y-14890551D01*
X8373128Y-14890551D02*
X8363604Y-14900075D01*
X8363604Y-14900075D02*
X8354081Y-14919122D01*
X8354081Y-14919122D02*
X8354081Y-14966741D01*
X8354081Y-14966741D02*
X8363604Y-14985789D01*
X8363604Y-14985789D02*
X8373128Y-14995313D01*
X8373128Y-14995313D02*
X8392176Y-15004837D01*
X8392176Y-15004837D02*
X8430271Y-15004837D01*
X8430271Y-15004837D02*
X8449319Y-14995313D01*
X8449319Y-14995313D02*
X8458843Y-14985789D01*
X8458843Y-14985789D02*
X8468366Y-14966741D01*
X8639795Y-14947694D02*
X8639795Y-15081027D01*
X8592176Y-14871503D02*
X8544557Y-15014360D01*
X8544557Y-15014360D02*
X8668366Y-15014360D01*
X8896938Y-15081027D02*
X8896938Y-14881027D01*
X8982652Y-15081027D02*
X8982652Y-14976265D01*
X8982652Y-14976265D02*
X8973128Y-14957217D01*
X8973128Y-14957217D02*
X8954081Y-14947694D01*
X8954081Y-14947694D02*
X8925509Y-14947694D01*
X8925509Y-14947694D02*
X8906462Y-14957217D01*
X8906462Y-14957217D02*
X8896938Y-14966741D01*
X9106462Y-15081027D02*
X9087414Y-15071503D01*
X9087414Y-15071503D02*
X9077890Y-15061979D01*
X9077890Y-15061979D02*
X9068367Y-15042932D01*
X9068367Y-15042932D02*
X9068367Y-14985789D01*
X9068367Y-14985789D02*
X9077890Y-14966741D01*
X9077890Y-14966741D02*
X9087414Y-14957217D01*
X9087414Y-14957217D02*
X9106462Y-14947694D01*
X9106462Y-14947694D02*
X9135033Y-14947694D01*
X9135033Y-14947694D02*
X9154081Y-14957217D01*
X9154081Y-14957217D02*
X9163605Y-14966741D01*
X9163605Y-14966741D02*
X9173128Y-14985789D01*
X9173128Y-14985789D02*
X9173128Y-15042932D01*
X9173128Y-15042932D02*
X9163605Y-15061979D01*
X9163605Y-15061979D02*
X9154081Y-15071503D01*
X9154081Y-15071503D02*
X9135033Y-15081027D01*
X9135033Y-15081027D02*
X9106462Y-15081027D01*
X9287414Y-15081027D02*
X9268367Y-15071503D01*
X9268367Y-15071503D02*
X9258843Y-15052456D01*
X9258843Y-15052456D02*
X9258843Y-14881027D01*
X9439795Y-15071503D02*
X9420748Y-15081027D01*
X9420748Y-15081027D02*
X9382652Y-15081027D01*
X9382652Y-15081027D02*
X9363605Y-15071503D01*
X9363605Y-15071503D02*
X9354081Y-15052456D01*
X9354081Y-15052456D02*
X9354081Y-14976265D01*
X9354081Y-14976265D02*
X9363605Y-14957217D01*
X9363605Y-14957217D02*
X9382652Y-14947694D01*
X9382652Y-14947694D02*
X9420748Y-14947694D01*
X9420748Y-14947694D02*
X9439795Y-14957217D01*
X9439795Y-14957217D02*
X9449319Y-14976265D01*
X9449319Y-14976265D02*
X9449319Y-14995313D01*
X9449319Y-14995313D02*
X9354081Y-15014360D01*
X9525509Y-15071503D02*
X9544557Y-15081027D01*
X9544557Y-15081027D02*
X9582652Y-15081027D01*
X9582652Y-15081027D02*
X9601700Y-15071503D01*
X9601700Y-15071503D02*
X9611224Y-15052456D01*
X9611224Y-15052456D02*
X9611224Y-15042932D01*
X9611224Y-15042932D02*
X9601700Y-15023884D01*
X9601700Y-15023884D02*
X9582652Y-15014360D01*
X9582652Y-15014360D02*
X9554081Y-15014360D01*
X9554081Y-15014360D02*
X9535033Y-15004837D01*
X9535033Y-15004837D02*
X9525509Y-14985789D01*
X9525509Y-14985789D02*
X9525509Y-14976265D01*
X9525509Y-14976265D02*
X9535033Y-14957217D01*
X9535033Y-14957217D02*
X9554081Y-14947694D01*
X9554081Y-14947694D02*
X9582652Y-14947694D01*
X9582652Y-14947694D02*
X9601700Y-14957217D01*
X9677890Y-15157217D02*
X9687414Y-15147694D01*
X9687414Y-15147694D02*
X9706462Y-15119122D01*
X9706462Y-15119122D02*
X9715986Y-15100075D01*
X9715986Y-15100075D02*
X9725509Y-15071503D01*
X9725509Y-15071503D02*
X9735033Y-15023884D01*
X9735033Y-15023884D02*
X9735033Y-14985789D01*
X9735033Y-14985789D02*
X9725509Y-14938170D01*
X9725509Y-14938170D02*
X9715986Y-14909598D01*
X9715986Y-14909598D02*
X9706462Y-14890551D01*
X9706462Y-14890551D02*
X9687414Y-14861979D01*
X9687414Y-14861979D02*
X9677890Y-14852456D01*
D12*
X4521875Y-15253543D02*
G75*
G02*
X4440595Y-15253543I-40640J0D01*
G01*
X4440595Y-15253543D02*
G75*
G02*
X4521875Y-15253543I40640J0D01*
G01*
D11*
X4820747Y-15145027D02*
X4839795Y-15145027D01*
X4839795Y-15145027D02*
X4858842Y-15154551D01*
X4858842Y-15154551D02*
X4868366Y-15164075D01*
X4868366Y-15164075D02*
X4877890Y-15183122D01*
X4877890Y-15183122D02*
X4887414Y-15221217D01*
X4887414Y-15221217D02*
X4887414Y-15268837D01*
X4887414Y-15268837D02*
X4877890Y-15306932D01*
X4877890Y-15306932D02*
X4868366Y-15325979D01*
X4868366Y-15325979D02*
X4858842Y-15335503D01*
X4858842Y-15335503D02*
X4839795Y-15345027D01*
X4839795Y-15345027D02*
X4820747Y-15345027D01*
X4820747Y-15345027D02*
X4801699Y-15335503D01*
X4801699Y-15335503D02*
X4792176Y-15325979D01*
X4792176Y-15325979D02*
X4782652Y-15306932D01*
X4782652Y-15306932D02*
X4773128Y-15268837D01*
X4773128Y-15268837D02*
X4773128Y-15221217D01*
X4773128Y-15221217D02*
X4782652Y-15183122D01*
X4782652Y-15183122D02*
X4792176Y-15164075D01*
X4792176Y-15164075D02*
X4801699Y-15154551D01*
X4801699Y-15154551D02*
X4820747Y-15145027D01*
X4973128Y-15325979D02*
X4982652Y-15335503D01*
X4982652Y-15335503D02*
X4973128Y-15345027D01*
X4973128Y-15345027D02*
X4963604Y-15335503D01*
X4963604Y-15335503D02*
X4973128Y-15325979D01*
X4973128Y-15325979D02*
X4973128Y-15345027D01*
X5096938Y-15230741D02*
X5077890Y-15221217D01*
X5077890Y-15221217D02*
X5068366Y-15211694D01*
X5068366Y-15211694D02*
X5058842Y-15192646D01*
X5058842Y-15192646D02*
X5058842Y-15183122D01*
X5058842Y-15183122D02*
X5068366Y-15164075D01*
X5068366Y-15164075D02*
X5077890Y-15154551D01*
X5077890Y-15154551D02*
X5096938Y-15145027D01*
X5096938Y-15145027D02*
X5135033Y-15145027D01*
X5135033Y-15145027D02*
X5154080Y-15154551D01*
X5154080Y-15154551D02*
X5163604Y-15164075D01*
X5163604Y-15164075D02*
X5173128Y-15183122D01*
X5173128Y-15183122D02*
X5173128Y-15192646D01*
X5173128Y-15192646D02*
X5163604Y-15211694D01*
X5163604Y-15211694D02*
X5154080Y-15221217D01*
X5154080Y-15221217D02*
X5135033Y-15230741D01*
X5135033Y-15230741D02*
X5096938Y-15230741D01*
X5096938Y-15230741D02*
X5077890Y-15240265D01*
X5077890Y-15240265D02*
X5068366Y-15249789D01*
X5068366Y-15249789D02*
X5058842Y-15268837D01*
X5058842Y-15268837D02*
X5058842Y-15306932D01*
X5058842Y-15306932D02*
X5068366Y-15325979D01*
X5068366Y-15325979D02*
X5077890Y-15335503D01*
X5077890Y-15335503D02*
X5096938Y-15345027D01*
X5096938Y-15345027D02*
X5135033Y-15345027D01*
X5135033Y-15345027D02*
X5154080Y-15335503D01*
X5154080Y-15335503D02*
X5163604Y-15325979D01*
X5163604Y-15325979D02*
X5173128Y-15306932D01*
X5173128Y-15306932D02*
X5173128Y-15268837D01*
X5173128Y-15268837D02*
X5163604Y-15249789D01*
X5163604Y-15249789D02*
X5154080Y-15240265D01*
X5154080Y-15240265D02*
X5135033Y-15230741D01*
X5363604Y-15345027D02*
X5249319Y-15345027D01*
X5306461Y-15345027D02*
X5306461Y-15145027D01*
X5306461Y-15145027D02*
X5287414Y-15173598D01*
X5287414Y-15173598D02*
X5268366Y-15192646D01*
X5268366Y-15192646D02*
X5249319Y-15202170D01*
X5430271Y-15145027D02*
X5554080Y-15145027D01*
X5554080Y-15145027D02*
X5487414Y-15221217D01*
X5487414Y-15221217D02*
X5515985Y-15221217D01*
X5515985Y-15221217D02*
X5535033Y-15230741D01*
X5535033Y-15230741D02*
X5544557Y-15240265D01*
X5544557Y-15240265D02*
X5554080Y-15259313D01*
X5554080Y-15259313D02*
X5554080Y-15306932D01*
X5554080Y-15306932D02*
X5544557Y-15325979D01*
X5544557Y-15325979D02*
X5535033Y-15335503D01*
X5535033Y-15335503D02*
X5515985Y-15345027D01*
X5515985Y-15345027D02*
X5458842Y-15345027D01*
X5458842Y-15345027D02*
X5439795Y-15335503D01*
X5439795Y-15335503D02*
X5430271Y-15325979D01*
X5639795Y-15345027D02*
X5639795Y-15211694D01*
X5639795Y-15230741D02*
X5649318Y-15221217D01*
X5649318Y-15221217D02*
X5668366Y-15211694D01*
X5668366Y-15211694D02*
X5696938Y-15211694D01*
X5696938Y-15211694D02*
X5715985Y-15221217D01*
X5715985Y-15221217D02*
X5725509Y-15240265D01*
X5725509Y-15240265D02*
X5725509Y-15345027D01*
X5725509Y-15240265D02*
X5735033Y-15221217D01*
X5735033Y-15221217D02*
X5754080Y-15211694D01*
X5754080Y-15211694D02*
X5782652Y-15211694D01*
X5782652Y-15211694D02*
X5801699Y-15221217D01*
X5801699Y-15221217D02*
X5811223Y-15240265D01*
X5811223Y-15240265D02*
X5811223Y-15345027D01*
X5906461Y-15345027D02*
X5906461Y-15211694D01*
X5906461Y-15230741D02*
X5915985Y-15221217D01*
X5915985Y-15221217D02*
X5935033Y-15211694D01*
X5935033Y-15211694D02*
X5963604Y-15211694D01*
X5963604Y-15211694D02*
X5982652Y-15221217D01*
X5982652Y-15221217D02*
X5992176Y-15240265D01*
X5992176Y-15240265D02*
X5992176Y-15345027D01*
X5992176Y-15240265D02*
X6001699Y-15221217D01*
X6001699Y-15221217D02*
X6020747Y-15211694D01*
X6020747Y-15211694D02*
X6049318Y-15211694D01*
X6049318Y-15211694D02*
X6068366Y-15221217D01*
X6068366Y-15221217D02*
X6077890Y-15240265D01*
X6077890Y-15240265D02*
X6077890Y-15345027D01*
X6468366Y-15135503D02*
X6296938Y-15392646D01*
X6725509Y-15145027D02*
X6744557Y-15145027D01*
X6744557Y-15145027D02*
X6763604Y-15154551D01*
X6763604Y-15154551D02*
X6773128Y-15164075D01*
X6773128Y-15164075D02*
X6782652Y-15183122D01*
X6782652Y-15183122D02*
X6792176Y-15221217D01*
X6792176Y-15221217D02*
X6792176Y-15268837D01*
X6792176Y-15268837D02*
X6782652Y-15306932D01*
X6782652Y-15306932D02*
X6773128Y-15325979D01*
X6773128Y-15325979D02*
X6763604Y-15335503D01*
X6763604Y-15335503D02*
X6744557Y-15345027D01*
X6744557Y-15345027D02*
X6725509Y-15345027D01*
X6725509Y-15345027D02*
X6706461Y-15335503D01*
X6706461Y-15335503D02*
X6696938Y-15325979D01*
X6696938Y-15325979D02*
X6687414Y-15306932D01*
X6687414Y-15306932D02*
X6677890Y-15268837D01*
X6677890Y-15268837D02*
X6677890Y-15221217D01*
X6677890Y-15221217D02*
X6687414Y-15183122D01*
X6687414Y-15183122D02*
X6696938Y-15164075D01*
X6696938Y-15164075D02*
X6706461Y-15154551D01*
X6706461Y-15154551D02*
X6725509Y-15145027D01*
X6877890Y-15325979D02*
X6887414Y-15335503D01*
X6887414Y-15335503D02*
X6877890Y-15345027D01*
X6877890Y-15345027D02*
X6868366Y-15335503D01*
X6868366Y-15335503D02*
X6877890Y-15325979D01*
X6877890Y-15325979D02*
X6877890Y-15345027D01*
X7011223Y-15145027D02*
X7030271Y-15145027D01*
X7030271Y-15145027D02*
X7049319Y-15154551D01*
X7049319Y-15154551D02*
X7058842Y-15164075D01*
X7058842Y-15164075D02*
X7068366Y-15183122D01*
X7068366Y-15183122D02*
X7077890Y-15221217D01*
X7077890Y-15221217D02*
X7077890Y-15268837D01*
X7077890Y-15268837D02*
X7068366Y-15306932D01*
X7068366Y-15306932D02*
X7058842Y-15325979D01*
X7058842Y-15325979D02*
X7049319Y-15335503D01*
X7049319Y-15335503D02*
X7030271Y-15345027D01*
X7030271Y-15345027D02*
X7011223Y-15345027D01*
X7011223Y-15345027D02*
X6992176Y-15335503D01*
X6992176Y-15335503D02*
X6982652Y-15325979D01*
X6982652Y-15325979D02*
X6973128Y-15306932D01*
X6973128Y-15306932D02*
X6963604Y-15268837D01*
X6963604Y-15268837D02*
X6963604Y-15221217D01*
X6963604Y-15221217D02*
X6973128Y-15183122D01*
X6973128Y-15183122D02*
X6982652Y-15164075D01*
X6982652Y-15164075D02*
X6992176Y-15154551D01*
X6992176Y-15154551D02*
X7011223Y-15145027D01*
X7144557Y-15145027D02*
X7268366Y-15145027D01*
X7268366Y-15145027D02*
X7201700Y-15221217D01*
X7201700Y-15221217D02*
X7230271Y-15221217D01*
X7230271Y-15221217D02*
X7249319Y-15230741D01*
X7249319Y-15230741D02*
X7258842Y-15240265D01*
X7258842Y-15240265D02*
X7268366Y-15259313D01*
X7268366Y-15259313D02*
X7268366Y-15306932D01*
X7268366Y-15306932D02*
X7258842Y-15325979D01*
X7258842Y-15325979D02*
X7249319Y-15335503D01*
X7249319Y-15335503D02*
X7230271Y-15345027D01*
X7230271Y-15345027D02*
X7173128Y-15345027D01*
X7173128Y-15345027D02*
X7154081Y-15335503D01*
X7154081Y-15335503D02*
X7144557Y-15325979D01*
X7344557Y-15164075D02*
X7354081Y-15154551D01*
X7354081Y-15154551D02*
X7373128Y-15145027D01*
X7373128Y-15145027D02*
X7420747Y-15145027D01*
X7420747Y-15145027D02*
X7439795Y-15154551D01*
X7439795Y-15154551D02*
X7449319Y-15164075D01*
X7449319Y-15164075D02*
X7458842Y-15183122D01*
X7458842Y-15183122D02*
X7458842Y-15202170D01*
X7458842Y-15202170D02*
X7449319Y-15230741D01*
X7449319Y-15230741D02*
X7335033Y-15345027D01*
X7335033Y-15345027D02*
X7458842Y-15345027D01*
X7582652Y-15145027D02*
X7601700Y-15145027D01*
X7601700Y-15145027D02*
X7620747Y-15154551D01*
X7620747Y-15154551D02*
X7630271Y-15164075D01*
X7630271Y-15164075D02*
X7639795Y-15183122D01*
X7639795Y-15183122D02*
X7649319Y-15221217D01*
X7649319Y-15221217D02*
X7649319Y-15268837D01*
X7649319Y-15268837D02*
X7639795Y-15306932D01*
X7639795Y-15306932D02*
X7630271Y-15325979D01*
X7630271Y-15325979D02*
X7620747Y-15335503D01*
X7620747Y-15335503D02*
X7601700Y-15345027D01*
X7601700Y-15345027D02*
X7582652Y-15345027D01*
X7582652Y-15345027D02*
X7563604Y-15335503D01*
X7563604Y-15335503D02*
X7554081Y-15325979D01*
X7554081Y-15325979D02*
X7544557Y-15306932D01*
X7544557Y-15306932D02*
X7535033Y-15268837D01*
X7535033Y-15268837D02*
X7535033Y-15221217D01*
X7535033Y-15221217D02*
X7544557Y-15183122D01*
X7544557Y-15183122D02*
X7554081Y-15164075D01*
X7554081Y-15164075D02*
X7563604Y-15154551D01*
X7563604Y-15154551D02*
X7582652Y-15145027D01*
X7725509Y-15145027D02*
X7725509Y-15183122D01*
X7801700Y-15145027D02*
X7801700Y-15183122D01*
X8096938Y-15421217D02*
X8087414Y-15411694D01*
X8087414Y-15411694D02*
X8068366Y-15383122D01*
X8068366Y-15383122D02*
X8058843Y-15364075D01*
X8058843Y-15364075D02*
X8049319Y-15335503D01*
X8049319Y-15335503D02*
X8039795Y-15287884D01*
X8039795Y-15287884D02*
X8039795Y-15249789D01*
X8039795Y-15249789D02*
X8049319Y-15202170D01*
X8049319Y-15202170D02*
X8058843Y-15173598D01*
X8058843Y-15173598D02*
X8068366Y-15154551D01*
X8068366Y-15154551D02*
X8087414Y-15125979D01*
X8087414Y-15125979D02*
X8096938Y-15116456D01*
X8201700Y-15230741D02*
X8182652Y-15221217D01*
X8182652Y-15221217D02*
X8173128Y-15211694D01*
X8173128Y-15211694D02*
X8163604Y-15192646D01*
X8163604Y-15192646D02*
X8163604Y-15183122D01*
X8163604Y-15183122D02*
X8173128Y-15164075D01*
X8173128Y-15164075D02*
X8182652Y-15154551D01*
X8182652Y-15154551D02*
X8201700Y-15145027D01*
X8201700Y-15145027D02*
X8239795Y-15145027D01*
X8239795Y-15145027D02*
X8258843Y-15154551D01*
X8258843Y-15154551D02*
X8268366Y-15164075D01*
X8268366Y-15164075D02*
X8277890Y-15183122D01*
X8277890Y-15183122D02*
X8277890Y-15192646D01*
X8277890Y-15192646D02*
X8268366Y-15211694D01*
X8268366Y-15211694D02*
X8258843Y-15221217D01*
X8258843Y-15221217D02*
X8239795Y-15230741D01*
X8239795Y-15230741D02*
X8201700Y-15230741D01*
X8201700Y-15230741D02*
X8182652Y-15240265D01*
X8182652Y-15240265D02*
X8173128Y-15249789D01*
X8173128Y-15249789D02*
X8163604Y-15268837D01*
X8163604Y-15268837D02*
X8163604Y-15306932D01*
X8163604Y-15306932D02*
X8173128Y-15325979D01*
X8173128Y-15325979D02*
X8182652Y-15335503D01*
X8182652Y-15335503D02*
X8201700Y-15345027D01*
X8201700Y-15345027D02*
X8239795Y-15345027D01*
X8239795Y-15345027D02*
X8258843Y-15335503D01*
X8258843Y-15335503D02*
X8268366Y-15325979D01*
X8268366Y-15325979D02*
X8277890Y-15306932D01*
X8277890Y-15306932D02*
X8277890Y-15268837D01*
X8277890Y-15268837D02*
X8268366Y-15249789D01*
X8268366Y-15249789D02*
X8258843Y-15240265D01*
X8258843Y-15240265D02*
X8239795Y-15230741D01*
X8449319Y-15145027D02*
X8411224Y-15145027D01*
X8411224Y-15145027D02*
X8392176Y-15154551D01*
X8392176Y-15154551D02*
X8382652Y-15164075D01*
X8382652Y-15164075D02*
X8363604Y-15192646D01*
X8363604Y-15192646D02*
X8354081Y-15230741D01*
X8354081Y-15230741D02*
X8354081Y-15306932D01*
X8354081Y-15306932D02*
X8363604Y-15325979D01*
X8363604Y-15325979D02*
X8373128Y-15335503D01*
X8373128Y-15335503D02*
X8392176Y-15345027D01*
X8392176Y-15345027D02*
X8430271Y-15345027D01*
X8430271Y-15345027D02*
X8449319Y-15335503D01*
X8449319Y-15335503D02*
X8458843Y-15325979D01*
X8458843Y-15325979D02*
X8468366Y-15306932D01*
X8468366Y-15306932D02*
X8468366Y-15259313D01*
X8468366Y-15259313D02*
X8458843Y-15240265D01*
X8458843Y-15240265D02*
X8449319Y-15230741D01*
X8449319Y-15230741D02*
X8430271Y-15221217D01*
X8430271Y-15221217D02*
X8392176Y-15221217D01*
X8392176Y-15221217D02*
X8373128Y-15230741D01*
X8373128Y-15230741D02*
X8363604Y-15240265D01*
X8363604Y-15240265D02*
X8354081Y-15259313D01*
X8706462Y-15345027D02*
X8706462Y-15145027D01*
X8792176Y-15345027D02*
X8792176Y-15240265D01*
X8792176Y-15240265D02*
X8782652Y-15221217D01*
X8782652Y-15221217D02*
X8763605Y-15211694D01*
X8763605Y-15211694D02*
X8735033Y-15211694D01*
X8735033Y-15211694D02*
X8715986Y-15221217D01*
X8715986Y-15221217D02*
X8706462Y-15230741D01*
X8915986Y-15345027D02*
X8896938Y-15335503D01*
X8896938Y-15335503D02*
X8887414Y-15325979D01*
X8887414Y-15325979D02*
X8877890Y-15306932D01*
X8877890Y-15306932D02*
X8877890Y-15249789D01*
X8877890Y-15249789D02*
X8887414Y-15230741D01*
X8887414Y-15230741D02*
X8896938Y-15221217D01*
X8896938Y-15221217D02*
X8915986Y-15211694D01*
X8915986Y-15211694D02*
X8944557Y-15211694D01*
X8944557Y-15211694D02*
X8963605Y-15221217D01*
X8963605Y-15221217D02*
X8973128Y-15230741D01*
X8973128Y-15230741D02*
X8982652Y-15249789D01*
X8982652Y-15249789D02*
X8982652Y-15306932D01*
X8982652Y-15306932D02*
X8973128Y-15325979D01*
X8973128Y-15325979D02*
X8963605Y-15335503D01*
X8963605Y-15335503D02*
X8944557Y-15345027D01*
X8944557Y-15345027D02*
X8915986Y-15345027D01*
X9096938Y-15345027D02*
X9077890Y-15335503D01*
X9077890Y-15335503D02*
X9068367Y-15316456D01*
X9068367Y-15316456D02*
X9068367Y-15145027D01*
X9249319Y-15335503D02*
X9230271Y-15345027D01*
X9230271Y-15345027D02*
X9192176Y-15345027D01*
X9192176Y-15345027D02*
X9173128Y-15335503D01*
X9173128Y-15335503D02*
X9163605Y-15316456D01*
X9163605Y-15316456D02*
X9163605Y-15240265D01*
X9163605Y-15240265D02*
X9173128Y-15221217D01*
X9173128Y-15221217D02*
X9192176Y-15211694D01*
X9192176Y-15211694D02*
X9230271Y-15211694D01*
X9230271Y-15211694D02*
X9249319Y-15221217D01*
X9249319Y-15221217D02*
X9258843Y-15240265D01*
X9258843Y-15240265D02*
X9258843Y-15259313D01*
X9258843Y-15259313D02*
X9163605Y-15278360D01*
X9335033Y-15335503D02*
X9354081Y-15345027D01*
X9354081Y-15345027D02*
X9392176Y-15345027D01*
X9392176Y-15345027D02*
X9411224Y-15335503D01*
X9411224Y-15335503D02*
X9420748Y-15316456D01*
X9420748Y-15316456D02*
X9420748Y-15306932D01*
X9420748Y-15306932D02*
X9411224Y-15287884D01*
X9411224Y-15287884D02*
X9392176Y-15278360D01*
X9392176Y-15278360D02*
X9363605Y-15278360D01*
X9363605Y-15278360D02*
X9344557Y-15268837D01*
X9344557Y-15268837D02*
X9335033Y-15249789D01*
X9335033Y-15249789D02*
X9335033Y-15240265D01*
X9335033Y-15240265D02*
X9344557Y-15221217D01*
X9344557Y-15221217D02*
X9363605Y-15211694D01*
X9363605Y-15211694D02*
X9392176Y-15211694D01*
X9392176Y-15211694D02*
X9411224Y-15221217D01*
X9487414Y-15421217D02*
X9496938Y-15411694D01*
X9496938Y-15411694D02*
X9515986Y-15383122D01*
X9515986Y-15383122D02*
X9525509Y-15364075D01*
X9525509Y-15364075D02*
X9535033Y-15335503D01*
X9535033Y-15335503D02*
X9544557Y-15287884D01*
X9544557Y-15287884D02*
X9544557Y-15249789D01*
X9544557Y-15249789D02*
X9535033Y-15202170D01*
X9535033Y-15202170D02*
X9525509Y-15173598D01*
X9525509Y-15173598D02*
X9515986Y-15154551D01*
X9515986Y-15154551D02*
X9496938Y-15125979D01*
X9496938Y-15125979D02*
X9487414Y-15116456D01*
D12*
X4477425Y-15473093D02*
X4477425Y-15561993D01*
X4432975Y-15517543D02*
X4521875Y-15517543D01*
D11*
X4820747Y-15409027D02*
X4839795Y-15409027D01*
X4839795Y-15409027D02*
X4858842Y-15418551D01*
X4858842Y-15418551D02*
X4868366Y-15428075D01*
X4868366Y-15428075D02*
X4877890Y-15447122D01*
X4877890Y-15447122D02*
X4887414Y-15485217D01*
X4887414Y-15485217D02*
X4887414Y-15532837D01*
X4887414Y-15532837D02*
X4877890Y-15570932D01*
X4877890Y-15570932D02*
X4868366Y-15589979D01*
X4868366Y-15589979D02*
X4858842Y-15599503D01*
X4858842Y-15599503D02*
X4839795Y-15609027D01*
X4839795Y-15609027D02*
X4820747Y-15609027D01*
X4820747Y-15609027D02*
X4801699Y-15599503D01*
X4801699Y-15599503D02*
X4792176Y-15589979D01*
X4792176Y-15589979D02*
X4782652Y-15570932D01*
X4782652Y-15570932D02*
X4773128Y-15532837D01*
X4773128Y-15532837D02*
X4773128Y-15485217D01*
X4773128Y-15485217D02*
X4782652Y-15447122D01*
X4782652Y-15447122D02*
X4792176Y-15428075D01*
X4792176Y-15428075D02*
X4801699Y-15418551D01*
X4801699Y-15418551D02*
X4820747Y-15409027D01*
X4973128Y-15589979D02*
X4982652Y-15599503D01*
X4982652Y-15599503D02*
X4973128Y-15609027D01*
X4973128Y-15609027D02*
X4963604Y-15599503D01*
X4963604Y-15599503D02*
X4973128Y-15589979D01*
X4973128Y-15589979D02*
X4973128Y-15609027D01*
X5096938Y-15494741D02*
X5077890Y-15485217D01*
X5077890Y-15485217D02*
X5068366Y-15475694D01*
X5068366Y-15475694D02*
X5058842Y-15456646D01*
X5058842Y-15456646D02*
X5058842Y-15447122D01*
X5058842Y-15447122D02*
X5068366Y-15428075D01*
X5068366Y-15428075D02*
X5077890Y-15418551D01*
X5077890Y-15418551D02*
X5096938Y-15409027D01*
X5096938Y-15409027D02*
X5135033Y-15409027D01*
X5135033Y-15409027D02*
X5154080Y-15418551D01*
X5154080Y-15418551D02*
X5163604Y-15428075D01*
X5163604Y-15428075D02*
X5173128Y-15447122D01*
X5173128Y-15447122D02*
X5173128Y-15456646D01*
X5173128Y-15456646D02*
X5163604Y-15475694D01*
X5163604Y-15475694D02*
X5154080Y-15485217D01*
X5154080Y-15485217D02*
X5135033Y-15494741D01*
X5135033Y-15494741D02*
X5096938Y-15494741D01*
X5096938Y-15494741D02*
X5077890Y-15504265D01*
X5077890Y-15504265D02*
X5068366Y-15513789D01*
X5068366Y-15513789D02*
X5058842Y-15532837D01*
X5058842Y-15532837D02*
X5058842Y-15570932D01*
X5058842Y-15570932D02*
X5068366Y-15589979D01*
X5068366Y-15589979D02*
X5077890Y-15599503D01*
X5077890Y-15599503D02*
X5096938Y-15609027D01*
X5096938Y-15609027D02*
X5135033Y-15609027D01*
X5135033Y-15609027D02*
X5154080Y-15599503D01*
X5154080Y-15599503D02*
X5163604Y-15589979D01*
X5163604Y-15589979D02*
X5173128Y-15570932D01*
X5173128Y-15570932D02*
X5173128Y-15532837D01*
X5173128Y-15532837D02*
X5163604Y-15513789D01*
X5163604Y-15513789D02*
X5154080Y-15504265D01*
X5154080Y-15504265D02*
X5135033Y-15494741D01*
X5287414Y-15494741D02*
X5268366Y-15485217D01*
X5268366Y-15485217D02*
X5258842Y-15475694D01*
X5258842Y-15475694D02*
X5249319Y-15456646D01*
X5249319Y-15456646D02*
X5249319Y-15447122D01*
X5249319Y-15447122D02*
X5258842Y-15428075D01*
X5258842Y-15428075D02*
X5268366Y-15418551D01*
X5268366Y-15418551D02*
X5287414Y-15409027D01*
X5287414Y-15409027D02*
X5325509Y-15409027D01*
X5325509Y-15409027D02*
X5344557Y-15418551D01*
X5344557Y-15418551D02*
X5354080Y-15428075D01*
X5354080Y-15428075D02*
X5363604Y-15447122D01*
X5363604Y-15447122D02*
X5363604Y-15456646D01*
X5363604Y-15456646D02*
X5354080Y-15475694D01*
X5354080Y-15475694D02*
X5344557Y-15485217D01*
X5344557Y-15485217D02*
X5325509Y-15494741D01*
X5325509Y-15494741D02*
X5287414Y-15494741D01*
X5287414Y-15494741D02*
X5268366Y-15504265D01*
X5268366Y-15504265D02*
X5258842Y-15513789D01*
X5258842Y-15513789D02*
X5249319Y-15532837D01*
X5249319Y-15532837D02*
X5249319Y-15570932D01*
X5249319Y-15570932D02*
X5258842Y-15589979D01*
X5258842Y-15589979D02*
X5268366Y-15599503D01*
X5268366Y-15599503D02*
X5287414Y-15609027D01*
X5287414Y-15609027D02*
X5325509Y-15609027D01*
X5325509Y-15609027D02*
X5344557Y-15599503D01*
X5344557Y-15599503D02*
X5354080Y-15589979D01*
X5354080Y-15589979D02*
X5363604Y-15570932D01*
X5363604Y-15570932D02*
X5363604Y-15532837D01*
X5363604Y-15532837D02*
X5354080Y-15513789D01*
X5354080Y-15513789D02*
X5344557Y-15504265D01*
X5344557Y-15504265D02*
X5325509Y-15494741D01*
X5458842Y-15609027D02*
X5496938Y-15609027D01*
X5496938Y-15609027D02*
X5515985Y-15599503D01*
X5515985Y-15599503D02*
X5525509Y-15589979D01*
X5525509Y-15589979D02*
X5544557Y-15561408D01*
X5544557Y-15561408D02*
X5554080Y-15523313D01*
X5554080Y-15523313D02*
X5554080Y-15447122D01*
X5554080Y-15447122D02*
X5544557Y-15428075D01*
X5544557Y-15428075D02*
X5535033Y-15418551D01*
X5535033Y-15418551D02*
X5515985Y-15409027D01*
X5515985Y-15409027D02*
X5477890Y-15409027D01*
X5477890Y-15409027D02*
X5458842Y-15418551D01*
X5458842Y-15418551D02*
X5449319Y-15428075D01*
X5449319Y-15428075D02*
X5439795Y-15447122D01*
X5439795Y-15447122D02*
X5439795Y-15494741D01*
X5439795Y-15494741D02*
X5449319Y-15513789D01*
X5449319Y-15513789D02*
X5458842Y-15523313D01*
X5458842Y-15523313D02*
X5477890Y-15532837D01*
X5477890Y-15532837D02*
X5515985Y-15532837D01*
X5515985Y-15532837D02*
X5535033Y-15523313D01*
X5535033Y-15523313D02*
X5544557Y-15513789D01*
X5544557Y-15513789D02*
X5554080Y-15494741D01*
X5639795Y-15609027D02*
X5639795Y-15475694D01*
X5639795Y-15494741D02*
X5649318Y-15485217D01*
X5649318Y-15485217D02*
X5668366Y-15475694D01*
X5668366Y-15475694D02*
X5696938Y-15475694D01*
X5696938Y-15475694D02*
X5715985Y-15485217D01*
X5715985Y-15485217D02*
X5725509Y-15504265D01*
X5725509Y-15504265D02*
X5725509Y-15609027D01*
X5725509Y-15504265D02*
X5735033Y-15485217D01*
X5735033Y-15485217D02*
X5754080Y-15475694D01*
X5754080Y-15475694D02*
X5782652Y-15475694D01*
X5782652Y-15475694D02*
X5801699Y-15485217D01*
X5801699Y-15485217D02*
X5811223Y-15504265D01*
X5811223Y-15504265D02*
X5811223Y-15609027D01*
X5906461Y-15609027D02*
X5906461Y-15475694D01*
X5906461Y-15494741D02*
X5915985Y-15485217D01*
X5915985Y-15485217D02*
X5935033Y-15475694D01*
X5935033Y-15475694D02*
X5963604Y-15475694D01*
X5963604Y-15475694D02*
X5982652Y-15485217D01*
X5982652Y-15485217D02*
X5992176Y-15504265D01*
X5992176Y-15504265D02*
X5992176Y-15609027D01*
X5992176Y-15504265D02*
X6001699Y-15485217D01*
X6001699Y-15485217D02*
X6020747Y-15475694D01*
X6020747Y-15475694D02*
X6049318Y-15475694D01*
X6049318Y-15475694D02*
X6068366Y-15485217D01*
X6068366Y-15485217D02*
X6077890Y-15504265D01*
X6077890Y-15504265D02*
X6077890Y-15609027D01*
X6468366Y-15399503D02*
X6296938Y-15656646D01*
X6725509Y-15409027D02*
X6744557Y-15409027D01*
X6744557Y-15409027D02*
X6763604Y-15418551D01*
X6763604Y-15418551D02*
X6773128Y-15428075D01*
X6773128Y-15428075D02*
X6782652Y-15447122D01*
X6782652Y-15447122D02*
X6792176Y-15485217D01*
X6792176Y-15485217D02*
X6792176Y-15532837D01*
X6792176Y-15532837D02*
X6782652Y-15570932D01*
X6782652Y-15570932D02*
X6773128Y-15589979D01*
X6773128Y-15589979D02*
X6763604Y-15599503D01*
X6763604Y-15599503D02*
X6744557Y-15609027D01*
X6744557Y-15609027D02*
X6725509Y-15609027D01*
X6725509Y-15609027D02*
X6706461Y-15599503D01*
X6706461Y-15599503D02*
X6696938Y-15589979D01*
X6696938Y-15589979D02*
X6687414Y-15570932D01*
X6687414Y-15570932D02*
X6677890Y-15532837D01*
X6677890Y-15532837D02*
X6677890Y-15485217D01*
X6677890Y-15485217D02*
X6687414Y-15447122D01*
X6687414Y-15447122D02*
X6696938Y-15428075D01*
X6696938Y-15428075D02*
X6706461Y-15418551D01*
X6706461Y-15418551D02*
X6725509Y-15409027D01*
X6877890Y-15589979D02*
X6887414Y-15599503D01*
X6887414Y-15599503D02*
X6877890Y-15609027D01*
X6877890Y-15609027D02*
X6868366Y-15599503D01*
X6868366Y-15599503D02*
X6877890Y-15589979D01*
X6877890Y-15589979D02*
X6877890Y-15609027D01*
X7011223Y-15409027D02*
X7030271Y-15409027D01*
X7030271Y-15409027D02*
X7049319Y-15418551D01*
X7049319Y-15418551D02*
X7058842Y-15428075D01*
X7058842Y-15428075D02*
X7068366Y-15447122D01*
X7068366Y-15447122D02*
X7077890Y-15485217D01*
X7077890Y-15485217D02*
X7077890Y-15532837D01*
X7077890Y-15532837D02*
X7068366Y-15570932D01*
X7068366Y-15570932D02*
X7058842Y-15589979D01*
X7058842Y-15589979D02*
X7049319Y-15599503D01*
X7049319Y-15599503D02*
X7030271Y-15609027D01*
X7030271Y-15609027D02*
X7011223Y-15609027D01*
X7011223Y-15609027D02*
X6992176Y-15599503D01*
X6992176Y-15599503D02*
X6982652Y-15589979D01*
X6982652Y-15589979D02*
X6973128Y-15570932D01*
X6973128Y-15570932D02*
X6963604Y-15532837D01*
X6963604Y-15532837D02*
X6963604Y-15485217D01*
X6963604Y-15485217D02*
X6973128Y-15447122D01*
X6973128Y-15447122D02*
X6982652Y-15428075D01*
X6982652Y-15428075D02*
X6992176Y-15418551D01*
X6992176Y-15418551D02*
X7011223Y-15409027D01*
X7144557Y-15409027D02*
X7268366Y-15409027D01*
X7268366Y-15409027D02*
X7201700Y-15485217D01*
X7201700Y-15485217D02*
X7230271Y-15485217D01*
X7230271Y-15485217D02*
X7249319Y-15494741D01*
X7249319Y-15494741D02*
X7258842Y-15504265D01*
X7258842Y-15504265D02*
X7268366Y-15523313D01*
X7268366Y-15523313D02*
X7268366Y-15570932D01*
X7268366Y-15570932D02*
X7258842Y-15589979D01*
X7258842Y-15589979D02*
X7249319Y-15599503D01*
X7249319Y-15599503D02*
X7230271Y-15609027D01*
X7230271Y-15609027D02*
X7173128Y-15609027D01*
X7173128Y-15609027D02*
X7154081Y-15599503D01*
X7154081Y-15599503D02*
X7144557Y-15589979D01*
X7449319Y-15409027D02*
X7354081Y-15409027D01*
X7354081Y-15409027D02*
X7344557Y-15504265D01*
X7344557Y-15504265D02*
X7354081Y-15494741D01*
X7354081Y-15494741D02*
X7373128Y-15485217D01*
X7373128Y-15485217D02*
X7420747Y-15485217D01*
X7420747Y-15485217D02*
X7439795Y-15494741D01*
X7439795Y-15494741D02*
X7449319Y-15504265D01*
X7449319Y-15504265D02*
X7458842Y-15523313D01*
X7458842Y-15523313D02*
X7458842Y-15570932D01*
X7458842Y-15570932D02*
X7449319Y-15589979D01*
X7449319Y-15589979D02*
X7439795Y-15599503D01*
X7439795Y-15599503D02*
X7420747Y-15609027D01*
X7420747Y-15609027D02*
X7373128Y-15609027D01*
X7373128Y-15609027D02*
X7354081Y-15599503D01*
X7354081Y-15599503D02*
X7344557Y-15589979D01*
X7582652Y-15409027D02*
X7601700Y-15409027D01*
X7601700Y-15409027D02*
X7620747Y-15418551D01*
X7620747Y-15418551D02*
X7630271Y-15428075D01*
X7630271Y-15428075D02*
X7639795Y-15447122D01*
X7639795Y-15447122D02*
X7649319Y-15485217D01*
X7649319Y-15485217D02*
X7649319Y-15532837D01*
X7649319Y-15532837D02*
X7639795Y-15570932D01*
X7639795Y-15570932D02*
X7630271Y-15589979D01*
X7630271Y-15589979D02*
X7620747Y-15599503D01*
X7620747Y-15599503D02*
X7601700Y-15609027D01*
X7601700Y-15609027D02*
X7582652Y-15609027D01*
X7582652Y-15609027D02*
X7563604Y-15599503D01*
X7563604Y-15599503D02*
X7554081Y-15589979D01*
X7554081Y-15589979D02*
X7544557Y-15570932D01*
X7544557Y-15570932D02*
X7535033Y-15532837D01*
X7535033Y-15532837D02*
X7535033Y-15485217D01*
X7535033Y-15485217D02*
X7544557Y-15447122D01*
X7544557Y-15447122D02*
X7554081Y-15428075D01*
X7554081Y-15428075D02*
X7563604Y-15418551D01*
X7563604Y-15418551D02*
X7582652Y-15409027D01*
X7725509Y-15409027D02*
X7725509Y-15447122D01*
X7801700Y-15409027D02*
X7801700Y-15447122D01*
X8096938Y-15685217D02*
X8087414Y-15675694D01*
X8087414Y-15675694D02*
X8068366Y-15647122D01*
X8068366Y-15647122D02*
X8058843Y-15628075D01*
X8058843Y-15628075D02*
X8049319Y-15599503D01*
X8049319Y-15599503D02*
X8039795Y-15551884D01*
X8039795Y-15551884D02*
X8039795Y-15513789D01*
X8039795Y-15513789D02*
X8049319Y-15466170D01*
X8049319Y-15466170D02*
X8058843Y-15437598D01*
X8058843Y-15437598D02*
X8068366Y-15418551D01*
X8068366Y-15418551D02*
X8087414Y-15389979D01*
X8087414Y-15389979D02*
X8096938Y-15380456D01*
X8277890Y-15609027D02*
X8163604Y-15609027D01*
X8220747Y-15609027D02*
X8220747Y-15409027D01*
X8220747Y-15409027D02*
X8201700Y-15437598D01*
X8201700Y-15437598D02*
X8182652Y-15456646D01*
X8182652Y-15456646D02*
X8163604Y-15466170D01*
X8449319Y-15475694D02*
X8449319Y-15609027D01*
X8401700Y-15399503D02*
X8354081Y-15542360D01*
X8354081Y-15542360D02*
X8477890Y-15542360D01*
X8706462Y-15609027D02*
X8706462Y-15409027D01*
X8792176Y-15609027D02*
X8792176Y-15504265D01*
X8792176Y-15504265D02*
X8782652Y-15485217D01*
X8782652Y-15485217D02*
X8763605Y-15475694D01*
X8763605Y-15475694D02*
X8735033Y-15475694D01*
X8735033Y-15475694D02*
X8715986Y-15485217D01*
X8715986Y-15485217D02*
X8706462Y-15494741D01*
X8915986Y-15609027D02*
X8896938Y-15599503D01*
X8896938Y-15599503D02*
X8887414Y-15589979D01*
X8887414Y-15589979D02*
X8877890Y-15570932D01*
X8877890Y-15570932D02*
X8877890Y-15513789D01*
X8877890Y-15513789D02*
X8887414Y-15494741D01*
X8887414Y-15494741D02*
X8896938Y-15485217D01*
X8896938Y-15485217D02*
X8915986Y-15475694D01*
X8915986Y-15475694D02*
X8944557Y-15475694D01*
X8944557Y-15475694D02*
X8963605Y-15485217D01*
X8963605Y-15485217D02*
X8973128Y-15494741D01*
X8973128Y-15494741D02*
X8982652Y-15513789D01*
X8982652Y-15513789D02*
X8982652Y-15570932D01*
X8982652Y-15570932D02*
X8973128Y-15589979D01*
X8973128Y-15589979D02*
X8963605Y-15599503D01*
X8963605Y-15599503D02*
X8944557Y-15609027D01*
X8944557Y-15609027D02*
X8915986Y-15609027D01*
X9096938Y-15609027D02*
X9077890Y-15599503D01*
X9077890Y-15599503D02*
X9068367Y-15580456D01*
X9068367Y-15580456D02*
X9068367Y-15409027D01*
X9249319Y-15599503D02*
X9230271Y-15609027D01*
X9230271Y-15609027D02*
X9192176Y-15609027D01*
X9192176Y-15609027D02*
X9173128Y-15599503D01*
X9173128Y-15599503D02*
X9163605Y-15580456D01*
X9163605Y-15580456D02*
X9163605Y-15504265D01*
X9163605Y-15504265D02*
X9173128Y-15485217D01*
X9173128Y-15485217D02*
X9192176Y-15475694D01*
X9192176Y-15475694D02*
X9230271Y-15475694D01*
X9230271Y-15475694D02*
X9249319Y-15485217D01*
X9249319Y-15485217D02*
X9258843Y-15504265D01*
X9258843Y-15504265D02*
X9258843Y-15523313D01*
X9258843Y-15523313D02*
X9163605Y-15542360D01*
X9335033Y-15599503D02*
X9354081Y-15609027D01*
X9354081Y-15609027D02*
X9392176Y-15609027D01*
X9392176Y-15609027D02*
X9411224Y-15599503D01*
X9411224Y-15599503D02*
X9420748Y-15580456D01*
X9420748Y-15580456D02*
X9420748Y-15570932D01*
X9420748Y-15570932D02*
X9411224Y-15551884D01*
X9411224Y-15551884D02*
X9392176Y-15542360D01*
X9392176Y-15542360D02*
X9363605Y-15542360D01*
X9363605Y-15542360D02*
X9344557Y-15532837D01*
X9344557Y-15532837D02*
X9335033Y-15513789D01*
X9335033Y-15513789D02*
X9335033Y-15504265D01*
X9335033Y-15504265D02*
X9344557Y-15485217D01*
X9344557Y-15485217D02*
X9363605Y-15475694D01*
X9363605Y-15475694D02*
X9392176Y-15475694D01*
X9392176Y-15475694D02*
X9411224Y-15485217D01*
X9487414Y-15685217D02*
X9496938Y-15675694D01*
X9496938Y-15675694D02*
X9515986Y-15647122D01*
X9515986Y-15647122D02*
X9525509Y-15628075D01*
X9525509Y-15628075D02*
X9535033Y-15599503D01*
X9535033Y-15599503D02*
X9544557Y-15551884D01*
X9544557Y-15551884D02*
X9544557Y-15513789D01*
X9544557Y-15513789D02*
X9535033Y-15466170D01*
X9535033Y-15466170D02*
X9525509Y-15437598D01*
X9525509Y-15437598D02*
X9515986Y-15418551D01*
X9515986Y-15418551D02*
X9496938Y-15389979D01*
X9496938Y-15389979D02*
X9487414Y-15380456D01*
M02*
