%TF.GenerationSoftware,KiCad,Pcbnew,9.0.6*%
%TF.CreationDate,2025-12-17T14:31:33+09:00*%
%TF.ProjectId,Assemble_L,41737365-6d62-46c6-955f-4c2e6b696361,rev?*%
%TF.SameCoordinates,Original*%
%TF.FileFunction,Drillmap*%
%TF.FilePolarity,Positive*%
%FSLAX45Y45*%
G04 Gerber Fmt 4.5, Leading zero omitted, Abs format (unit mm)*
G04 Created by KiCad (PCBNEW 9.0.6) date 2025-12-17 14:31:33*
%MOMM*%
%LPD*%
G01*
G04 APERTURE LIST*
%ADD10C,0.050000*%
%ADD11C,0.200000*%
%ADD12C,0.150000*%
%ADD13C,0.100000*%
%ADD14C,0.300000*%
%ADD15C,0.510000*%
G04 APERTURE END LIST*
D10*
X4724379Y-14347043D02*
G75*
G02*
X4524377Y-14147043I1J200003D01*
G01*
X19883454Y-10596571D02*
X19883454Y-8891570D01*
X20359705Y-12063448D02*
G75*
G02*
X20159705Y-12263455I-200005J-2D01*
G01*
X20359705Y-12063448D02*
X20359705Y-10796571D01*
X19407204Y-8691570D02*
X19407204Y-6548443D01*
X18738297Y-6548443D02*
G75*
G02*
X18528297Y-6548443I-105000J0D01*
G01*
X18528297Y-6548443D02*
G75*
G02*
X18738297Y-6548443I105000J0D01*
G01*
X19407204Y-6548443D02*
X20159705Y-6548443D01*
X7427350Y-12501573D02*
G75*
G02*
X7217350Y-12501573I-105000J0D01*
G01*
X7217350Y-12501573D02*
G75*
G02*
X7427350Y-12501573I105000J0D01*
G01*
X20159705Y-4702973D02*
X4724375Y-4702973D01*
X20159705Y-4702973D02*
G75*
G02*
X20359697Y-4902973I-5J-199997D01*
G01*
X20359705Y-6348443D02*
X20359705Y-4902973D01*
X4524375Y-4902973D02*
G75*
G02*
X4724375Y-4702975I199995J3D01*
G01*
X12606573Y-5179223D02*
G75*
G02*
X12396573Y-5179223I-105000J0D01*
G01*
X12396573Y-5179223D02*
G75*
G02*
X12606573Y-5179223I105000J0D01*
G01*
X7427350Y-6548443D02*
G75*
G02*
X7217350Y-6548443I-105000J0D01*
G01*
X7217350Y-6548443D02*
G75*
G02*
X7427350Y-6548443I105000J0D01*
G01*
X20359705Y-6348443D02*
G75*
G02*
X20159705Y-6548445I-200005J3D01*
G01*
X4724379Y-14347043D02*
X19207204Y-14347043D01*
X12606573Y-12501573D02*
G75*
G02*
X12396573Y-12501573I-105000J0D01*
G01*
X12396573Y-12501573D02*
G75*
G02*
X12606573Y-12501573I105000J0D01*
G01*
X19683454Y-8691570D02*
G75*
G02*
X19883460Y-8891570I-4J-200010D01*
G01*
X20159705Y-10596571D02*
G75*
G02*
X20359709Y-10796571I-5J-200009D01*
G01*
X19683454Y-8691570D02*
X19407204Y-8691570D01*
X18738297Y-12501573D02*
G75*
G02*
X18528297Y-12501573I-105000J0D01*
G01*
X18528297Y-12501573D02*
G75*
G02*
X18738297Y-12501573I105000J0D01*
G01*
X20159705Y-10596571D02*
X19883454Y-10596571D01*
X19407204Y-14147043D02*
X19407204Y-12263448D01*
X4524375Y-4902973D02*
X4524379Y-14147043D01*
X19407204Y-12263448D02*
X20159705Y-12263448D01*
X19407204Y-14147043D02*
G75*
G02*
X19207204Y-14347044I-200004J3D01*
G01*
D11*
D12*
X8536250Y-6140000D02*
X8686250Y-6290000D01*
X8686250Y-6140000D02*
X8536250Y-6290000D01*
D13*
X8636250Y-6140000D02*
X8586250Y-6140000D01*
X8586250Y-6290000D02*
G75*
G02*
X8586250Y-6140000I0J75000D01*
G01*
X8586250Y-6290000D02*
X8636250Y-6290000D01*
X8636250Y-6290000D02*
G75*
G03*
X8636250Y-6140000I0J75000D01*
G01*
D12*
X8536250Y-13760000D02*
X8686250Y-13910000D01*
X8686250Y-13760000D02*
X8536250Y-13910000D01*
D13*
X8636250Y-13760000D02*
X8586250Y-13760000D01*
X8586250Y-13910000D02*
G75*
G02*
X8586250Y-13760000I0J75000D01*
G01*
X8586250Y-13910000D02*
X8636250Y-13910000D01*
X8636250Y-13910000D02*
G75*
G03*
X8636250Y-13760000I0J75000D01*
G01*
D12*
X9012500Y-8045000D02*
X9162500Y-8195000D01*
X9162500Y-8045000D02*
X9012500Y-8195000D01*
D13*
X9112500Y-8045000D02*
X9062500Y-8045000D01*
X9062500Y-8195000D02*
G75*
G02*
X9062500Y-8045000I0J75000D01*
G01*
X9062500Y-8195000D02*
X9112500Y-8195000D01*
X9112500Y-8195000D02*
G75*
G03*
X9112500Y-8045000I0J75000D01*
G01*
D12*
X9250625Y-9950000D02*
X9400625Y-10100000D01*
X9400625Y-9950000D02*
X9250625Y-10100000D01*
D13*
X9350625Y-9950000D02*
X9300625Y-9950000D01*
X9300625Y-10100000D02*
G75*
G02*
X9300625Y-9950000I0J75000D01*
G01*
X9300625Y-10100000D02*
X9350625Y-10100000D01*
X9350625Y-10100000D02*
G75*
G03*
X9350625Y-9950000I0J75000D01*
G01*
D12*
X9488750Y-11855000D02*
X9638750Y-12005000D01*
X9638750Y-11855000D02*
X9488750Y-12005000D01*
D13*
X9588750Y-11855000D02*
X9538750Y-11855000D01*
X9538750Y-12005000D02*
G75*
G02*
X9538750Y-11855000I0J75000D01*
G01*
X9538750Y-12005000D02*
X9588750Y-12005000D01*
X9588750Y-12005000D02*
G75*
G03*
X9588750Y-11855000I0J75000D01*
G01*
D12*
X10441250Y-6140000D02*
X10591250Y-6290000D01*
X10591250Y-6140000D02*
X10441250Y-6290000D01*
D13*
X10541250Y-6140000D02*
X10491250Y-6140000D01*
X10491250Y-6290000D02*
G75*
G02*
X10491250Y-6140000I0J75000D01*
G01*
X10491250Y-6290000D02*
X10541250Y-6290000D01*
X10541250Y-6290000D02*
G75*
G03*
X10541250Y-6140000I0J75000D01*
G01*
D12*
X10917500Y-13760000D02*
X11067500Y-13910000D01*
X11067500Y-13760000D02*
X10917500Y-13910000D01*
D13*
X11017500Y-13760000D02*
X10967500Y-13760000D01*
X10967500Y-13910000D02*
G75*
G02*
X10967500Y-13760000I0J75000D01*
G01*
X10967500Y-13910000D02*
X11017500Y-13910000D01*
X11017500Y-13910000D02*
G75*
G03*
X11017500Y-13760000I0J75000D01*
G01*
D12*
X11393750Y-8045000D02*
X11543750Y-8195000D01*
X11543750Y-8045000D02*
X11393750Y-8195000D01*
D13*
X11493750Y-8045000D02*
X11443750Y-8045000D01*
X11443750Y-8195000D02*
G75*
G02*
X11443750Y-8045000I0J75000D01*
G01*
X11443750Y-8195000D02*
X11493750Y-8195000D01*
X11493750Y-8195000D02*
G75*
G03*
X11493750Y-8045000I0J75000D01*
G01*
D12*
X11870000Y-9950000D02*
X12020000Y-10100000D01*
X12020000Y-9950000D02*
X11870000Y-10100000D01*
D13*
X11970000Y-9950000D02*
X11920000Y-9950000D01*
X11920000Y-10100000D02*
G75*
G02*
X11920000Y-9950000I0J75000D01*
G01*
X11920000Y-10100000D02*
X11970000Y-10100000D01*
X11970000Y-10100000D02*
G75*
G03*
X11970000Y-9950000I0J75000D01*
G01*
D12*
X12346250Y-6140000D02*
X12496250Y-6290000D01*
X12496250Y-6140000D02*
X12346250Y-6290000D01*
D13*
X12446250Y-6140000D02*
X12396250Y-6140000D01*
X12396250Y-6290000D02*
G75*
G02*
X12396250Y-6140000I0J75000D01*
G01*
X12396250Y-6290000D02*
X12446250Y-6290000D01*
X12446250Y-6290000D02*
G75*
G03*
X12446250Y-6140000I0J75000D01*
G01*
D12*
X12346250Y-11855000D02*
X12496250Y-12005000D01*
X12496250Y-11855000D02*
X12346250Y-12005000D01*
D13*
X12446250Y-11855000D02*
X12396250Y-11855000D01*
X12396250Y-12005000D02*
G75*
G02*
X12396250Y-11855000I0J75000D01*
G01*
X12396250Y-12005000D02*
X12446250Y-12005000D01*
X12446250Y-12005000D02*
G75*
G03*
X12446250Y-11855000I0J75000D01*
G01*
D12*
X12822500Y-13760000D02*
X12972500Y-13910000D01*
X12972500Y-13760000D02*
X12822500Y-13910000D01*
D13*
X12922500Y-13760000D02*
X12872500Y-13760000D01*
X12872500Y-13910000D02*
G75*
G02*
X12872500Y-13760000I0J75000D01*
G01*
X12872500Y-13910000D02*
X12922500Y-13910000D01*
X12922500Y-13910000D02*
G75*
G03*
X12922500Y-13760000I0J75000D01*
G01*
D12*
X13298750Y-8045000D02*
X13448750Y-8195000D01*
X13448750Y-8045000D02*
X13298750Y-8195000D01*
D13*
X13398750Y-8045000D02*
X13348750Y-8045000D01*
X13348750Y-8195000D02*
G75*
G02*
X13348750Y-8045000I0J75000D01*
G01*
X13348750Y-8195000D02*
X13398750Y-8195000D01*
X13398750Y-8195000D02*
G75*
G03*
X13398750Y-8045000I0J75000D01*
G01*
D12*
X13775000Y-9950000D02*
X13925000Y-10100000D01*
X13925000Y-9950000D02*
X13775000Y-10100000D01*
D13*
X13875000Y-9950000D02*
X13825000Y-9950000D01*
X13825000Y-10100000D02*
G75*
G02*
X13825000Y-9950000I0J75000D01*
G01*
X13825000Y-10100000D02*
X13875000Y-10100000D01*
X13875000Y-10100000D02*
G75*
G03*
X13875000Y-9950000I0J75000D01*
G01*
D12*
X14251250Y-6140000D02*
X14401250Y-6290000D01*
X14401250Y-6140000D02*
X14251250Y-6290000D01*
D13*
X14351250Y-6140000D02*
X14301250Y-6140000D01*
X14301250Y-6290000D02*
G75*
G02*
X14301250Y-6140000I0J75000D01*
G01*
X14301250Y-6290000D02*
X14351250Y-6290000D01*
X14351250Y-6290000D02*
G75*
G03*
X14351250Y-6140000I0J75000D01*
G01*
D12*
X14251250Y-11855000D02*
X14401250Y-12005000D01*
X14401250Y-11855000D02*
X14251250Y-12005000D01*
D13*
X14351250Y-11855000D02*
X14301250Y-11855000D01*
X14301250Y-12005000D02*
G75*
G02*
X14301250Y-11855000I0J75000D01*
G01*
X14301250Y-12005000D02*
X14351250Y-12005000D01*
X14351250Y-12005000D02*
G75*
G03*
X14351250Y-11855000I0J75000D01*
G01*
D12*
X14727500Y-13760000D02*
X14877500Y-13910000D01*
X14877500Y-13760000D02*
X14727500Y-13910000D01*
D13*
X14827500Y-13760000D02*
X14777500Y-13760000D01*
X14777500Y-13910000D02*
G75*
G02*
X14777500Y-13760000I0J75000D01*
G01*
X14777500Y-13910000D02*
X14827500Y-13910000D01*
X14827500Y-13910000D02*
G75*
G03*
X14827500Y-13760000I0J75000D01*
G01*
D12*
X15203750Y-8045000D02*
X15353750Y-8195000D01*
X15353750Y-8045000D02*
X15203750Y-8195000D01*
D13*
X15303750Y-8045000D02*
X15253750Y-8045000D01*
X15253750Y-8195000D02*
G75*
G02*
X15253750Y-8045000I0J75000D01*
G01*
X15253750Y-8195000D02*
X15303750Y-8195000D01*
X15303750Y-8195000D02*
G75*
G03*
X15303750Y-8045000I0J75000D01*
G01*
D12*
X15680000Y-9950000D02*
X15830000Y-10100000D01*
X15830000Y-9950000D02*
X15680000Y-10100000D01*
D13*
X15780000Y-9950000D02*
X15730000Y-9950000D01*
X15730000Y-10100000D02*
G75*
G02*
X15730000Y-9950000I0J75000D01*
G01*
X15730000Y-10100000D02*
X15780000Y-10100000D01*
X15780000Y-10100000D02*
G75*
G03*
X15780000Y-9950000I0J75000D01*
G01*
D12*
X16156250Y-6140000D02*
X16306250Y-6290000D01*
X16306250Y-6140000D02*
X16156250Y-6290000D01*
D13*
X16256250Y-6140000D02*
X16206250Y-6140000D01*
X16206250Y-6290000D02*
G75*
G02*
X16206250Y-6140000I0J75000D01*
G01*
X16206250Y-6290000D02*
X16256250Y-6290000D01*
X16256250Y-6290000D02*
G75*
G03*
X16256250Y-6140000I0J75000D01*
G01*
D12*
X16156250Y-11855000D02*
X16306250Y-12005000D01*
X16306250Y-11855000D02*
X16156250Y-12005000D01*
D13*
X16256250Y-11855000D02*
X16206250Y-11855000D01*
X16206250Y-12005000D02*
G75*
G02*
X16206250Y-11855000I0J75000D01*
G01*
X16206250Y-12005000D02*
X16256250Y-12005000D01*
X16256250Y-12005000D02*
G75*
G03*
X16256250Y-11855000I0J75000D01*
G01*
D12*
X16632500Y-13760000D02*
X16782500Y-13910000D01*
X16782500Y-13760000D02*
X16632500Y-13910000D01*
D13*
X16732500Y-13760000D02*
X16682500Y-13760000D01*
X16682500Y-13910000D02*
G75*
G02*
X16682500Y-13760000I0J75000D01*
G01*
X16682500Y-13910000D02*
X16732500Y-13910000D01*
X16732500Y-13910000D02*
G75*
G03*
X16732500Y-13760000I0J75000D01*
G01*
D12*
X17108750Y-8045000D02*
X17258750Y-8195000D01*
X17258750Y-8045000D02*
X17108750Y-8195000D01*
D13*
X17208750Y-8045000D02*
X17158750Y-8045000D01*
X17158750Y-8195000D02*
G75*
G02*
X17158750Y-8045000I0J75000D01*
G01*
X17158750Y-8195000D02*
X17208750Y-8195000D01*
X17208750Y-8195000D02*
G75*
G03*
X17208750Y-8045000I0J75000D01*
G01*
D12*
X17585000Y-9950000D02*
X17735000Y-10100000D01*
X17735000Y-9950000D02*
X17585000Y-10100000D01*
D13*
X17685000Y-9950000D02*
X17635000Y-9950000D01*
X17635000Y-10100000D02*
G75*
G02*
X17635000Y-9950000I0J75000D01*
G01*
X17635000Y-10100000D02*
X17685000Y-10100000D01*
X17685000Y-10100000D02*
G75*
G03*
X17685000Y-9950000I0J75000D01*
G01*
D12*
X18061250Y-6140000D02*
X18211250Y-6290000D01*
X18211250Y-6140000D02*
X18061250Y-6290000D01*
D13*
X18161250Y-6140000D02*
X18111250Y-6140000D01*
X18111250Y-6290000D02*
G75*
G02*
X18111250Y-6140000I0J75000D01*
G01*
X18111250Y-6290000D02*
X18161250Y-6290000D01*
X18161250Y-6290000D02*
G75*
G03*
X18161250Y-6140000I0J75000D01*
G01*
D12*
X18061250Y-11855000D02*
X18211250Y-12005000D01*
X18211250Y-11855000D02*
X18061250Y-12005000D01*
D13*
X18161250Y-11855000D02*
X18111250Y-11855000D01*
X18111250Y-12005000D02*
G75*
G02*
X18111250Y-11855000I0J75000D01*
G01*
X18111250Y-12005000D02*
X18161250Y-12005000D01*
X18161250Y-12005000D02*
G75*
G03*
X18161250Y-11855000I0J75000D01*
G01*
D12*
X18775625Y-13760000D02*
X18925625Y-13910000D01*
X18925625Y-13760000D02*
X18775625Y-13910000D01*
D13*
X18875625Y-13760000D02*
X18825625Y-13760000D01*
X18825625Y-13910000D02*
G75*
G02*
X18825625Y-13760000I0J75000D01*
G01*
X18825625Y-13910000D02*
X18875625Y-13910000D01*
X18875625Y-13910000D02*
G75*
G03*
X18875625Y-13760000I0J75000D01*
G01*
D12*
X19013750Y-8045000D02*
X19163750Y-8195000D01*
X19163750Y-8045000D02*
X19013750Y-8195000D01*
D13*
X19113750Y-8045000D02*
X19063750Y-8045000D01*
X19063750Y-8195000D02*
G75*
G02*
X19063750Y-8045000I0J75000D01*
G01*
X19063750Y-8195000D02*
X19113750Y-8195000D01*
X19113750Y-8195000D02*
G75*
G03*
X19113750Y-8045000I0J75000D01*
G01*
D12*
X19490000Y-9950000D02*
X19640000Y-10100000D01*
X19640000Y-9950000D02*
X19490000Y-10100000D01*
D13*
X19590000Y-9950000D02*
X19540000Y-9950000D01*
X19540000Y-10100000D02*
G75*
G02*
X19540000Y-9950000I0J75000D01*
G01*
X19540000Y-10100000D02*
X19590000Y-10100000D01*
X19590000Y-10100000D02*
G75*
G03*
X19590000Y-9950000I0J75000D01*
G01*
D12*
X19966250Y-6140000D02*
X20116250Y-6290000D01*
X20116250Y-6140000D02*
X19966250Y-6290000D01*
D13*
X20066250Y-6140000D02*
X20016250Y-6140000D01*
X20016250Y-6290000D02*
G75*
G02*
X20016250Y-6140000I0J75000D01*
G01*
X20016250Y-6290000D02*
X20066250Y-6290000D01*
X20066250Y-6290000D02*
G75*
G03*
X20066250Y-6140000I0J75000D01*
G01*
D12*
X19966250Y-11855000D02*
X20116250Y-12005000D01*
X20116250Y-11855000D02*
X19966250Y-12005000D01*
D13*
X20066250Y-11855000D02*
X20016250Y-11855000D01*
X20016250Y-12005000D02*
G75*
G02*
X20016250Y-11855000I0J75000D01*
G01*
X20016250Y-12005000D02*
X20066250Y-12005000D01*
X20066250Y-12005000D02*
G75*
G03*
X20066250Y-11855000I0J75000D01*
G01*
D14*
X7646250Y-5715000D02*
G75*
G02*
X7346250Y-5715000I-150000J0D01*
G01*
X7346250Y-5715000D02*
G75*
G02*
X7646250Y-5715000I150000J0D01*
G01*
X7646250Y-13335000D02*
G75*
G02*
X7346250Y-13335000I-150000J0D01*
G01*
X7346250Y-13335000D02*
G75*
G02*
X7646250Y-13335000I150000J0D01*
G01*
X7866250Y-5215000D02*
G75*
G02*
X7566250Y-5215000I-150000J0D01*
G01*
X7566250Y-5215000D02*
G75*
G02*
X7866250Y-5215000I150000J0D01*
G01*
X7866250Y-12835000D02*
G75*
G02*
X7566250Y-12835000I-150000J0D01*
G01*
X7566250Y-12835000D02*
G75*
G02*
X7866250Y-12835000I150000J0D01*
G01*
X8122500Y-7620000D02*
G75*
G02*
X7822500Y-7620000I-150000J0D01*
G01*
X7822500Y-7620000D02*
G75*
G02*
X8122500Y-7620000I150000J0D01*
G01*
X8342500Y-7120000D02*
G75*
G02*
X8042500Y-7120000I-150000J0D01*
G01*
X8042500Y-7120000D02*
G75*
G02*
X8342500Y-7120000I150000J0D01*
G01*
X8360625Y-9525000D02*
G75*
G02*
X8060625Y-9525000I-150000J0D01*
G01*
X8060625Y-9525000D02*
G75*
G02*
X8360625Y-9525000I150000J0D01*
G01*
X8580625Y-9025000D02*
G75*
G02*
X8280625Y-9025000I-150000J0D01*
G01*
X8280625Y-9025000D02*
G75*
G02*
X8580625Y-9025000I150000J0D01*
G01*
X8598750Y-11430000D02*
G75*
G02*
X8298750Y-11430000I-150000J0D01*
G01*
X8298750Y-11430000D02*
G75*
G02*
X8598750Y-11430000I150000J0D01*
G01*
X8818750Y-10930000D02*
G75*
G02*
X8518750Y-10930000I-150000J0D01*
G01*
X8518750Y-10930000D02*
G75*
G02*
X8818750Y-10930000I150000J0D01*
G01*
X9551250Y-5715000D02*
G75*
G02*
X9251250Y-5715000I-150000J0D01*
G01*
X9251250Y-5715000D02*
G75*
G02*
X9551250Y-5715000I150000J0D01*
G01*
X9771250Y-5215000D02*
G75*
G02*
X9471250Y-5215000I-150000J0D01*
G01*
X9471250Y-5215000D02*
G75*
G02*
X9771250Y-5215000I150000J0D01*
G01*
X10027500Y-13335000D02*
G75*
G02*
X9727500Y-13335000I-150000J0D01*
G01*
X9727500Y-13335000D02*
G75*
G02*
X10027500Y-13335000I150000J0D01*
G01*
X10247500Y-12835000D02*
G75*
G02*
X9947500Y-12835000I-150000J0D01*
G01*
X9947500Y-12835000D02*
G75*
G02*
X10247500Y-12835000I150000J0D01*
G01*
X10503750Y-7620000D02*
G75*
G02*
X10203750Y-7620000I-150000J0D01*
G01*
X10203750Y-7620000D02*
G75*
G02*
X10503750Y-7620000I150000J0D01*
G01*
X10723750Y-7120000D02*
G75*
G02*
X10423750Y-7120000I-150000J0D01*
G01*
X10423750Y-7120000D02*
G75*
G02*
X10723750Y-7120000I150000J0D01*
G01*
X10980000Y-9525000D02*
G75*
G02*
X10680000Y-9525000I-150000J0D01*
G01*
X10680000Y-9525000D02*
G75*
G02*
X10980000Y-9525000I150000J0D01*
G01*
X11200000Y-9025000D02*
G75*
G02*
X10900000Y-9025000I-150000J0D01*
G01*
X10900000Y-9025000D02*
G75*
G02*
X11200000Y-9025000I150000J0D01*
G01*
X11456250Y-5715000D02*
G75*
G02*
X11156250Y-5715000I-150000J0D01*
G01*
X11156250Y-5715000D02*
G75*
G02*
X11456250Y-5715000I150000J0D01*
G01*
X11456250Y-11430000D02*
G75*
G02*
X11156250Y-11430000I-150000J0D01*
G01*
X11156250Y-11430000D02*
G75*
G02*
X11456250Y-11430000I150000J0D01*
G01*
X11676250Y-5215000D02*
G75*
G02*
X11376250Y-5215000I-150000J0D01*
G01*
X11376250Y-5215000D02*
G75*
G02*
X11676250Y-5215000I150000J0D01*
G01*
X11676250Y-10930000D02*
G75*
G02*
X11376250Y-10930000I-150000J0D01*
G01*
X11376250Y-10930000D02*
G75*
G02*
X11676250Y-10930000I150000J0D01*
G01*
X11932500Y-13335000D02*
G75*
G02*
X11632500Y-13335000I-150000J0D01*
G01*
X11632500Y-13335000D02*
G75*
G02*
X11932500Y-13335000I150000J0D01*
G01*
X12152500Y-12835000D02*
G75*
G02*
X11852500Y-12835000I-150000J0D01*
G01*
X11852500Y-12835000D02*
G75*
G02*
X12152500Y-12835000I150000J0D01*
G01*
X12408750Y-7620000D02*
G75*
G02*
X12108750Y-7620000I-150000J0D01*
G01*
X12108750Y-7620000D02*
G75*
G02*
X12408750Y-7620000I150000J0D01*
G01*
X12628750Y-7120000D02*
G75*
G02*
X12328750Y-7120000I-150000J0D01*
G01*
X12328750Y-7120000D02*
G75*
G02*
X12628750Y-7120000I150000J0D01*
G01*
X12885000Y-9525000D02*
G75*
G02*
X12585000Y-9525000I-150000J0D01*
G01*
X12585000Y-9525000D02*
G75*
G02*
X12885000Y-9525000I150000J0D01*
G01*
X13105000Y-9025000D02*
G75*
G02*
X12805000Y-9025000I-150000J0D01*
G01*
X12805000Y-9025000D02*
G75*
G02*
X13105000Y-9025000I150000J0D01*
G01*
X13361250Y-5715000D02*
G75*
G02*
X13061250Y-5715000I-150000J0D01*
G01*
X13061250Y-5715000D02*
G75*
G02*
X13361250Y-5715000I150000J0D01*
G01*
X13361250Y-11430000D02*
G75*
G02*
X13061250Y-11430000I-150000J0D01*
G01*
X13061250Y-11430000D02*
G75*
G02*
X13361250Y-11430000I150000J0D01*
G01*
X13581250Y-5215000D02*
G75*
G02*
X13281250Y-5215000I-150000J0D01*
G01*
X13281250Y-5215000D02*
G75*
G02*
X13581250Y-5215000I150000J0D01*
G01*
X13581250Y-10930000D02*
G75*
G02*
X13281250Y-10930000I-150000J0D01*
G01*
X13281250Y-10930000D02*
G75*
G02*
X13581250Y-10930000I150000J0D01*
G01*
X13837500Y-13335000D02*
G75*
G02*
X13537500Y-13335000I-150000J0D01*
G01*
X13537500Y-13335000D02*
G75*
G02*
X13837500Y-13335000I150000J0D01*
G01*
X14057500Y-12835000D02*
G75*
G02*
X13757500Y-12835000I-150000J0D01*
G01*
X13757500Y-12835000D02*
G75*
G02*
X14057500Y-12835000I150000J0D01*
G01*
X14313750Y-7620000D02*
G75*
G02*
X14013750Y-7620000I-150000J0D01*
G01*
X14013750Y-7620000D02*
G75*
G02*
X14313750Y-7620000I150000J0D01*
G01*
X14533750Y-7120000D02*
G75*
G02*
X14233750Y-7120000I-150000J0D01*
G01*
X14233750Y-7120000D02*
G75*
G02*
X14533750Y-7120000I150000J0D01*
G01*
X14790000Y-9525000D02*
G75*
G02*
X14490000Y-9525000I-150000J0D01*
G01*
X14490000Y-9525000D02*
G75*
G02*
X14790000Y-9525000I150000J0D01*
G01*
X15010000Y-9025000D02*
G75*
G02*
X14710000Y-9025000I-150000J0D01*
G01*
X14710000Y-9025000D02*
G75*
G02*
X15010000Y-9025000I150000J0D01*
G01*
X15266250Y-5715000D02*
G75*
G02*
X14966250Y-5715000I-150000J0D01*
G01*
X14966250Y-5715000D02*
G75*
G02*
X15266250Y-5715000I150000J0D01*
G01*
X15266250Y-11430000D02*
G75*
G02*
X14966250Y-11430000I-150000J0D01*
G01*
X14966250Y-11430000D02*
G75*
G02*
X15266250Y-11430000I150000J0D01*
G01*
X15486250Y-5215000D02*
G75*
G02*
X15186250Y-5215000I-150000J0D01*
G01*
X15186250Y-5215000D02*
G75*
G02*
X15486250Y-5215000I150000J0D01*
G01*
X15486250Y-10930000D02*
G75*
G02*
X15186250Y-10930000I-150000J0D01*
G01*
X15186250Y-10930000D02*
G75*
G02*
X15486250Y-10930000I150000J0D01*
G01*
X15742500Y-13335000D02*
G75*
G02*
X15442500Y-13335000I-150000J0D01*
G01*
X15442500Y-13335000D02*
G75*
G02*
X15742500Y-13335000I150000J0D01*
G01*
X15962500Y-12835000D02*
G75*
G02*
X15662500Y-12835000I-150000J0D01*
G01*
X15662500Y-12835000D02*
G75*
G02*
X15962500Y-12835000I150000J0D01*
G01*
X16218750Y-7620000D02*
G75*
G02*
X15918750Y-7620000I-150000J0D01*
G01*
X15918750Y-7620000D02*
G75*
G02*
X16218750Y-7620000I150000J0D01*
G01*
X16438750Y-7120000D02*
G75*
G02*
X16138750Y-7120000I-150000J0D01*
G01*
X16138750Y-7120000D02*
G75*
G02*
X16438750Y-7120000I150000J0D01*
G01*
X16695000Y-9525000D02*
G75*
G02*
X16395000Y-9525000I-150000J0D01*
G01*
X16395000Y-9525000D02*
G75*
G02*
X16695000Y-9525000I150000J0D01*
G01*
X16915000Y-9025000D02*
G75*
G02*
X16615000Y-9025000I-150000J0D01*
G01*
X16615000Y-9025000D02*
G75*
G02*
X16915000Y-9025000I150000J0D01*
G01*
X17171250Y-5715000D02*
G75*
G02*
X16871250Y-5715000I-150000J0D01*
G01*
X16871250Y-5715000D02*
G75*
G02*
X17171250Y-5715000I150000J0D01*
G01*
X17171250Y-11430000D02*
G75*
G02*
X16871250Y-11430000I-150000J0D01*
G01*
X16871250Y-11430000D02*
G75*
G02*
X17171250Y-11430000I150000J0D01*
G01*
X17391250Y-5215000D02*
G75*
G02*
X17091250Y-5215000I-150000J0D01*
G01*
X17091250Y-5215000D02*
G75*
G02*
X17391250Y-5215000I150000J0D01*
G01*
X17391250Y-10930000D02*
G75*
G02*
X17091250Y-10930000I-150000J0D01*
G01*
X17091250Y-10930000D02*
G75*
G02*
X17391250Y-10930000I150000J0D01*
G01*
X17885625Y-13335000D02*
G75*
G02*
X17585625Y-13335000I-150000J0D01*
G01*
X17585625Y-13335000D02*
G75*
G02*
X17885625Y-13335000I150000J0D01*
G01*
X18105625Y-12835000D02*
G75*
G02*
X17805625Y-12835000I-150000J0D01*
G01*
X17805625Y-12835000D02*
G75*
G02*
X18105625Y-12835000I150000J0D01*
G01*
X18123750Y-7620000D02*
G75*
G02*
X17823750Y-7620000I-150000J0D01*
G01*
X17823750Y-7620000D02*
G75*
G02*
X18123750Y-7620000I150000J0D01*
G01*
X18343750Y-7120000D02*
G75*
G02*
X18043750Y-7120000I-150000J0D01*
G01*
X18043750Y-7120000D02*
G75*
G02*
X18343750Y-7120000I150000J0D01*
G01*
X18600000Y-9525000D02*
G75*
G02*
X18300000Y-9525000I-150000J0D01*
G01*
X18300000Y-9525000D02*
G75*
G02*
X18600000Y-9525000I150000J0D01*
G01*
X18820000Y-9025000D02*
G75*
G02*
X18520000Y-9025000I-150000J0D01*
G01*
X18520000Y-9025000D02*
G75*
G02*
X18820000Y-9025000I150000J0D01*
G01*
X19076250Y-5715000D02*
G75*
G02*
X18776250Y-5715000I-150000J0D01*
G01*
X18776250Y-5715000D02*
G75*
G02*
X19076250Y-5715000I150000J0D01*
G01*
X19076250Y-11430000D02*
G75*
G02*
X18776250Y-11430000I-150000J0D01*
G01*
X18776250Y-11430000D02*
G75*
G02*
X19076250Y-11430000I150000J0D01*
G01*
X19296250Y-5215000D02*
G75*
G02*
X18996250Y-5215000I-150000J0D01*
G01*
X18996250Y-5215000D02*
G75*
G02*
X19296250Y-5215000I150000J0D01*
G01*
X19296250Y-10930000D02*
G75*
G02*
X18996250Y-10930000I-150000J0D01*
G01*
X18996250Y-10930000D02*
G75*
G02*
X19296250Y-10930000I150000J0D01*
G01*
D15*
X8096250Y-5460000D02*
X8096250Y-5970000D01*
X7841250Y-5715000D02*
X8351250Y-5715000D01*
X8096250Y-13080000D02*
X8096250Y-13590000D01*
X7841250Y-13335000D02*
X8351250Y-13335000D01*
X8572500Y-7365000D02*
X8572500Y-7875000D01*
X8317500Y-7620000D02*
X8827500Y-7620000D01*
X8810625Y-9270000D02*
X8810625Y-9780000D01*
X8555625Y-9525000D02*
X9065625Y-9525000D01*
X9048750Y-11175000D02*
X9048750Y-11685000D01*
X8793750Y-11430000D02*
X9303750Y-11430000D01*
X10001250Y-5460000D02*
X10001250Y-5970000D01*
X9746250Y-5715000D02*
X10256250Y-5715000D01*
X10477500Y-13080000D02*
X10477500Y-13590000D01*
X10222500Y-13335000D02*
X10732500Y-13335000D01*
X10953750Y-7365000D02*
X10953750Y-7875000D01*
X10698750Y-7620000D02*
X11208750Y-7620000D01*
X11430000Y-9270000D02*
X11430000Y-9780000D01*
X11175000Y-9525000D02*
X11685000Y-9525000D01*
X11906250Y-5460000D02*
X11906250Y-5970000D01*
X11651250Y-5715000D02*
X12161250Y-5715000D01*
X11906250Y-11175000D02*
X11906250Y-11685000D01*
X11651250Y-11430000D02*
X12161250Y-11430000D01*
X12382500Y-13080000D02*
X12382500Y-13590000D01*
X12127500Y-13335000D02*
X12637500Y-13335000D01*
X12858750Y-7365000D02*
X12858750Y-7875000D01*
X12603750Y-7620000D02*
X13113750Y-7620000D01*
X13335000Y-9270000D02*
X13335000Y-9780000D01*
X13080000Y-9525000D02*
X13590000Y-9525000D01*
X13811250Y-5460000D02*
X13811250Y-5970000D01*
X13556250Y-5715000D02*
X14066250Y-5715000D01*
X13811250Y-11175000D02*
X13811250Y-11685000D01*
X13556250Y-11430000D02*
X14066250Y-11430000D01*
X14287500Y-13080000D02*
X14287500Y-13590000D01*
X14032500Y-13335000D02*
X14542500Y-13335000D01*
X14763750Y-7365000D02*
X14763750Y-7875000D01*
X14508750Y-7620000D02*
X15018750Y-7620000D01*
X15240000Y-9270000D02*
X15240000Y-9780000D01*
X14985000Y-9525000D02*
X15495000Y-9525000D01*
X15716250Y-5460000D02*
X15716250Y-5970000D01*
X15461250Y-5715000D02*
X15971250Y-5715000D01*
X15716250Y-11175000D02*
X15716250Y-11685000D01*
X15461250Y-11430000D02*
X15971250Y-11430000D01*
X16192500Y-13080000D02*
X16192500Y-13590000D01*
X15937500Y-13335000D02*
X16447500Y-13335000D01*
X16668750Y-7365000D02*
X16668750Y-7875000D01*
X16413750Y-7620000D02*
X16923750Y-7620000D01*
X17145000Y-9270000D02*
X17145000Y-9780000D01*
X16890000Y-9525000D02*
X17400000Y-9525000D01*
X17621250Y-5460000D02*
X17621250Y-5970000D01*
X17366250Y-5715000D02*
X17876250Y-5715000D01*
X17621250Y-11175000D02*
X17621250Y-11685000D01*
X17366250Y-11430000D02*
X17876250Y-11430000D01*
X18335625Y-13080000D02*
X18335625Y-13590000D01*
X18080625Y-13335000D02*
X18590625Y-13335000D01*
X18573750Y-7365000D02*
X18573750Y-7875000D01*
X18318750Y-7620000D02*
X18828750Y-7620000D01*
X19050000Y-9270000D02*
X19050000Y-9780000D01*
X18795000Y-9525000D02*
X19305000Y-9525000D01*
X19526250Y-5460000D02*
X19526250Y-5970000D01*
X19271250Y-5715000D02*
X19781250Y-5715000D01*
X19526250Y-11175000D02*
X19526250Y-11685000D01*
X19271250Y-11430000D02*
X19781250Y-11430000D01*
D11*
X4782652Y-14661027D02*
X4782652Y-14461027D01*
X4782652Y-14461027D02*
X4830271Y-14461027D01*
X4830271Y-14461027D02*
X4858842Y-14470551D01*
X4858842Y-14470551D02*
X4877890Y-14489598D01*
X4877890Y-14489598D02*
X4887414Y-14508646D01*
X4887414Y-14508646D02*
X4896938Y-14546741D01*
X4896938Y-14546741D02*
X4896938Y-14575313D01*
X4896938Y-14575313D02*
X4887414Y-14613408D01*
X4887414Y-14613408D02*
X4877890Y-14632456D01*
X4877890Y-14632456D02*
X4858842Y-14651503D01*
X4858842Y-14651503D02*
X4830271Y-14661027D01*
X4830271Y-14661027D02*
X4782652Y-14661027D01*
X4982652Y-14661027D02*
X4982652Y-14527694D01*
X4982652Y-14565789D02*
X4992176Y-14546741D01*
X4992176Y-14546741D02*
X5001699Y-14537217D01*
X5001699Y-14537217D02*
X5020747Y-14527694D01*
X5020747Y-14527694D02*
X5039795Y-14527694D01*
X5106461Y-14661027D02*
X5106461Y-14527694D01*
X5106461Y-14461027D02*
X5096938Y-14470551D01*
X5096938Y-14470551D02*
X5106461Y-14480075D01*
X5106461Y-14480075D02*
X5115985Y-14470551D01*
X5115985Y-14470551D02*
X5106461Y-14461027D01*
X5106461Y-14461027D02*
X5106461Y-14480075D01*
X5230271Y-14661027D02*
X5211223Y-14651503D01*
X5211223Y-14651503D02*
X5201699Y-14632456D01*
X5201699Y-14632456D02*
X5201699Y-14461027D01*
X5335033Y-14661027D02*
X5315985Y-14651503D01*
X5315985Y-14651503D02*
X5306461Y-14632456D01*
X5306461Y-14632456D02*
X5306461Y-14461027D01*
X5563604Y-14661027D02*
X5563604Y-14461027D01*
X5563604Y-14461027D02*
X5630271Y-14603884D01*
X5630271Y-14603884D02*
X5696937Y-14461027D01*
X5696937Y-14461027D02*
X5696937Y-14661027D01*
X5877890Y-14661027D02*
X5877890Y-14556265D01*
X5877890Y-14556265D02*
X5868366Y-14537217D01*
X5868366Y-14537217D02*
X5849318Y-14527694D01*
X5849318Y-14527694D02*
X5811223Y-14527694D01*
X5811223Y-14527694D02*
X5792176Y-14537217D01*
X5877890Y-14651503D02*
X5858842Y-14661027D01*
X5858842Y-14661027D02*
X5811223Y-14661027D01*
X5811223Y-14661027D02*
X5792176Y-14651503D01*
X5792176Y-14651503D02*
X5782652Y-14632456D01*
X5782652Y-14632456D02*
X5782652Y-14613408D01*
X5782652Y-14613408D02*
X5792176Y-14594360D01*
X5792176Y-14594360D02*
X5811223Y-14584837D01*
X5811223Y-14584837D02*
X5858842Y-14584837D01*
X5858842Y-14584837D02*
X5877890Y-14575313D01*
X5973128Y-14527694D02*
X5973128Y-14727694D01*
X5973128Y-14537217D02*
X5992176Y-14527694D01*
X5992176Y-14527694D02*
X6030271Y-14527694D01*
X6030271Y-14527694D02*
X6049318Y-14537217D01*
X6049318Y-14537217D02*
X6058842Y-14546741D01*
X6058842Y-14546741D02*
X6068366Y-14565789D01*
X6068366Y-14565789D02*
X6068366Y-14622932D01*
X6068366Y-14622932D02*
X6058842Y-14641979D01*
X6058842Y-14641979D02*
X6049318Y-14651503D01*
X6049318Y-14651503D02*
X6030271Y-14661027D01*
X6030271Y-14661027D02*
X5992176Y-14661027D01*
X5992176Y-14661027D02*
X5973128Y-14651503D01*
X6154080Y-14641979D02*
X6163604Y-14651503D01*
X6163604Y-14651503D02*
X6154080Y-14661027D01*
X6154080Y-14661027D02*
X6144557Y-14651503D01*
X6144557Y-14651503D02*
X6154080Y-14641979D01*
X6154080Y-14641979D02*
X6154080Y-14661027D01*
X6154080Y-14537217D02*
X6163604Y-14546741D01*
X6163604Y-14546741D02*
X6154080Y-14556265D01*
X6154080Y-14556265D02*
X6144557Y-14546741D01*
X6144557Y-14546741D02*
X6154080Y-14537217D01*
X6154080Y-14537217D02*
X6154080Y-14556265D01*
D12*
X4371875Y-14914543D02*
X4521875Y-15064543D01*
X4521875Y-14914543D02*
X4371875Y-15064543D01*
D11*
X4887414Y-15081027D02*
X4773128Y-15081027D01*
X4830271Y-15081027D02*
X4830271Y-14881027D01*
X4830271Y-14881027D02*
X4811223Y-14909598D01*
X4811223Y-14909598D02*
X4792176Y-14928646D01*
X4792176Y-14928646D02*
X4773128Y-14938170D01*
X4973128Y-15061979D02*
X4982652Y-15071503D01*
X4982652Y-15071503D02*
X4973128Y-15081027D01*
X4973128Y-15081027D02*
X4963604Y-15071503D01*
X4963604Y-15071503D02*
X4973128Y-15061979D01*
X4973128Y-15061979D02*
X4973128Y-15081027D01*
X5163604Y-14881027D02*
X5068366Y-14881027D01*
X5068366Y-14881027D02*
X5058842Y-14976265D01*
X5058842Y-14976265D02*
X5068366Y-14966741D01*
X5068366Y-14966741D02*
X5087414Y-14957217D01*
X5087414Y-14957217D02*
X5135033Y-14957217D01*
X5135033Y-14957217D02*
X5154080Y-14966741D01*
X5154080Y-14966741D02*
X5163604Y-14976265D01*
X5163604Y-14976265D02*
X5173128Y-14995313D01*
X5173128Y-14995313D02*
X5173128Y-15042932D01*
X5173128Y-15042932D02*
X5163604Y-15061979D01*
X5163604Y-15061979D02*
X5154080Y-15071503D01*
X5154080Y-15071503D02*
X5135033Y-15081027D01*
X5135033Y-15081027D02*
X5087414Y-15081027D01*
X5087414Y-15081027D02*
X5068366Y-15071503D01*
X5068366Y-15071503D02*
X5058842Y-15061979D01*
X5296938Y-14881027D02*
X5315985Y-14881027D01*
X5315985Y-14881027D02*
X5335033Y-14890551D01*
X5335033Y-14890551D02*
X5344557Y-14900075D01*
X5344557Y-14900075D02*
X5354080Y-14919122D01*
X5354080Y-14919122D02*
X5363604Y-14957217D01*
X5363604Y-14957217D02*
X5363604Y-15004837D01*
X5363604Y-15004837D02*
X5354080Y-15042932D01*
X5354080Y-15042932D02*
X5344557Y-15061979D01*
X5344557Y-15061979D02*
X5335033Y-15071503D01*
X5335033Y-15071503D02*
X5315985Y-15081027D01*
X5315985Y-15081027D02*
X5296938Y-15081027D01*
X5296938Y-15081027D02*
X5277890Y-15071503D01*
X5277890Y-15071503D02*
X5268366Y-15061979D01*
X5268366Y-15061979D02*
X5258842Y-15042932D01*
X5258842Y-15042932D02*
X5249319Y-15004837D01*
X5249319Y-15004837D02*
X5249319Y-14957217D01*
X5249319Y-14957217D02*
X5258842Y-14919122D01*
X5258842Y-14919122D02*
X5268366Y-14900075D01*
X5268366Y-14900075D02*
X5277890Y-14890551D01*
X5277890Y-14890551D02*
X5296938Y-14881027D01*
X5487414Y-14881027D02*
X5506461Y-14881027D01*
X5506461Y-14881027D02*
X5525509Y-14890551D01*
X5525509Y-14890551D02*
X5535033Y-14900075D01*
X5535033Y-14900075D02*
X5544557Y-14919122D01*
X5544557Y-14919122D02*
X5554080Y-14957217D01*
X5554080Y-14957217D02*
X5554080Y-15004837D01*
X5554080Y-15004837D02*
X5544557Y-15042932D01*
X5544557Y-15042932D02*
X5535033Y-15061979D01*
X5535033Y-15061979D02*
X5525509Y-15071503D01*
X5525509Y-15071503D02*
X5506461Y-15081027D01*
X5506461Y-15081027D02*
X5487414Y-15081027D01*
X5487414Y-15081027D02*
X5468366Y-15071503D01*
X5468366Y-15071503D02*
X5458842Y-15061979D01*
X5458842Y-15061979D02*
X5449319Y-15042932D01*
X5449319Y-15042932D02*
X5439795Y-15004837D01*
X5439795Y-15004837D02*
X5439795Y-14957217D01*
X5439795Y-14957217D02*
X5449319Y-14919122D01*
X5449319Y-14919122D02*
X5458842Y-14900075D01*
X5458842Y-14900075D02*
X5468366Y-14890551D01*
X5468366Y-14890551D02*
X5487414Y-14881027D01*
X5639795Y-15081027D02*
X5639795Y-14947694D01*
X5639795Y-14966741D02*
X5649318Y-14957217D01*
X5649318Y-14957217D02*
X5668366Y-14947694D01*
X5668366Y-14947694D02*
X5696938Y-14947694D01*
X5696938Y-14947694D02*
X5715985Y-14957217D01*
X5715985Y-14957217D02*
X5725509Y-14976265D01*
X5725509Y-14976265D02*
X5725509Y-15081027D01*
X5725509Y-14976265D02*
X5735033Y-14957217D01*
X5735033Y-14957217D02*
X5754080Y-14947694D01*
X5754080Y-14947694D02*
X5782652Y-14947694D01*
X5782652Y-14947694D02*
X5801699Y-14957217D01*
X5801699Y-14957217D02*
X5811223Y-14976265D01*
X5811223Y-14976265D02*
X5811223Y-15081027D01*
X5906461Y-15081027D02*
X5906461Y-14947694D01*
X5906461Y-14966741D02*
X5915985Y-14957217D01*
X5915985Y-14957217D02*
X5935033Y-14947694D01*
X5935033Y-14947694D02*
X5963604Y-14947694D01*
X5963604Y-14947694D02*
X5982652Y-14957217D01*
X5982652Y-14957217D02*
X5992176Y-14976265D01*
X5992176Y-14976265D02*
X5992176Y-15081027D01*
X5992176Y-14976265D02*
X6001699Y-14957217D01*
X6001699Y-14957217D02*
X6020747Y-14947694D01*
X6020747Y-14947694D02*
X6049318Y-14947694D01*
X6049318Y-14947694D02*
X6068366Y-14957217D01*
X6068366Y-14957217D02*
X6077890Y-14976265D01*
X6077890Y-14976265D02*
X6077890Y-15081027D01*
X6468366Y-14871503D02*
X6296938Y-15128646D01*
X6725509Y-14881027D02*
X6744557Y-14881027D01*
X6744557Y-14881027D02*
X6763604Y-14890551D01*
X6763604Y-14890551D02*
X6773128Y-14900075D01*
X6773128Y-14900075D02*
X6782652Y-14919122D01*
X6782652Y-14919122D02*
X6792176Y-14957217D01*
X6792176Y-14957217D02*
X6792176Y-15004837D01*
X6792176Y-15004837D02*
X6782652Y-15042932D01*
X6782652Y-15042932D02*
X6773128Y-15061979D01*
X6773128Y-15061979D02*
X6763604Y-15071503D01*
X6763604Y-15071503D02*
X6744557Y-15081027D01*
X6744557Y-15081027D02*
X6725509Y-15081027D01*
X6725509Y-15081027D02*
X6706461Y-15071503D01*
X6706461Y-15071503D02*
X6696938Y-15061979D01*
X6696938Y-15061979D02*
X6687414Y-15042932D01*
X6687414Y-15042932D02*
X6677890Y-15004837D01*
X6677890Y-15004837D02*
X6677890Y-14957217D01*
X6677890Y-14957217D02*
X6687414Y-14919122D01*
X6687414Y-14919122D02*
X6696938Y-14900075D01*
X6696938Y-14900075D02*
X6706461Y-14890551D01*
X6706461Y-14890551D02*
X6725509Y-14881027D01*
X6877890Y-15061979D02*
X6887414Y-15071503D01*
X6887414Y-15071503D02*
X6877890Y-15081027D01*
X6877890Y-15081027D02*
X6868366Y-15071503D01*
X6868366Y-15071503D02*
X6877890Y-15061979D01*
X6877890Y-15061979D02*
X6877890Y-15081027D01*
X7011223Y-14881027D02*
X7030271Y-14881027D01*
X7030271Y-14881027D02*
X7049319Y-14890551D01*
X7049319Y-14890551D02*
X7058842Y-14900075D01*
X7058842Y-14900075D02*
X7068366Y-14919122D01*
X7068366Y-14919122D02*
X7077890Y-14957217D01*
X7077890Y-14957217D02*
X7077890Y-15004837D01*
X7077890Y-15004837D02*
X7068366Y-15042932D01*
X7068366Y-15042932D02*
X7058842Y-15061979D01*
X7058842Y-15061979D02*
X7049319Y-15071503D01*
X7049319Y-15071503D02*
X7030271Y-15081027D01*
X7030271Y-15081027D02*
X7011223Y-15081027D01*
X7011223Y-15081027D02*
X6992176Y-15071503D01*
X6992176Y-15071503D02*
X6982652Y-15061979D01*
X6982652Y-15061979D02*
X6973128Y-15042932D01*
X6973128Y-15042932D02*
X6963604Y-15004837D01*
X6963604Y-15004837D02*
X6963604Y-14957217D01*
X6963604Y-14957217D02*
X6973128Y-14919122D01*
X6973128Y-14919122D02*
X6982652Y-14900075D01*
X6982652Y-14900075D02*
X6992176Y-14890551D01*
X6992176Y-14890551D02*
X7011223Y-14881027D01*
X7258842Y-14881027D02*
X7163604Y-14881027D01*
X7163604Y-14881027D02*
X7154081Y-14976265D01*
X7154081Y-14976265D02*
X7163604Y-14966741D01*
X7163604Y-14966741D02*
X7182652Y-14957217D01*
X7182652Y-14957217D02*
X7230271Y-14957217D01*
X7230271Y-14957217D02*
X7249319Y-14966741D01*
X7249319Y-14966741D02*
X7258842Y-14976265D01*
X7258842Y-14976265D02*
X7268366Y-14995313D01*
X7268366Y-14995313D02*
X7268366Y-15042932D01*
X7268366Y-15042932D02*
X7258842Y-15061979D01*
X7258842Y-15061979D02*
X7249319Y-15071503D01*
X7249319Y-15071503D02*
X7230271Y-15081027D01*
X7230271Y-15081027D02*
X7182652Y-15081027D01*
X7182652Y-15081027D02*
X7163604Y-15071503D01*
X7163604Y-15071503D02*
X7154081Y-15061979D01*
X7363604Y-15081027D02*
X7401700Y-15081027D01*
X7401700Y-15081027D02*
X7420747Y-15071503D01*
X7420747Y-15071503D02*
X7430271Y-15061979D01*
X7430271Y-15061979D02*
X7449319Y-15033408D01*
X7449319Y-15033408D02*
X7458842Y-14995313D01*
X7458842Y-14995313D02*
X7458842Y-14919122D01*
X7458842Y-14919122D02*
X7449319Y-14900075D01*
X7449319Y-14900075D02*
X7439795Y-14890551D01*
X7439795Y-14890551D02*
X7420747Y-14881027D01*
X7420747Y-14881027D02*
X7382652Y-14881027D01*
X7382652Y-14881027D02*
X7363604Y-14890551D01*
X7363604Y-14890551D02*
X7354081Y-14900075D01*
X7354081Y-14900075D02*
X7344557Y-14919122D01*
X7344557Y-14919122D02*
X7344557Y-14966741D01*
X7344557Y-14966741D02*
X7354081Y-14985789D01*
X7354081Y-14985789D02*
X7363604Y-14995313D01*
X7363604Y-14995313D02*
X7382652Y-15004837D01*
X7382652Y-15004837D02*
X7420747Y-15004837D01*
X7420747Y-15004837D02*
X7439795Y-14995313D01*
X7439795Y-14995313D02*
X7449319Y-14985789D01*
X7449319Y-14985789D02*
X7458842Y-14966741D01*
X7649319Y-15081027D02*
X7535033Y-15081027D01*
X7592176Y-15081027D02*
X7592176Y-14881027D01*
X7592176Y-14881027D02*
X7573128Y-14909598D01*
X7573128Y-14909598D02*
X7554081Y-14928646D01*
X7554081Y-14928646D02*
X7535033Y-14938170D01*
X7725509Y-14881027D02*
X7725509Y-14919122D01*
X7801700Y-14881027D02*
X7801700Y-14919122D01*
X8096938Y-15157217D02*
X8087414Y-15147694D01*
X8087414Y-15147694D02*
X8068366Y-15119122D01*
X8068366Y-15119122D02*
X8058843Y-15100075D01*
X8058843Y-15100075D02*
X8049319Y-15071503D01*
X8049319Y-15071503D02*
X8039795Y-15023884D01*
X8039795Y-15023884D02*
X8039795Y-14985789D01*
X8039795Y-14985789D02*
X8049319Y-14938170D01*
X8049319Y-14938170D02*
X8058843Y-14909598D01*
X8058843Y-14909598D02*
X8068366Y-14890551D01*
X8068366Y-14890551D02*
X8087414Y-14861979D01*
X8087414Y-14861979D02*
X8096938Y-14852456D01*
X8211223Y-14881027D02*
X8230271Y-14881027D01*
X8230271Y-14881027D02*
X8249319Y-14890551D01*
X8249319Y-14890551D02*
X8258843Y-14900075D01*
X8258843Y-14900075D02*
X8268366Y-14919122D01*
X8268366Y-14919122D02*
X8277890Y-14957217D01*
X8277890Y-14957217D02*
X8277890Y-15004837D01*
X8277890Y-15004837D02*
X8268366Y-15042932D01*
X8268366Y-15042932D02*
X8258843Y-15061979D01*
X8258843Y-15061979D02*
X8249319Y-15071503D01*
X8249319Y-15071503D02*
X8230271Y-15081027D01*
X8230271Y-15081027D02*
X8211223Y-15081027D01*
X8211223Y-15081027D02*
X8192176Y-15071503D01*
X8192176Y-15071503D02*
X8182652Y-15061979D01*
X8182652Y-15061979D02*
X8173128Y-15042932D01*
X8173128Y-15042932D02*
X8163604Y-15004837D01*
X8163604Y-15004837D02*
X8163604Y-14957217D01*
X8163604Y-14957217D02*
X8173128Y-14919122D01*
X8173128Y-14919122D02*
X8182652Y-14900075D01*
X8182652Y-14900075D02*
X8192176Y-14890551D01*
X8192176Y-14890551D02*
X8211223Y-14881027D01*
X8515986Y-15081027D02*
X8515986Y-14881027D01*
X8601700Y-15081027D02*
X8601700Y-14976265D01*
X8601700Y-14976265D02*
X8592176Y-14957217D01*
X8592176Y-14957217D02*
X8573128Y-14947694D01*
X8573128Y-14947694D02*
X8544557Y-14947694D01*
X8544557Y-14947694D02*
X8525509Y-14957217D01*
X8525509Y-14957217D02*
X8515986Y-14966741D01*
X8725509Y-15081027D02*
X8706462Y-15071503D01*
X8706462Y-15071503D02*
X8696938Y-15061979D01*
X8696938Y-15061979D02*
X8687414Y-15042932D01*
X8687414Y-15042932D02*
X8687414Y-14985789D01*
X8687414Y-14985789D02*
X8696938Y-14966741D01*
X8696938Y-14966741D02*
X8706462Y-14957217D01*
X8706462Y-14957217D02*
X8725509Y-14947694D01*
X8725509Y-14947694D02*
X8754081Y-14947694D01*
X8754081Y-14947694D02*
X8773128Y-14957217D01*
X8773128Y-14957217D02*
X8782652Y-14966741D01*
X8782652Y-14966741D02*
X8792176Y-14985789D01*
X8792176Y-14985789D02*
X8792176Y-15042932D01*
X8792176Y-15042932D02*
X8782652Y-15061979D01*
X8782652Y-15061979D02*
X8773128Y-15071503D01*
X8773128Y-15071503D02*
X8754081Y-15081027D01*
X8754081Y-15081027D02*
X8725509Y-15081027D01*
X8906462Y-15081027D02*
X8887414Y-15071503D01*
X8887414Y-15071503D02*
X8877890Y-15052456D01*
X8877890Y-15052456D02*
X8877890Y-14881027D01*
X9058843Y-15071503D02*
X9039795Y-15081027D01*
X9039795Y-15081027D02*
X9001700Y-15081027D01*
X9001700Y-15081027D02*
X8982652Y-15071503D01*
X8982652Y-15071503D02*
X8973128Y-15052456D01*
X8973128Y-15052456D02*
X8973128Y-14976265D01*
X8973128Y-14976265D02*
X8982652Y-14957217D01*
X8982652Y-14957217D02*
X9001700Y-14947694D01*
X9001700Y-14947694D02*
X9039795Y-14947694D01*
X9039795Y-14947694D02*
X9058843Y-14957217D01*
X9058843Y-14957217D02*
X9068367Y-14976265D01*
X9068367Y-14976265D02*
X9068367Y-14995313D01*
X9068367Y-14995313D02*
X8973128Y-15014360D01*
X9144557Y-15071503D02*
X9163605Y-15081027D01*
X9163605Y-15081027D02*
X9201700Y-15081027D01*
X9201700Y-15081027D02*
X9220748Y-15071503D01*
X9220748Y-15071503D02*
X9230271Y-15052456D01*
X9230271Y-15052456D02*
X9230271Y-15042932D01*
X9230271Y-15042932D02*
X9220748Y-15023884D01*
X9220748Y-15023884D02*
X9201700Y-15014360D01*
X9201700Y-15014360D02*
X9173128Y-15014360D01*
X9173128Y-15014360D02*
X9154081Y-15004837D01*
X9154081Y-15004837D02*
X9144557Y-14985789D01*
X9144557Y-14985789D02*
X9144557Y-14976265D01*
X9144557Y-14976265D02*
X9154081Y-14957217D01*
X9154081Y-14957217D02*
X9173128Y-14947694D01*
X9173128Y-14947694D02*
X9201700Y-14947694D01*
X9201700Y-14947694D02*
X9220748Y-14957217D01*
X9468367Y-15004837D02*
X9620748Y-15004837D01*
X9544557Y-15081027D02*
X9544557Y-14928646D01*
X9849319Y-14881027D02*
X9973129Y-14881027D01*
X9973129Y-14881027D02*
X9906462Y-14957217D01*
X9906462Y-14957217D02*
X9935033Y-14957217D01*
X9935033Y-14957217D02*
X9954081Y-14966741D01*
X9954081Y-14966741D02*
X9963605Y-14976265D01*
X9963605Y-14976265D02*
X9973129Y-14995313D01*
X9973129Y-14995313D02*
X9973129Y-15042932D01*
X9973129Y-15042932D02*
X9963605Y-15061979D01*
X9963605Y-15061979D02*
X9954081Y-15071503D01*
X9954081Y-15071503D02*
X9935033Y-15081027D01*
X9935033Y-15081027D02*
X9877890Y-15081027D01*
X9877890Y-15081027D02*
X9858843Y-15071503D01*
X9858843Y-15071503D02*
X9849319Y-15061979D01*
X10163605Y-15081027D02*
X10049319Y-15081027D01*
X10106462Y-15081027D02*
X10106462Y-14881027D01*
X10106462Y-14881027D02*
X10087414Y-14909598D01*
X10087414Y-14909598D02*
X10068367Y-14928646D01*
X10068367Y-14928646D02*
X10049319Y-14938170D01*
X10392176Y-15071503D02*
X10411224Y-15081027D01*
X10411224Y-15081027D02*
X10449319Y-15081027D01*
X10449319Y-15081027D02*
X10468367Y-15071503D01*
X10468367Y-15071503D02*
X10477891Y-15052456D01*
X10477891Y-15052456D02*
X10477891Y-15042932D01*
X10477891Y-15042932D02*
X10468367Y-15023884D01*
X10468367Y-15023884D02*
X10449319Y-15014360D01*
X10449319Y-15014360D02*
X10420748Y-15014360D01*
X10420748Y-15014360D02*
X10401700Y-15004837D01*
X10401700Y-15004837D02*
X10392176Y-14985789D01*
X10392176Y-14985789D02*
X10392176Y-14976265D01*
X10392176Y-14976265D02*
X10401700Y-14957217D01*
X10401700Y-14957217D02*
X10420748Y-14947694D01*
X10420748Y-14947694D02*
X10449319Y-14947694D01*
X10449319Y-14947694D02*
X10468367Y-14957217D01*
X10592176Y-15081027D02*
X10573129Y-15071503D01*
X10573129Y-15071503D02*
X10563605Y-15052456D01*
X10563605Y-15052456D02*
X10563605Y-14881027D01*
X10696938Y-15081027D02*
X10677891Y-15071503D01*
X10677891Y-15071503D02*
X10668367Y-15061979D01*
X10668367Y-15061979D02*
X10658843Y-15042932D01*
X10658843Y-15042932D02*
X10658843Y-14985789D01*
X10658843Y-14985789D02*
X10668367Y-14966741D01*
X10668367Y-14966741D02*
X10677891Y-14957217D01*
X10677891Y-14957217D02*
X10696938Y-14947694D01*
X10696938Y-14947694D02*
X10725510Y-14947694D01*
X10725510Y-14947694D02*
X10744557Y-14957217D01*
X10744557Y-14957217D02*
X10754081Y-14966741D01*
X10754081Y-14966741D02*
X10763605Y-14985789D01*
X10763605Y-14985789D02*
X10763605Y-15042932D01*
X10763605Y-15042932D02*
X10754081Y-15061979D01*
X10754081Y-15061979D02*
X10744557Y-15071503D01*
X10744557Y-15071503D02*
X10725510Y-15081027D01*
X10725510Y-15081027D02*
X10696938Y-15081027D01*
X10820748Y-14947694D02*
X10896938Y-14947694D01*
X10849319Y-14881027D02*
X10849319Y-15052456D01*
X10849319Y-15052456D02*
X10858843Y-15071503D01*
X10858843Y-15071503D02*
X10877891Y-15081027D01*
X10877891Y-15081027D02*
X10896938Y-15081027D01*
X10954081Y-15071503D02*
X10973129Y-15081027D01*
X10973129Y-15081027D02*
X11011224Y-15081027D01*
X11011224Y-15081027D02*
X11030272Y-15071503D01*
X11030272Y-15071503D02*
X11039795Y-15052456D01*
X11039795Y-15052456D02*
X11039795Y-15042932D01*
X11039795Y-15042932D02*
X11030272Y-15023884D01*
X11030272Y-15023884D02*
X11011224Y-15014360D01*
X11011224Y-15014360D02*
X10982652Y-15014360D01*
X10982652Y-15014360D02*
X10963605Y-15004837D01*
X10963605Y-15004837D02*
X10954081Y-14985789D01*
X10954081Y-14985789D02*
X10954081Y-14976265D01*
X10954081Y-14976265D02*
X10963605Y-14957217D01*
X10963605Y-14957217D02*
X10982652Y-14947694D01*
X10982652Y-14947694D02*
X11011224Y-14947694D01*
X11011224Y-14947694D02*
X11030272Y-14957217D01*
X11106462Y-15157217D02*
X11115986Y-15147694D01*
X11115986Y-15147694D02*
X11135033Y-15119122D01*
X11135033Y-15119122D02*
X11144557Y-15100075D01*
X11144557Y-15100075D02*
X11154081Y-15071503D01*
X11154081Y-15071503D02*
X11163605Y-15023884D01*
X11163605Y-15023884D02*
X11163605Y-14985789D01*
X11163605Y-14985789D02*
X11154081Y-14938170D01*
X11154081Y-14938170D02*
X11144557Y-14909598D01*
X11144557Y-14909598D02*
X11135033Y-14890551D01*
X11135033Y-14890551D02*
X11115986Y-14861979D01*
X11115986Y-14861979D02*
X11106462Y-14852456D01*
X11468367Y-15157217D02*
X11458843Y-15147694D01*
X11458843Y-15147694D02*
X11439795Y-15119122D01*
X11439795Y-15119122D02*
X11430271Y-15100075D01*
X11430271Y-15100075D02*
X11420748Y-15071503D01*
X11420748Y-15071503D02*
X11411224Y-15023884D01*
X11411224Y-15023884D02*
X11411224Y-14985789D01*
X11411224Y-14985789D02*
X11420748Y-14938170D01*
X11420748Y-14938170D02*
X11430271Y-14909598D01*
X11430271Y-14909598D02*
X11439795Y-14890551D01*
X11439795Y-14890551D02*
X11458843Y-14861979D01*
X11458843Y-14861979D02*
X11468367Y-14852456D01*
X11544557Y-14947694D02*
X11544557Y-15081027D01*
X11544557Y-14966741D02*
X11554081Y-14957217D01*
X11554081Y-14957217D02*
X11573129Y-14947694D01*
X11573129Y-14947694D02*
X11601700Y-14947694D01*
X11601700Y-14947694D02*
X11620748Y-14957217D01*
X11620748Y-14957217D02*
X11630271Y-14976265D01*
X11630271Y-14976265D02*
X11630271Y-15081027D01*
X11754081Y-15081027D02*
X11735033Y-15071503D01*
X11735033Y-15071503D02*
X11725510Y-15061979D01*
X11725510Y-15061979D02*
X11715986Y-15042932D01*
X11715986Y-15042932D02*
X11715986Y-14985789D01*
X11715986Y-14985789D02*
X11725510Y-14966741D01*
X11725510Y-14966741D02*
X11735033Y-14957217D01*
X11735033Y-14957217D02*
X11754081Y-14947694D01*
X11754081Y-14947694D02*
X11782652Y-14947694D01*
X11782652Y-14947694D02*
X11801700Y-14957217D01*
X11801700Y-14957217D02*
X11811224Y-14966741D01*
X11811224Y-14966741D02*
X11820748Y-14985789D01*
X11820748Y-14985789D02*
X11820748Y-15042932D01*
X11820748Y-15042932D02*
X11811224Y-15061979D01*
X11811224Y-15061979D02*
X11801700Y-15071503D01*
X11801700Y-15071503D02*
X11782652Y-15081027D01*
X11782652Y-15081027D02*
X11754081Y-15081027D01*
X11877891Y-14947694D02*
X11954081Y-14947694D01*
X11906462Y-14881027D02*
X11906462Y-15052456D01*
X11906462Y-15052456D02*
X11915986Y-15071503D01*
X11915986Y-15071503D02*
X11935033Y-15081027D01*
X11935033Y-15081027D02*
X11954081Y-15081027D01*
X12173129Y-14947694D02*
X12173129Y-15147694D01*
X12173129Y-14957217D02*
X12192176Y-14947694D01*
X12192176Y-14947694D02*
X12230272Y-14947694D01*
X12230272Y-14947694D02*
X12249319Y-14957217D01*
X12249319Y-14957217D02*
X12258843Y-14966741D01*
X12258843Y-14966741D02*
X12268367Y-14985789D01*
X12268367Y-14985789D02*
X12268367Y-15042932D01*
X12268367Y-15042932D02*
X12258843Y-15061979D01*
X12258843Y-15061979D02*
X12249319Y-15071503D01*
X12249319Y-15071503D02*
X12230272Y-15081027D01*
X12230272Y-15081027D02*
X12192176Y-15081027D01*
X12192176Y-15081027D02*
X12173129Y-15071503D01*
X12382652Y-15081027D02*
X12363605Y-15071503D01*
X12363605Y-15071503D02*
X12354081Y-15052456D01*
X12354081Y-15052456D02*
X12354081Y-14881027D01*
X12544557Y-15081027D02*
X12544557Y-14976265D01*
X12544557Y-14976265D02*
X12535033Y-14957217D01*
X12535033Y-14957217D02*
X12515986Y-14947694D01*
X12515986Y-14947694D02*
X12477891Y-14947694D01*
X12477891Y-14947694D02*
X12458843Y-14957217D01*
X12544557Y-15071503D02*
X12525510Y-15081027D01*
X12525510Y-15081027D02*
X12477891Y-15081027D01*
X12477891Y-15081027D02*
X12458843Y-15071503D01*
X12458843Y-15071503D02*
X12449319Y-15052456D01*
X12449319Y-15052456D02*
X12449319Y-15033408D01*
X12449319Y-15033408D02*
X12458843Y-15014360D01*
X12458843Y-15014360D02*
X12477891Y-15004837D01*
X12477891Y-15004837D02*
X12525510Y-15004837D01*
X12525510Y-15004837D02*
X12544557Y-14995313D01*
X12611224Y-14947694D02*
X12687414Y-14947694D01*
X12639795Y-14881027D02*
X12639795Y-15052456D01*
X12639795Y-15052456D02*
X12649319Y-15071503D01*
X12649319Y-15071503D02*
X12668367Y-15081027D01*
X12668367Y-15081027D02*
X12687414Y-15081027D01*
X12830272Y-15071503D02*
X12811224Y-15081027D01*
X12811224Y-15081027D02*
X12773129Y-15081027D01*
X12773129Y-15081027D02*
X12754081Y-15071503D01*
X12754081Y-15071503D02*
X12744557Y-15052456D01*
X12744557Y-15052456D02*
X12744557Y-14976265D01*
X12744557Y-14976265D02*
X12754081Y-14957217D01*
X12754081Y-14957217D02*
X12773129Y-14947694D01*
X12773129Y-14947694D02*
X12811224Y-14947694D01*
X12811224Y-14947694D02*
X12830272Y-14957217D01*
X12830272Y-14957217D02*
X12839795Y-14976265D01*
X12839795Y-14976265D02*
X12839795Y-14995313D01*
X12839795Y-14995313D02*
X12744557Y-15014360D01*
X13011224Y-15081027D02*
X13011224Y-14881027D01*
X13011224Y-15071503D02*
X12992176Y-15081027D01*
X12992176Y-15081027D02*
X12954081Y-15081027D01*
X12954081Y-15081027D02*
X12935033Y-15071503D01*
X12935033Y-15071503D02*
X12925510Y-15061979D01*
X12925510Y-15061979D02*
X12915986Y-15042932D01*
X12915986Y-15042932D02*
X12915986Y-14985789D01*
X12915986Y-14985789D02*
X12925510Y-14966741D01*
X12925510Y-14966741D02*
X12935033Y-14957217D01*
X12935033Y-14957217D02*
X12954081Y-14947694D01*
X12954081Y-14947694D02*
X12992176Y-14947694D01*
X12992176Y-14947694D02*
X13011224Y-14957217D01*
X13087414Y-15157217D02*
X13096938Y-15147694D01*
X13096938Y-15147694D02*
X13115986Y-15119122D01*
X13115986Y-15119122D02*
X13125510Y-15100075D01*
X13125510Y-15100075D02*
X13135033Y-15071503D01*
X13135033Y-15071503D02*
X13144557Y-15023884D01*
X13144557Y-15023884D02*
X13144557Y-14985789D01*
X13144557Y-14985789D02*
X13135033Y-14938170D01*
X13135033Y-14938170D02*
X13125510Y-14909598D01*
X13125510Y-14909598D02*
X13115986Y-14890551D01*
X13115986Y-14890551D02*
X13096938Y-14861979D01*
X13096938Y-14861979D02*
X13087414Y-14852456D01*
X4521875Y-15259543D02*
G75*
G02*
X4321875Y-15259543I-100000J0D01*
G01*
X4321875Y-15259543D02*
G75*
G02*
X4521875Y-15259543I100000J0D01*
G01*
X4763604Y-15151027D02*
X4887414Y-15151027D01*
X4887414Y-15151027D02*
X4820747Y-15227217D01*
X4820747Y-15227217D02*
X4849319Y-15227217D01*
X4849319Y-15227217D02*
X4868366Y-15236741D01*
X4868366Y-15236741D02*
X4877890Y-15246265D01*
X4877890Y-15246265D02*
X4887414Y-15265313D01*
X4887414Y-15265313D02*
X4887414Y-15312932D01*
X4887414Y-15312932D02*
X4877890Y-15331979D01*
X4877890Y-15331979D02*
X4868366Y-15341503D01*
X4868366Y-15341503D02*
X4849319Y-15351027D01*
X4849319Y-15351027D02*
X4792176Y-15351027D01*
X4792176Y-15351027D02*
X4773128Y-15341503D01*
X4773128Y-15341503D02*
X4763604Y-15331979D01*
X4973128Y-15331979D02*
X4982652Y-15341503D01*
X4982652Y-15341503D02*
X4973128Y-15351027D01*
X4973128Y-15351027D02*
X4963604Y-15341503D01*
X4963604Y-15341503D02*
X4973128Y-15331979D01*
X4973128Y-15331979D02*
X4973128Y-15351027D01*
X5106461Y-15151027D02*
X5125509Y-15151027D01*
X5125509Y-15151027D02*
X5144557Y-15160551D01*
X5144557Y-15160551D02*
X5154080Y-15170075D01*
X5154080Y-15170075D02*
X5163604Y-15189122D01*
X5163604Y-15189122D02*
X5173128Y-15227217D01*
X5173128Y-15227217D02*
X5173128Y-15274837D01*
X5173128Y-15274837D02*
X5163604Y-15312932D01*
X5163604Y-15312932D02*
X5154080Y-15331979D01*
X5154080Y-15331979D02*
X5144557Y-15341503D01*
X5144557Y-15341503D02*
X5125509Y-15351027D01*
X5125509Y-15351027D02*
X5106461Y-15351027D01*
X5106461Y-15351027D02*
X5087414Y-15341503D01*
X5087414Y-15341503D02*
X5077890Y-15331979D01*
X5077890Y-15331979D02*
X5068366Y-15312932D01*
X5068366Y-15312932D02*
X5058842Y-15274837D01*
X5058842Y-15274837D02*
X5058842Y-15227217D01*
X5058842Y-15227217D02*
X5068366Y-15189122D01*
X5068366Y-15189122D02*
X5077890Y-15170075D01*
X5077890Y-15170075D02*
X5087414Y-15160551D01*
X5087414Y-15160551D02*
X5106461Y-15151027D01*
X5296938Y-15151027D02*
X5315985Y-15151027D01*
X5315985Y-15151027D02*
X5335033Y-15160551D01*
X5335033Y-15160551D02*
X5344557Y-15170075D01*
X5344557Y-15170075D02*
X5354080Y-15189122D01*
X5354080Y-15189122D02*
X5363604Y-15227217D01*
X5363604Y-15227217D02*
X5363604Y-15274837D01*
X5363604Y-15274837D02*
X5354080Y-15312932D01*
X5354080Y-15312932D02*
X5344557Y-15331979D01*
X5344557Y-15331979D02*
X5335033Y-15341503D01*
X5335033Y-15341503D02*
X5315985Y-15351027D01*
X5315985Y-15351027D02*
X5296938Y-15351027D01*
X5296938Y-15351027D02*
X5277890Y-15341503D01*
X5277890Y-15341503D02*
X5268366Y-15331979D01*
X5268366Y-15331979D02*
X5258842Y-15312932D01*
X5258842Y-15312932D02*
X5249319Y-15274837D01*
X5249319Y-15274837D02*
X5249319Y-15227217D01*
X5249319Y-15227217D02*
X5258842Y-15189122D01*
X5258842Y-15189122D02*
X5268366Y-15170075D01*
X5268366Y-15170075D02*
X5277890Y-15160551D01*
X5277890Y-15160551D02*
X5296938Y-15151027D01*
X5487414Y-15151027D02*
X5506461Y-15151027D01*
X5506461Y-15151027D02*
X5525509Y-15160551D01*
X5525509Y-15160551D02*
X5535033Y-15170075D01*
X5535033Y-15170075D02*
X5544557Y-15189122D01*
X5544557Y-15189122D02*
X5554080Y-15227217D01*
X5554080Y-15227217D02*
X5554080Y-15274837D01*
X5554080Y-15274837D02*
X5544557Y-15312932D01*
X5544557Y-15312932D02*
X5535033Y-15331979D01*
X5535033Y-15331979D02*
X5525509Y-15341503D01*
X5525509Y-15341503D02*
X5506461Y-15351027D01*
X5506461Y-15351027D02*
X5487414Y-15351027D01*
X5487414Y-15351027D02*
X5468366Y-15341503D01*
X5468366Y-15341503D02*
X5458842Y-15331979D01*
X5458842Y-15331979D02*
X5449319Y-15312932D01*
X5449319Y-15312932D02*
X5439795Y-15274837D01*
X5439795Y-15274837D02*
X5439795Y-15227217D01*
X5439795Y-15227217D02*
X5449319Y-15189122D01*
X5449319Y-15189122D02*
X5458842Y-15170075D01*
X5458842Y-15170075D02*
X5468366Y-15160551D01*
X5468366Y-15160551D02*
X5487414Y-15151027D01*
X5639795Y-15351027D02*
X5639795Y-15217694D01*
X5639795Y-15236741D02*
X5649318Y-15227217D01*
X5649318Y-15227217D02*
X5668366Y-15217694D01*
X5668366Y-15217694D02*
X5696938Y-15217694D01*
X5696938Y-15217694D02*
X5715985Y-15227217D01*
X5715985Y-15227217D02*
X5725509Y-15246265D01*
X5725509Y-15246265D02*
X5725509Y-15351027D01*
X5725509Y-15246265D02*
X5735033Y-15227217D01*
X5735033Y-15227217D02*
X5754080Y-15217694D01*
X5754080Y-15217694D02*
X5782652Y-15217694D01*
X5782652Y-15217694D02*
X5801699Y-15227217D01*
X5801699Y-15227217D02*
X5811223Y-15246265D01*
X5811223Y-15246265D02*
X5811223Y-15351027D01*
X5906461Y-15351027D02*
X5906461Y-15217694D01*
X5906461Y-15236741D02*
X5915985Y-15227217D01*
X5915985Y-15227217D02*
X5935033Y-15217694D01*
X5935033Y-15217694D02*
X5963604Y-15217694D01*
X5963604Y-15217694D02*
X5982652Y-15227217D01*
X5982652Y-15227217D02*
X5992176Y-15246265D01*
X5992176Y-15246265D02*
X5992176Y-15351027D01*
X5992176Y-15246265D02*
X6001699Y-15227217D01*
X6001699Y-15227217D02*
X6020747Y-15217694D01*
X6020747Y-15217694D02*
X6049318Y-15217694D01*
X6049318Y-15217694D02*
X6068366Y-15227217D01*
X6068366Y-15227217D02*
X6077890Y-15246265D01*
X6077890Y-15246265D02*
X6077890Y-15351027D01*
X6468366Y-15141503D02*
X6296938Y-15398646D01*
X6725509Y-15151027D02*
X6744557Y-15151027D01*
X6744557Y-15151027D02*
X6763604Y-15160551D01*
X6763604Y-15160551D02*
X6773128Y-15170075D01*
X6773128Y-15170075D02*
X6782652Y-15189122D01*
X6782652Y-15189122D02*
X6792176Y-15227217D01*
X6792176Y-15227217D02*
X6792176Y-15274837D01*
X6792176Y-15274837D02*
X6782652Y-15312932D01*
X6782652Y-15312932D02*
X6773128Y-15331979D01*
X6773128Y-15331979D02*
X6763604Y-15341503D01*
X6763604Y-15341503D02*
X6744557Y-15351027D01*
X6744557Y-15351027D02*
X6725509Y-15351027D01*
X6725509Y-15351027D02*
X6706461Y-15341503D01*
X6706461Y-15341503D02*
X6696938Y-15331979D01*
X6696938Y-15331979D02*
X6687414Y-15312932D01*
X6687414Y-15312932D02*
X6677890Y-15274837D01*
X6677890Y-15274837D02*
X6677890Y-15227217D01*
X6677890Y-15227217D02*
X6687414Y-15189122D01*
X6687414Y-15189122D02*
X6696938Y-15170075D01*
X6696938Y-15170075D02*
X6706461Y-15160551D01*
X6706461Y-15160551D02*
X6725509Y-15151027D01*
X6877890Y-15331979D02*
X6887414Y-15341503D01*
X6887414Y-15341503D02*
X6877890Y-15351027D01*
X6877890Y-15351027D02*
X6868366Y-15341503D01*
X6868366Y-15341503D02*
X6877890Y-15331979D01*
X6877890Y-15331979D02*
X6877890Y-15351027D01*
X7077890Y-15351027D02*
X6963604Y-15351027D01*
X7020747Y-15351027D02*
X7020747Y-15151027D01*
X7020747Y-15151027D02*
X7001700Y-15179598D01*
X7001700Y-15179598D02*
X6982652Y-15198646D01*
X6982652Y-15198646D02*
X6963604Y-15208170D01*
X7268366Y-15351027D02*
X7154081Y-15351027D01*
X7211223Y-15351027D02*
X7211223Y-15151027D01*
X7211223Y-15151027D02*
X7192176Y-15179598D01*
X7192176Y-15179598D02*
X7173128Y-15198646D01*
X7173128Y-15198646D02*
X7154081Y-15208170D01*
X7382652Y-15236741D02*
X7363604Y-15227217D01*
X7363604Y-15227217D02*
X7354081Y-15217694D01*
X7354081Y-15217694D02*
X7344557Y-15198646D01*
X7344557Y-15198646D02*
X7344557Y-15189122D01*
X7344557Y-15189122D02*
X7354081Y-15170075D01*
X7354081Y-15170075D02*
X7363604Y-15160551D01*
X7363604Y-15160551D02*
X7382652Y-15151027D01*
X7382652Y-15151027D02*
X7420747Y-15151027D01*
X7420747Y-15151027D02*
X7439795Y-15160551D01*
X7439795Y-15160551D02*
X7449319Y-15170075D01*
X7449319Y-15170075D02*
X7458842Y-15189122D01*
X7458842Y-15189122D02*
X7458842Y-15198646D01*
X7458842Y-15198646D02*
X7449319Y-15217694D01*
X7449319Y-15217694D02*
X7439795Y-15227217D01*
X7439795Y-15227217D02*
X7420747Y-15236741D01*
X7420747Y-15236741D02*
X7382652Y-15236741D01*
X7382652Y-15236741D02*
X7363604Y-15246265D01*
X7363604Y-15246265D02*
X7354081Y-15255789D01*
X7354081Y-15255789D02*
X7344557Y-15274837D01*
X7344557Y-15274837D02*
X7344557Y-15312932D01*
X7344557Y-15312932D02*
X7354081Y-15331979D01*
X7354081Y-15331979D02*
X7363604Y-15341503D01*
X7363604Y-15341503D02*
X7382652Y-15351027D01*
X7382652Y-15351027D02*
X7420747Y-15351027D01*
X7420747Y-15351027D02*
X7439795Y-15341503D01*
X7439795Y-15341503D02*
X7449319Y-15331979D01*
X7449319Y-15331979D02*
X7458842Y-15312932D01*
X7458842Y-15312932D02*
X7458842Y-15274837D01*
X7458842Y-15274837D02*
X7449319Y-15255789D01*
X7449319Y-15255789D02*
X7439795Y-15246265D01*
X7439795Y-15246265D02*
X7420747Y-15236741D01*
X7649319Y-15351027D02*
X7535033Y-15351027D01*
X7592176Y-15351027D02*
X7592176Y-15151027D01*
X7592176Y-15151027D02*
X7573128Y-15179598D01*
X7573128Y-15179598D02*
X7554081Y-15198646D01*
X7554081Y-15198646D02*
X7535033Y-15208170D01*
X7725509Y-15151027D02*
X7725509Y-15189122D01*
X7801700Y-15151027D02*
X7801700Y-15189122D01*
X8096938Y-15427217D02*
X8087414Y-15417694D01*
X8087414Y-15417694D02*
X8068366Y-15389122D01*
X8068366Y-15389122D02*
X8058843Y-15370075D01*
X8058843Y-15370075D02*
X8049319Y-15341503D01*
X8049319Y-15341503D02*
X8039795Y-15293884D01*
X8039795Y-15293884D02*
X8039795Y-15255789D01*
X8039795Y-15255789D02*
X8049319Y-15208170D01*
X8049319Y-15208170D02*
X8058843Y-15179598D01*
X8058843Y-15179598D02*
X8068366Y-15160551D01*
X8068366Y-15160551D02*
X8087414Y-15131979D01*
X8087414Y-15131979D02*
X8096938Y-15122456D01*
X8258843Y-15151027D02*
X8220747Y-15151027D01*
X8220747Y-15151027D02*
X8201700Y-15160551D01*
X8201700Y-15160551D02*
X8192176Y-15170075D01*
X8192176Y-15170075D02*
X8173128Y-15198646D01*
X8173128Y-15198646D02*
X8163604Y-15236741D01*
X8163604Y-15236741D02*
X8163604Y-15312932D01*
X8163604Y-15312932D02*
X8173128Y-15331979D01*
X8173128Y-15331979D02*
X8182652Y-15341503D01*
X8182652Y-15341503D02*
X8201700Y-15351027D01*
X8201700Y-15351027D02*
X8239795Y-15351027D01*
X8239795Y-15351027D02*
X8258843Y-15341503D01*
X8258843Y-15341503D02*
X8268366Y-15331979D01*
X8268366Y-15331979D02*
X8277890Y-15312932D01*
X8277890Y-15312932D02*
X8277890Y-15265313D01*
X8277890Y-15265313D02*
X8268366Y-15246265D01*
X8268366Y-15246265D02*
X8258843Y-15236741D01*
X8258843Y-15236741D02*
X8239795Y-15227217D01*
X8239795Y-15227217D02*
X8201700Y-15227217D01*
X8201700Y-15227217D02*
X8182652Y-15236741D01*
X8182652Y-15236741D02*
X8173128Y-15246265D01*
X8173128Y-15246265D02*
X8163604Y-15265313D01*
X8354081Y-15170075D02*
X8363604Y-15160551D01*
X8363604Y-15160551D02*
X8382652Y-15151027D01*
X8382652Y-15151027D02*
X8430271Y-15151027D01*
X8430271Y-15151027D02*
X8449319Y-15160551D01*
X8449319Y-15160551D02*
X8458843Y-15170075D01*
X8458843Y-15170075D02*
X8468366Y-15189122D01*
X8468366Y-15189122D02*
X8468366Y-15208170D01*
X8468366Y-15208170D02*
X8458843Y-15236741D01*
X8458843Y-15236741D02*
X8344557Y-15351027D01*
X8344557Y-15351027D02*
X8468366Y-15351027D01*
X8706462Y-15351027D02*
X8706462Y-15151027D01*
X8792176Y-15351027D02*
X8792176Y-15246265D01*
X8792176Y-15246265D02*
X8782652Y-15227217D01*
X8782652Y-15227217D02*
X8763605Y-15217694D01*
X8763605Y-15217694D02*
X8735033Y-15217694D01*
X8735033Y-15217694D02*
X8715986Y-15227217D01*
X8715986Y-15227217D02*
X8706462Y-15236741D01*
X8915986Y-15351027D02*
X8896938Y-15341503D01*
X8896938Y-15341503D02*
X8887414Y-15331979D01*
X8887414Y-15331979D02*
X8877890Y-15312932D01*
X8877890Y-15312932D02*
X8877890Y-15255789D01*
X8877890Y-15255789D02*
X8887414Y-15236741D01*
X8887414Y-15236741D02*
X8896938Y-15227217D01*
X8896938Y-15227217D02*
X8915986Y-15217694D01*
X8915986Y-15217694D02*
X8944557Y-15217694D01*
X8944557Y-15217694D02*
X8963605Y-15227217D01*
X8963605Y-15227217D02*
X8973128Y-15236741D01*
X8973128Y-15236741D02*
X8982652Y-15255789D01*
X8982652Y-15255789D02*
X8982652Y-15312932D01*
X8982652Y-15312932D02*
X8973128Y-15331979D01*
X8973128Y-15331979D02*
X8963605Y-15341503D01*
X8963605Y-15341503D02*
X8944557Y-15351027D01*
X8944557Y-15351027D02*
X8915986Y-15351027D01*
X9096938Y-15351027D02*
X9077890Y-15341503D01*
X9077890Y-15341503D02*
X9068367Y-15322456D01*
X9068367Y-15322456D02*
X9068367Y-15151027D01*
X9249319Y-15341503D02*
X9230271Y-15351027D01*
X9230271Y-15351027D02*
X9192176Y-15351027D01*
X9192176Y-15351027D02*
X9173128Y-15341503D01*
X9173128Y-15341503D02*
X9163605Y-15322456D01*
X9163605Y-15322456D02*
X9163605Y-15246265D01*
X9163605Y-15246265D02*
X9173128Y-15227217D01*
X9173128Y-15227217D02*
X9192176Y-15217694D01*
X9192176Y-15217694D02*
X9230271Y-15217694D01*
X9230271Y-15217694D02*
X9249319Y-15227217D01*
X9249319Y-15227217D02*
X9258843Y-15246265D01*
X9258843Y-15246265D02*
X9258843Y-15265313D01*
X9258843Y-15265313D02*
X9163605Y-15284360D01*
X9335033Y-15341503D02*
X9354081Y-15351027D01*
X9354081Y-15351027D02*
X9392176Y-15351027D01*
X9392176Y-15351027D02*
X9411224Y-15341503D01*
X9411224Y-15341503D02*
X9420748Y-15322456D01*
X9420748Y-15322456D02*
X9420748Y-15312932D01*
X9420748Y-15312932D02*
X9411224Y-15293884D01*
X9411224Y-15293884D02*
X9392176Y-15284360D01*
X9392176Y-15284360D02*
X9363605Y-15284360D01*
X9363605Y-15284360D02*
X9344557Y-15274837D01*
X9344557Y-15274837D02*
X9335033Y-15255789D01*
X9335033Y-15255789D02*
X9335033Y-15246265D01*
X9335033Y-15246265D02*
X9344557Y-15227217D01*
X9344557Y-15227217D02*
X9363605Y-15217694D01*
X9363605Y-15217694D02*
X9392176Y-15217694D01*
X9392176Y-15217694D02*
X9411224Y-15227217D01*
X9487414Y-15427217D02*
X9496938Y-15417694D01*
X9496938Y-15417694D02*
X9515986Y-15389122D01*
X9515986Y-15389122D02*
X9525509Y-15370075D01*
X9525509Y-15370075D02*
X9535033Y-15341503D01*
X9535033Y-15341503D02*
X9544557Y-15293884D01*
X9544557Y-15293884D02*
X9544557Y-15255789D01*
X9544557Y-15255789D02*
X9535033Y-15208170D01*
X9535033Y-15208170D02*
X9525509Y-15179598D01*
X9525509Y-15179598D02*
X9515986Y-15160551D01*
X9515986Y-15160551D02*
X9496938Y-15131979D01*
X9496938Y-15131979D02*
X9487414Y-15122456D01*
X9849319Y-15427217D02*
X9839795Y-15417694D01*
X9839795Y-15417694D02*
X9820748Y-15389122D01*
X9820748Y-15389122D02*
X9811224Y-15370075D01*
X9811224Y-15370075D02*
X9801700Y-15341503D01*
X9801700Y-15341503D02*
X9792176Y-15293884D01*
X9792176Y-15293884D02*
X9792176Y-15255789D01*
X9792176Y-15255789D02*
X9801700Y-15208170D01*
X9801700Y-15208170D02*
X9811224Y-15179598D01*
X9811224Y-15179598D02*
X9820748Y-15160551D01*
X9820748Y-15160551D02*
X9839795Y-15131979D01*
X9839795Y-15131979D02*
X9849319Y-15122456D01*
X9925509Y-15217694D02*
X9925509Y-15351027D01*
X9925509Y-15236741D02*
X9935033Y-15227217D01*
X9935033Y-15227217D02*
X9954081Y-15217694D01*
X9954081Y-15217694D02*
X9982652Y-15217694D01*
X9982652Y-15217694D02*
X10001700Y-15227217D01*
X10001700Y-15227217D02*
X10011224Y-15246265D01*
X10011224Y-15246265D02*
X10011224Y-15351027D01*
X10135033Y-15351027D02*
X10115986Y-15341503D01*
X10115986Y-15341503D02*
X10106462Y-15331979D01*
X10106462Y-15331979D02*
X10096938Y-15312932D01*
X10096938Y-15312932D02*
X10096938Y-15255789D01*
X10096938Y-15255789D02*
X10106462Y-15236741D01*
X10106462Y-15236741D02*
X10115986Y-15227217D01*
X10115986Y-15227217D02*
X10135033Y-15217694D01*
X10135033Y-15217694D02*
X10163605Y-15217694D01*
X10163605Y-15217694D02*
X10182652Y-15227217D01*
X10182652Y-15227217D02*
X10192176Y-15236741D01*
X10192176Y-15236741D02*
X10201700Y-15255789D01*
X10201700Y-15255789D02*
X10201700Y-15312932D01*
X10201700Y-15312932D02*
X10192176Y-15331979D01*
X10192176Y-15331979D02*
X10182652Y-15341503D01*
X10182652Y-15341503D02*
X10163605Y-15351027D01*
X10163605Y-15351027D02*
X10135033Y-15351027D01*
X10258843Y-15217694D02*
X10335033Y-15217694D01*
X10287414Y-15151027D02*
X10287414Y-15322456D01*
X10287414Y-15322456D02*
X10296938Y-15341503D01*
X10296938Y-15341503D02*
X10315986Y-15351027D01*
X10315986Y-15351027D02*
X10335033Y-15351027D01*
X10554081Y-15217694D02*
X10554081Y-15417694D01*
X10554081Y-15227217D02*
X10573129Y-15217694D01*
X10573129Y-15217694D02*
X10611224Y-15217694D01*
X10611224Y-15217694D02*
X10630271Y-15227217D01*
X10630271Y-15227217D02*
X10639795Y-15236741D01*
X10639795Y-15236741D02*
X10649319Y-15255789D01*
X10649319Y-15255789D02*
X10649319Y-15312932D01*
X10649319Y-15312932D02*
X10639795Y-15331979D01*
X10639795Y-15331979D02*
X10630271Y-15341503D01*
X10630271Y-15341503D02*
X10611224Y-15351027D01*
X10611224Y-15351027D02*
X10573129Y-15351027D01*
X10573129Y-15351027D02*
X10554081Y-15341503D01*
X10763605Y-15351027D02*
X10744557Y-15341503D01*
X10744557Y-15341503D02*
X10735033Y-15322456D01*
X10735033Y-15322456D02*
X10735033Y-15151027D01*
X10925510Y-15351027D02*
X10925510Y-15246265D01*
X10925510Y-15246265D02*
X10915986Y-15227217D01*
X10915986Y-15227217D02*
X10896938Y-15217694D01*
X10896938Y-15217694D02*
X10858843Y-15217694D01*
X10858843Y-15217694D02*
X10839795Y-15227217D01*
X10925510Y-15341503D02*
X10906462Y-15351027D01*
X10906462Y-15351027D02*
X10858843Y-15351027D01*
X10858843Y-15351027D02*
X10839795Y-15341503D01*
X10839795Y-15341503D02*
X10830271Y-15322456D01*
X10830271Y-15322456D02*
X10830271Y-15303408D01*
X10830271Y-15303408D02*
X10839795Y-15284360D01*
X10839795Y-15284360D02*
X10858843Y-15274837D01*
X10858843Y-15274837D02*
X10906462Y-15274837D01*
X10906462Y-15274837D02*
X10925510Y-15265313D01*
X10992176Y-15217694D02*
X11068367Y-15217694D01*
X11020748Y-15151027D02*
X11020748Y-15322456D01*
X11020748Y-15322456D02*
X11030271Y-15341503D01*
X11030271Y-15341503D02*
X11049319Y-15351027D01*
X11049319Y-15351027D02*
X11068367Y-15351027D01*
X11211224Y-15341503D02*
X11192176Y-15351027D01*
X11192176Y-15351027D02*
X11154081Y-15351027D01*
X11154081Y-15351027D02*
X11135033Y-15341503D01*
X11135033Y-15341503D02*
X11125510Y-15322456D01*
X11125510Y-15322456D02*
X11125510Y-15246265D01*
X11125510Y-15246265D02*
X11135033Y-15227217D01*
X11135033Y-15227217D02*
X11154081Y-15217694D01*
X11154081Y-15217694D02*
X11192176Y-15217694D01*
X11192176Y-15217694D02*
X11211224Y-15227217D01*
X11211224Y-15227217D02*
X11220748Y-15246265D01*
X11220748Y-15246265D02*
X11220748Y-15265313D01*
X11220748Y-15265313D02*
X11125510Y-15284360D01*
X11392176Y-15351027D02*
X11392176Y-15151027D01*
X11392176Y-15341503D02*
X11373129Y-15351027D01*
X11373129Y-15351027D02*
X11335033Y-15351027D01*
X11335033Y-15351027D02*
X11315986Y-15341503D01*
X11315986Y-15341503D02*
X11306462Y-15331979D01*
X11306462Y-15331979D02*
X11296938Y-15312932D01*
X11296938Y-15312932D02*
X11296938Y-15255789D01*
X11296938Y-15255789D02*
X11306462Y-15236741D01*
X11306462Y-15236741D02*
X11315986Y-15227217D01*
X11315986Y-15227217D02*
X11335033Y-15217694D01*
X11335033Y-15217694D02*
X11373129Y-15217694D01*
X11373129Y-15217694D02*
X11392176Y-15227217D01*
X11468367Y-15427217D02*
X11477890Y-15417694D01*
X11477890Y-15417694D02*
X11496938Y-15389122D01*
X11496938Y-15389122D02*
X11506462Y-15370075D01*
X11506462Y-15370075D02*
X11515986Y-15341503D01*
X11515986Y-15341503D02*
X11525509Y-15293884D01*
X11525509Y-15293884D02*
X11525509Y-15255789D01*
X11525509Y-15255789D02*
X11515986Y-15208170D01*
X11515986Y-15208170D02*
X11506462Y-15179598D01*
X11506462Y-15179598D02*
X11496938Y-15160551D01*
X11496938Y-15160551D02*
X11477890Y-15131979D01*
X11477890Y-15131979D02*
X11468367Y-15122456D01*
X4421875Y-15479543D02*
X4421875Y-15679543D01*
X4321875Y-15579543D02*
X4521875Y-15579543D01*
X4877890Y-15471027D02*
X4782652Y-15471027D01*
X4782652Y-15471027D02*
X4773128Y-15566265D01*
X4773128Y-15566265D02*
X4782652Y-15556741D01*
X4782652Y-15556741D02*
X4801699Y-15547217D01*
X4801699Y-15547217D02*
X4849319Y-15547217D01*
X4849319Y-15547217D02*
X4868366Y-15556741D01*
X4868366Y-15556741D02*
X4877890Y-15566265D01*
X4877890Y-15566265D02*
X4887414Y-15585313D01*
X4887414Y-15585313D02*
X4887414Y-15632932D01*
X4887414Y-15632932D02*
X4877890Y-15651979D01*
X4877890Y-15651979D02*
X4868366Y-15661503D01*
X4868366Y-15661503D02*
X4849319Y-15671027D01*
X4849319Y-15671027D02*
X4801699Y-15671027D01*
X4801699Y-15671027D02*
X4782652Y-15661503D01*
X4782652Y-15661503D02*
X4773128Y-15651979D01*
X4973128Y-15651979D02*
X4982652Y-15661503D01*
X4982652Y-15661503D02*
X4973128Y-15671027D01*
X4973128Y-15671027D02*
X4963604Y-15661503D01*
X4963604Y-15661503D02*
X4973128Y-15651979D01*
X4973128Y-15651979D02*
X4973128Y-15671027D01*
X5173128Y-15671027D02*
X5058842Y-15671027D01*
X5115985Y-15671027D02*
X5115985Y-15471027D01*
X5115985Y-15471027D02*
X5096938Y-15499598D01*
X5096938Y-15499598D02*
X5077890Y-15518646D01*
X5077890Y-15518646D02*
X5058842Y-15528170D01*
X5296938Y-15471027D02*
X5315985Y-15471027D01*
X5315985Y-15471027D02*
X5335033Y-15480551D01*
X5335033Y-15480551D02*
X5344557Y-15490075D01*
X5344557Y-15490075D02*
X5354080Y-15509122D01*
X5354080Y-15509122D02*
X5363604Y-15547217D01*
X5363604Y-15547217D02*
X5363604Y-15594837D01*
X5363604Y-15594837D02*
X5354080Y-15632932D01*
X5354080Y-15632932D02*
X5344557Y-15651979D01*
X5344557Y-15651979D02*
X5335033Y-15661503D01*
X5335033Y-15661503D02*
X5315985Y-15671027D01*
X5315985Y-15671027D02*
X5296938Y-15671027D01*
X5296938Y-15671027D02*
X5277890Y-15661503D01*
X5277890Y-15661503D02*
X5268366Y-15651979D01*
X5268366Y-15651979D02*
X5258842Y-15632932D01*
X5258842Y-15632932D02*
X5249319Y-15594837D01*
X5249319Y-15594837D02*
X5249319Y-15547217D01*
X5249319Y-15547217D02*
X5258842Y-15509122D01*
X5258842Y-15509122D02*
X5268366Y-15490075D01*
X5268366Y-15490075D02*
X5277890Y-15480551D01*
X5277890Y-15480551D02*
X5296938Y-15471027D01*
X5487414Y-15471027D02*
X5506461Y-15471027D01*
X5506461Y-15471027D02*
X5525509Y-15480551D01*
X5525509Y-15480551D02*
X5535033Y-15490075D01*
X5535033Y-15490075D02*
X5544557Y-15509122D01*
X5544557Y-15509122D02*
X5554080Y-15547217D01*
X5554080Y-15547217D02*
X5554080Y-15594837D01*
X5554080Y-15594837D02*
X5544557Y-15632932D01*
X5544557Y-15632932D02*
X5535033Y-15651979D01*
X5535033Y-15651979D02*
X5525509Y-15661503D01*
X5525509Y-15661503D02*
X5506461Y-15671027D01*
X5506461Y-15671027D02*
X5487414Y-15671027D01*
X5487414Y-15671027D02*
X5468366Y-15661503D01*
X5468366Y-15661503D02*
X5458842Y-15651979D01*
X5458842Y-15651979D02*
X5449319Y-15632932D01*
X5449319Y-15632932D02*
X5439795Y-15594837D01*
X5439795Y-15594837D02*
X5439795Y-15547217D01*
X5439795Y-15547217D02*
X5449319Y-15509122D01*
X5449319Y-15509122D02*
X5458842Y-15490075D01*
X5458842Y-15490075D02*
X5468366Y-15480551D01*
X5468366Y-15480551D02*
X5487414Y-15471027D01*
X5639795Y-15671027D02*
X5639795Y-15537694D01*
X5639795Y-15556741D02*
X5649318Y-15547217D01*
X5649318Y-15547217D02*
X5668366Y-15537694D01*
X5668366Y-15537694D02*
X5696938Y-15537694D01*
X5696938Y-15537694D02*
X5715985Y-15547217D01*
X5715985Y-15547217D02*
X5725509Y-15566265D01*
X5725509Y-15566265D02*
X5725509Y-15671027D01*
X5725509Y-15566265D02*
X5735033Y-15547217D01*
X5735033Y-15547217D02*
X5754080Y-15537694D01*
X5754080Y-15537694D02*
X5782652Y-15537694D01*
X5782652Y-15537694D02*
X5801699Y-15547217D01*
X5801699Y-15547217D02*
X5811223Y-15566265D01*
X5811223Y-15566265D02*
X5811223Y-15671027D01*
X5906461Y-15671027D02*
X5906461Y-15537694D01*
X5906461Y-15556741D02*
X5915985Y-15547217D01*
X5915985Y-15547217D02*
X5935033Y-15537694D01*
X5935033Y-15537694D02*
X5963604Y-15537694D01*
X5963604Y-15537694D02*
X5982652Y-15547217D01*
X5982652Y-15547217D02*
X5992176Y-15566265D01*
X5992176Y-15566265D02*
X5992176Y-15671027D01*
X5992176Y-15566265D02*
X6001699Y-15547217D01*
X6001699Y-15547217D02*
X6020747Y-15537694D01*
X6020747Y-15537694D02*
X6049318Y-15537694D01*
X6049318Y-15537694D02*
X6068366Y-15547217D01*
X6068366Y-15547217D02*
X6077890Y-15566265D01*
X6077890Y-15566265D02*
X6077890Y-15671027D01*
X6468366Y-15461503D02*
X6296938Y-15718646D01*
X6725509Y-15471027D02*
X6744557Y-15471027D01*
X6744557Y-15471027D02*
X6763604Y-15480551D01*
X6763604Y-15480551D02*
X6773128Y-15490075D01*
X6773128Y-15490075D02*
X6782652Y-15509122D01*
X6782652Y-15509122D02*
X6792176Y-15547217D01*
X6792176Y-15547217D02*
X6792176Y-15594837D01*
X6792176Y-15594837D02*
X6782652Y-15632932D01*
X6782652Y-15632932D02*
X6773128Y-15651979D01*
X6773128Y-15651979D02*
X6763604Y-15661503D01*
X6763604Y-15661503D02*
X6744557Y-15671027D01*
X6744557Y-15671027D02*
X6725509Y-15671027D01*
X6725509Y-15671027D02*
X6706461Y-15661503D01*
X6706461Y-15661503D02*
X6696938Y-15651979D01*
X6696938Y-15651979D02*
X6687414Y-15632932D01*
X6687414Y-15632932D02*
X6677890Y-15594837D01*
X6677890Y-15594837D02*
X6677890Y-15547217D01*
X6677890Y-15547217D02*
X6687414Y-15509122D01*
X6687414Y-15509122D02*
X6696938Y-15490075D01*
X6696938Y-15490075D02*
X6706461Y-15480551D01*
X6706461Y-15480551D02*
X6725509Y-15471027D01*
X6877890Y-15651979D02*
X6887414Y-15661503D01*
X6887414Y-15661503D02*
X6877890Y-15671027D01*
X6877890Y-15671027D02*
X6868366Y-15661503D01*
X6868366Y-15661503D02*
X6877890Y-15651979D01*
X6877890Y-15651979D02*
X6877890Y-15671027D01*
X6963604Y-15490075D02*
X6973128Y-15480551D01*
X6973128Y-15480551D02*
X6992176Y-15471027D01*
X6992176Y-15471027D02*
X7039795Y-15471027D01*
X7039795Y-15471027D02*
X7058842Y-15480551D01*
X7058842Y-15480551D02*
X7068366Y-15490075D01*
X7068366Y-15490075D02*
X7077890Y-15509122D01*
X7077890Y-15509122D02*
X7077890Y-15528170D01*
X7077890Y-15528170D02*
X7068366Y-15556741D01*
X7068366Y-15556741D02*
X6954081Y-15671027D01*
X6954081Y-15671027D02*
X7077890Y-15671027D01*
X7201700Y-15471027D02*
X7220747Y-15471027D01*
X7220747Y-15471027D02*
X7239795Y-15480551D01*
X7239795Y-15480551D02*
X7249319Y-15490075D01*
X7249319Y-15490075D02*
X7258842Y-15509122D01*
X7258842Y-15509122D02*
X7268366Y-15547217D01*
X7268366Y-15547217D02*
X7268366Y-15594837D01*
X7268366Y-15594837D02*
X7258842Y-15632932D01*
X7258842Y-15632932D02*
X7249319Y-15651979D01*
X7249319Y-15651979D02*
X7239795Y-15661503D01*
X7239795Y-15661503D02*
X7220747Y-15671027D01*
X7220747Y-15671027D02*
X7201700Y-15671027D01*
X7201700Y-15671027D02*
X7182652Y-15661503D01*
X7182652Y-15661503D02*
X7173128Y-15651979D01*
X7173128Y-15651979D02*
X7163604Y-15632932D01*
X7163604Y-15632932D02*
X7154081Y-15594837D01*
X7154081Y-15594837D02*
X7154081Y-15547217D01*
X7154081Y-15547217D02*
X7163604Y-15509122D01*
X7163604Y-15509122D02*
X7173128Y-15490075D01*
X7173128Y-15490075D02*
X7182652Y-15480551D01*
X7182652Y-15480551D02*
X7201700Y-15471027D01*
X7392176Y-15471027D02*
X7411223Y-15471027D01*
X7411223Y-15471027D02*
X7430271Y-15480551D01*
X7430271Y-15480551D02*
X7439795Y-15490075D01*
X7439795Y-15490075D02*
X7449319Y-15509122D01*
X7449319Y-15509122D02*
X7458842Y-15547217D01*
X7458842Y-15547217D02*
X7458842Y-15594837D01*
X7458842Y-15594837D02*
X7449319Y-15632932D01*
X7449319Y-15632932D02*
X7439795Y-15651979D01*
X7439795Y-15651979D02*
X7430271Y-15661503D01*
X7430271Y-15661503D02*
X7411223Y-15671027D01*
X7411223Y-15671027D02*
X7392176Y-15671027D01*
X7392176Y-15671027D02*
X7373128Y-15661503D01*
X7373128Y-15661503D02*
X7363604Y-15651979D01*
X7363604Y-15651979D02*
X7354081Y-15632932D01*
X7354081Y-15632932D02*
X7344557Y-15594837D01*
X7344557Y-15594837D02*
X7344557Y-15547217D01*
X7344557Y-15547217D02*
X7354081Y-15509122D01*
X7354081Y-15509122D02*
X7363604Y-15490075D01*
X7363604Y-15490075D02*
X7373128Y-15480551D01*
X7373128Y-15480551D02*
X7392176Y-15471027D01*
X7573128Y-15556741D02*
X7554081Y-15547217D01*
X7554081Y-15547217D02*
X7544557Y-15537694D01*
X7544557Y-15537694D02*
X7535033Y-15518646D01*
X7535033Y-15518646D02*
X7535033Y-15509122D01*
X7535033Y-15509122D02*
X7544557Y-15490075D01*
X7544557Y-15490075D02*
X7554081Y-15480551D01*
X7554081Y-15480551D02*
X7573128Y-15471027D01*
X7573128Y-15471027D02*
X7611223Y-15471027D01*
X7611223Y-15471027D02*
X7630271Y-15480551D01*
X7630271Y-15480551D02*
X7639795Y-15490075D01*
X7639795Y-15490075D02*
X7649319Y-15509122D01*
X7649319Y-15509122D02*
X7649319Y-15518646D01*
X7649319Y-15518646D02*
X7639795Y-15537694D01*
X7639795Y-15537694D02*
X7630271Y-15547217D01*
X7630271Y-15547217D02*
X7611223Y-15556741D01*
X7611223Y-15556741D02*
X7573128Y-15556741D01*
X7573128Y-15556741D02*
X7554081Y-15566265D01*
X7554081Y-15566265D02*
X7544557Y-15575789D01*
X7544557Y-15575789D02*
X7535033Y-15594837D01*
X7535033Y-15594837D02*
X7535033Y-15632932D01*
X7535033Y-15632932D02*
X7544557Y-15651979D01*
X7544557Y-15651979D02*
X7554081Y-15661503D01*
X7554081Y-15661503D02*
X7573128Y-15671027D01*
X7573128Y-15671027D02*
X7611223Y-15671027D01*
X7611223Y-15671027D02*
X7630271Y-15661503D01*
X7630271Y-15661503D02*
X7639795Y-15651979D01*
X7639795Y-15651979D02*
X7649319Y-15632932D01*
X7649319Y-15632932D02*
X7649319Y-15594837D01*
X7649319Y-15594837D02*
X7639795Y-15575789D01*
X7639795Y-15575789D02*
X7630271Y-15566265D01*
X7630271Y-15566265D02*
X7611223Y-15556741D01*
X7725509Y-15471027D02*
X7725509Y-15509122D01*
X7801700Y-15471027D02*
X7801700Y-15509122D01*
X8096938Y-15747217D02*
X8087414Y-15737694D01*
X8087414Y-15737694D02*
X8068366Y-15709122D01*
X8068366Y-15709122D02*
X8058843Y-15690075D01*
X8058843Y-15690075D02*
X8049319Y-15661503D01*
X8049319Y-15661503D02*
X8039795Y-15613884D01*
X8039795Y-15613884D02*
X8039795Y-15575789D01*
X8039795Y-15575789D02*
X8049319Y-15528170D01*
X8049319Y-15528170D02*
X8058843Y-15499598D01*
X8058843Y-15499598D02*
X8068366Y-15480551D01*
X8068366Y-15480551D02*
X8087414Y-15451979D01*
X8087414Y-15451979D02*
X8096938Y-15442456D01*
X8154081Y-15471027D02*
X8277890Y-15471027D01*
X8277890Y-15471027D02*
X8211223Y-15547217D01*
X8211223Y-15547217D02*
X8239795Y-15547217D01*
X8239795Y-15547217D02*
X8258843Y-15556741D01*
X8258843Y-15556741D02*
X8268366Y-15566265D01*
X8268366Y-15566265D02*
X8277890Y-15585313D01*
X8277890Y-15585313D02*
X8277890Y-15632932D01*
X8277890Y-15632932D02*
X8268366Y-15651979D01*
X8268366Y-15651979D02*
X8258843Y-15661503D01*
X8258843Y-15661503D02*
X8239795Y-15671027D01*
X8239795Y-15671027D02*
X8182652Y-15671027D01*
X8182652Y-15671027D02*
X8163604Y-15661503D01*
X8163604Y-15661503D02*
X8154081Y-15651979D01*
X8468366Y-15671027D02*
X8354081Y-15671027D01*
X8411224Y-15671027D02*
X8411224Y-15471027D01*
X8411224Y-15471027D02*
X8392176Y-15499598D01*
X8392176Y-15499598D02*
X8373128Y-15518646D01*
X8373128Y-15518646D02*
X8354081Y-15528170D01*
X8706462Y-15671027D02*
X8706462Y-15471027D01*
X8792176Y-15671027D02*
X8792176Y-15566265D01*
X8792176Y-15566265D02*
X8782652Y-15547217D01*
X8782652Y-15547217D02*
X8763605Y-15537694D01*
X8763605Y-15537694D02*
X8735033Y-15537694D01*
X8735033Y-15537694D02*
X8715986Y-15547217D01*
X8715986Y-15547217D02*
X8706462Y-15556741D01*
X8915986Y-15671027D02*
X8896938Y-15661503D01*
X8896938Y-15661503D02*
X8887414Y-15651979D01*
X8887414Y-15651979D02*
X8877890Y-15632932D01*
X8877890Y-15632932D02*
X8877890Y-15575789D01*
X8877890Y-15575789D02*
X8887414Y-15556741D01*
X8887414Y-15556741D02*
X8896938Y-15547217D01*
X8896938Y-15547217D02*
X8915986Y-15537694D01*
X8915986Y-15537694D02*
X8944557Y-15537694D01*
X8944557Y-15537694D02*
X8963605Y-15547217D01*
X8963605Y-15547217D02*
X8973128Y-15556741D01*
X8973128Y-15556741D02*
X8982652Y-15575789D01*
X8982652Y-15575789D02*
X8982652Y-15632932D01*
X8982652Y-15632932D02*
X8973128Y-15651979D01*
X8973128Y-15651979D02*
X8963605Y-15661503D01*
X8963605Y-15661503D02*
X8944557Y-15671027D01*
X8944557Y-15671027D02*
X8915986Y-15671027D01*
X9096938Y-15671027D02*
X9077890Y-15661503D01*
X9077890Y-15661503D02*
X9068367Y-15642456D01*
X9068367Y-15642456D02*
X9068367Y-15471027D01*
X9249319Y-15661503D02*
X9230271Y-15671027D01*
X9230271Y-15671027D02*
X9192176Y-15671027D01*
X9192176Y-15671027D02*
X9173128Y-15661503D01*
X9173128Y-15661503D02*
X9163605Y-15642456D01*
X9163605Y-15642456D02*
X9163605Y-15566265D01*
X9163605Y-15566265D02*
X9173128Y-15547217D01*
X9173128Y-15547217D02*
X9192176Y-15537694D01*
X9192176Y-15537694D02*
X9230271Y-15537694D01*
X9230271Y-15537694D02*
X9249319Y-15547217D01*
X9249319Y-15547217D02*
X9258843Y-15566265D01*
X9258843Y-15566265D02*
X9258843Y-15585313D01*
X9258843Y-15585313D02*
X9163605Y-15604360D01*
X9335033Y-15661503D02*
X9354081Y-15671027D01*
X9354081Y-15671027D02*
X9392176Y-15671027D01*
X9392176Y-15671027D02*
X9411224Y-15661503D01*
X9411224Y-15661503D02*
X9420748Y-15642456D01*
X9420748Y-15642456D02*
X9420748Y-15632932D01*
X9420748Y-15632932D02*
X9411224Y-15613884D01*
X9411224Y-15613884D02*
X9392176Y-15604360D01*
X9392176Y-15604360D02*
X9363605Y-15604360D01*
X9363605Y-15604360D02*
X9344557Y-15594837D01*
X9344557Y-15594837D02*
X9335033Y-15575789D01*
X9335033Y-15575789D02*
X9335033Y-15566265D01*
X9335033Y-15566265D02*
X9344557Y-15547217D01*
X9344557Y-15547217D02*
X9363605Y-15537694D01*
X9363605Y-15537694D02*
X9392176Y-15537694D01*
X9392176Y-15537694D02*
X9411224Y-15547217D01*
X9487414Y-15747217D02*
X9496938Y-15737694D01*
X9496938Y-15737694D02*
X9515986Y-15709122D01*
X9515986Y-15709122D02*
X9525509Y-15690075D01*
X9525509Y-15690075D02*
X9535033Y-15661503D01*
X9535033Y-15661503D02*
X9544557Y-15613884D01*
X9544557Y-15613884D02*
X9544557Y-15575789D01*
X9544557Y-15575789D02*
X9535033Y-15528170D01*
X9535033Y-15528170D02*
X9525509Y-15499598D01*
X9525509Y-15499598D02*
X9515986Y-15480551D01*
X9515986Y-15480551D02*
X9496938Y-15451979D01*
X9496938Y-15451979D02*
X9487414Y-15442456D01*
X9849319Y-15747217D02*
X9839795Y-15737694D01*
X9839795Y-15737694D02*
X9820748Y-15709122D01*
X9820748Y-15709122D02*
X9811224Y-15690075D01*
X9811224Y-15690075D02*
X9801700Y-15661503D01*
X9801700Y-15661503D02*
X9792176Y-15613884D01*
X9792176Y-15613884D02*
X9792176Y-15575789D01*
X9792176Y-15575789D02*
X9801700Y-15528170D01*
X9801700Y-15528170D02*
X9811224Y-15499598D01*
X9811224Y-15499598D02*
X9820748Y-15480551D01*
X9820748Y-15480551D02*
X9839795Y-15451979D01*
X9839795Y-15451979D02*
X9849319Y-15442456D01*
X9925509Y-15537694D02*
X9925509Y-15671027D01*
X9925509Y-15556741D02*
X9935033Y-15547217D01*
X9935033Y-15547217D02*
X9954081Y-15537694D01*
X9954081Y-15537694D02*
X9982652Y-15537694D01*
X9982652Y-15537694D02*
X10001700Y-15547217D01*
X10001700Y-15547217D02*
X10011224Y-15566265D01*
X10011224Y-15566265D02*
X10011224Y-15671027D01*
X10135033Y-15671027D02*
X10115986Y-15661503D01*
X10115986Y-15661503D02*
X10106462Y-15651979D01*
X10106462Y-15651979D02*
X10096938Y-15632932D01*
X10096938Y-15632932D02*
X10096938Y-15575789D01*
X10096938Y-15575789D02*
X10106462Y-15556741D01*
X10106462Y-15556741D02*
X10115986Y-15547217D01*
X10115986Y-15547217D02*
X10135033Y-15537694D01*
X10135033Y-15537694D02*
X10163605Y-15537694D01*
X10163605Y-15537694D02*
X10182652Y-15547217D01*
X10182652Y-15547217D02*
X10192176Y-15556741D01*
X10192176Y-15556741D02*
X10201700Y-15575789D01*
X10201700Y-15575789D02*
X10201700Y-15632932D01*
X10201700Y-15632932D02*
X10192176Y-15651979D01*
X10192176Y-15651979D02*
X10182652Y-15661503D01*
X10182652Y-15661503D02*
X10163605Y-15671027D01*
X10163605Y-15671027D02*
X10135033Y-15671027D01*
X10258843Y-15537694D02*
X10335033Y-15537694D01*
X10287414Y-15471027D02*
X10287414Y-15642456D01*
X10287414Y-15642456D02*
X10296938Y-15661503D01*
X10296938Y-15661503D02*
X10315986Y-15671027D01*
X10315986Y-15671027D02*
X10335033Y-15671027D01*
X10554081Y-15537694D02*
X10554081Y-15737694D01*
X10554081Y-15547217D02*
X10573129Y-15537694D01*
X10573129Y-15537694D02*
X10611224Y-15537694D01*
X10611224Y-15537694D02*
X10630271Y-15547217D01*
X10630271Y-15547217D02*
X10639795Y-15556741D01*
X10639795Y-15556741D02*
X10649319Y-15575789D01*
X10649319Y-15575789D02*
X10649319Y-15632932D01*
X10649319Y-15632932D02*
X10639795Y-15651979D01*
X10639795Y-15651979D02*
X10630271Y-15661503D01*
X10630271Y-15661503D02*
X10611224Y-15671027D01*
X10611224Y-15671027D02*
X10573129Y-15671027D01*
X10573129Y-15671027D02*
X10554081Y-15661503D01*
X10763605Y-15671027D02*
X10744557Y-15661503D01*
X10744557Y-15661503D02*
X10735033Y-15642456D01*
X10735033Y-15642456D02*
X10735033Y-15471027D01*
X10925510Y-15671027D02*
X10925510Y-15566265D01*
X10925510Y-15566265D02*
X10915986Y-15547217D01*
X10915986Y-15547217D02*
X10896938Y-15537694D01*
X10896938Y-15537694D02*
X10858843Y-15537694D01*
X10858843Y-15537694D02*
X10839795Y-15547217D01*
X10925510Y-15661503D02*
X10906462Y-15671027D01*
X10906462Y-15671027D02*
X10858843Y-15671027D01*
X10858843Y-15671027D02*
X10839795Y-15661503D01*
X10839795Y-15661503D02*
X10830271Y-15642456D01*
X10830271Y-15642456D02*
X10830271Y-15623408D01*
X10830271Y-15623408D02*
X10839795Y-15604360D01*
X10839795Y-15604360D02*
X10858843Y-15594837D01*
X10858843Y-15594837D02*
X10906462Y-15594837D01*
X10906462Y-15594837D02*
X10925510Y-15585313D01*
X10992176Y-15537694D02*
X11068367Y-15537694D01*
X11020748Y-15471027D02*
X11020748Y-15642456D01*
X11020748Y-15642456D02*
X11030271Y-15661503D01*
X11030271Y-15661503D02*
X11049319Y-15671027D01*
X11049319Y-15671027D02*
X11068367Y-15671027D01*
X11211224Y-15661503D02*
X11192176Y-15671027D01*
X11192176Y-15671027D02*
X11154081Y-15671027D01*
X11154081Y-15671027D02*
X11135033Y-15661503D01*
X11135033Y-15661503D02*
X11125510Y-15642456D01*
X11125510Y-15642456D02*
X11125510Y-15566265D01*
X11125510Y-15566265D02*
X11135033Y-15547217D01*
X11135033Y-15547217D02*
X11154081Y-15537694D01*
X11154081Y-15537694D02*
X11192176Y-15537694D01*
X11192176Y-15537694D02*
X11211224Y-15547217D01*
X11211224Y-15547217D02*
X11220748Y-15566265D01*
X11220748Y-15566265D02*
X11220748Y-15585313D01*
X11220748Y-15585313D02*
X11125510Y-15604360D01*
X11392176Y-15671027D02*
X11392176Y-15471027D01*
X11392176Y-15661503D02*
X11373129Y-15671027D01*
X11373129Y-15671027D02*
X11335033Y-15671027D01*
X11335033Y-15671027D02*
X11315986Y-15661503D01*
X11315986Y-15661503D02*
X11306462Y-15651979D01*
X11306462Y-15651979D02*
X11296938Y-15632932D01*
X11296938Y-15632932D02*
X11296938Y-15575789D01*
X11296938Y-15575789D02*
X11306462Y-15556741D01*
X11306462Y-15556741D02*
X11315986Y-15547217D01*
X11315986Y-15547217D02*
X11335033Y-15537694D01*
X11335033Y-15537694D02*
X11373129Y-15537694D01*
X11373129Y-15537694D02*
X11392176Y-15547217D01*
X11468367Y-15747217D02*
X11477890Y-15737694D01*
X11477890Y-15737694D02*
X11496938Y-15709122D01*
X11496938Y-15709122D02*
X11506462Y-15690075D01*
X11506462Y-15690075D02*
X11515986Y-15661503D01*
X11515986Y-15661503D02*
X11525509Y-15613884D01*
X11525509Y-15613884D02*
X11525509Y-15575789D01*
X11525509Y-15575789D02*
X11515986Y-15528170D01*
X11515986Y-15528170D02*
X11506462Y-15499598D01*
X11506462Y-15499598D02*
X11496938Y-15480551D01*
X11496938Y-15480551D02*
X11477890Y-15451979D01*
X11477890Y-15451979D02*
X11468367Y-15442456D01*
M02*
