M48
; DRILL file {KiCad 9.0.6} date 2025-12-17T14:31:33+0900
; FORMAT={-:-/ absolute / metric / decimal}
; #@! TF.CreationDate,2025-12-17T14:31:33+09:00
; #@! TF.GenerationSoftware,Kicad,Pcbnew,9.0.6
; #@! TF.FileFunction,NonPlated,1,2,NPTH
FMAT,2
METRIC
; #@! TA.AperFunction,NonPlated,NPTH,ComponentDrill
T1C1.500
; #@! TA.AperFunction,NonPlated,NPTH,ComponentDrill
T2C3.000
; #@! TA.AperFunction,NonPlated,NPTH,ComponentDrill
T3C5.100
%
G90
G05
T2
X74.962Y-57.15
X74.962Y-133.35
X77.162Y-52.15
X77.162Y-128.35
X79.725Y-76.2
X81.925Y-71.2
X82.106Y-95.25
X84.306Y-90.25
X84.487Y-114.3
X86.688Y-109.3
X94.013Y-57.15
X96.212Y-52.15
X98.775Y-133.35
X100.975Y-128.35
X103.537Y-76.2
X105.737Y-71.2
X108.3Y-95.25
X110.5Y-90.25
X113.062Y-57.15
X113.062Y-114.3
X115.262Y-52.15
X115.262Y-109.3
X117.825Y-133.35
X120.025Y-128.35
X122.587Y-76.2
X124.787Y-71.2
X127.35Y-95.25
X129.55Y-90.25
X132.112Y-57.15
X132.112Y-114.3
X134.312Y-52.15
X134.312Y-109.3
X136.875Y-133.35
X139.075Y-128.35
X141.637Y-76.2
X143.838Y-71.2
X146.4Y-95.25
X148.6Y-90.25
X151.162Y-57.15
X151.162Y-114.3
X153.362Y-52.15
X153.362Y-109.3
X155.925Y-133.35
X158.125Y-128.35
X160.688Y-76.2
X162.887Y-71.2
X165.45Y-95.25
X167.65Y-90.25
X170.213Y-57.15
X170.213Y-114.3
X172.412Y-52.15
X172.412Y-109.3
X177.356Y-133.35
X179.556Y-128.35
X179.737Y-76.2
X181.938Y-71.2
X184.5Y-95.25
X186.7Y-90.25
X189.262Y-57.15
X189.262Y-114.3
X191.462Y-52.15
X191.462Y-109.3
T3
X80.962Y-57.15
X80.962Y-133.35
X85.725Y-76.2
X88.106Y-95.25
X90.487Y-114.3
X100.012Y-57.15
X104.775Y-133.35
X109.537Y-76.2
X114.3Y-95.25
X119.062Y-57.15
X119.062Y-114.3
X123.825Y-133.35
X128.588Y-76.2
X133.35Y-95.25
X138.112Y-57.15
X138.112Y-114.3
X142.875Y-133.35
X147.637Y-76.2
X152.4Y-95.25
X157.162Y-57.15
X157.162Y-114.3
X161.925Y-133.35
X166.688Y-76.2
X171.45Y-95.25
X176.213Y-57.15
X176.213Y-114.3
X183.356Y-133.35
X185.737Y-76.2
X190.5Y-95.25
X195.262Y-57.15
X195.262Y-114.3
T1
G00X86.362Y-62.15
M15
G01X85.862Y-62.15
M16
G05
G00X86.362Y-138.35
M15
G01X85.862Y-138.35
M16
G05
G00X91.125Y-81.2
M15
G01X90.625Y-81.2
M16
G05
G00X93.506Y-100.25
M15
G01X93.006Y-100.25
M16
G05
G00X95.887Y-119.3
M15
G01X95.387Y-119.3
M16
G05
G00X105.412Y-62.15
M15
G01X104.912Y-62.15
M16
G05
G00X110.175Y-138.35
M15
G01X109.675Y-138.35
M16
G05
G00X114.938Y-81.2
M15
G01X114.438Y-81.2
M16
G05
G00X119.7Y-100.25
M15
G01X119.2Y-100.25
M16
G05
G00X124.462Y-62.15
M15
G01X123.962Y-62.15
M16
G05
G00X124.462Y-119.3
M15
G01X123.962Y-119.3
M16
G05
G00X129.225Y-138.35
M15
G01X128.725Y-138.35
M16
G05
G00X133.987Y-81.2
M15
G01X133.487Y-81.2
M16
G05
G00X138.75Y-100.25
M15
G01X138.25Y-100.25
M16
G05
G00X143.512Y-62.15
M15
G01X143.012Y-62.15
M16
G05
G00X143.512Y-119.3
M15
G01X143.012Y-119.3
M16
G05
G00X148.275Y-138.35
M15
G01X147.775Y-138.35
M16
G05
G00X153.037Y-81.2
M15
G01X152.537Y-81.2
M16
G05
G00X157.8Y-100.25
M15
G01X157.3Y-100.25
M16
G05
G00X162.562Y-62.15
M15
G01X162.062Y-62.15
M16
G05
G00X162.562Y-119.3
M15
G01X162.062Y-119.3
M16
G05
G00X167.325Y-138.35
M15
G01X166.825Y-138.35
M16
G05
G00X172.088Y-81.2
M15
G01X171.588Y-81.2
M16
G05
G00X176.85Y-100.25
M15
G01X176.35Y-100.25
M16
G05
G00X181.612Y-62.15
M15
G01X181.112Y-62.15
M16
G05
G00X181.612Y-119.3
M15
G01X181.112Y-119.3
M16
G05
G00X188.756Y-138.35
M15
G01X188.256Y-138.35
M16
G05
G00X191.137Y-81.2
M15
G01X190.637Y-81.2
M16
G05
G00X195.9Y-100.25
M15
G01X195.4Y-100.25
M16
G05
G00X200.662Y-62.15
M15
G01X200.162Y-62.15
M16
G05
G00X200.662Y-119.3
M15
G01X200.162Y-119.3
M16
G05
M30
