G04 #@! TF.GenerationSoftware,KiCad,Pcbnew,9.0.6*
G04 #@! TF.CreationDate,2025-12-17T14:31:33+09:00*
G04 #@! TF.ProjectId,Assemble_L,41737365-6d62-46c6-955f-4c2e6b696361,rev?*
G04 #@! TF.SameCoordinates,Original*
G04 #@! TF.FileFunction,Profile,NP*
%FSLAX46Y46*%
G04 Gerber Fmt 4.6, Leading zero omitted, Abs format (unit mm)*
G04 Created by KiCad (PCBNEW 9.0.6) date 2025-12-17 14:31:33*
%MOMM*%
%LPD*%
G01*
G04 APERTURE LIST*
G04 #@! TA.AperFunction,Profile*
%ADD10C,0.050000*%
G04 #@! TD*
G04 APERTURE END LIST*
D10*
X47243787Y-143470433D02*
G75*
G02*
X45243767Y-141470434I13J2000033D01*
G01*
X198834542Y-105965714D02*
X198834542Y-88915698D01*
X203597046Y-120634478D02*
G75*
G02*
X201597046Y-122634546I-2000046J-22D01*
G01*
X203597046Y-120634478D02*
X203597046Y-107965714D01*
X194072038Y-86915698D02*
X194072038Y-65484430D01*
X187382969Y-65484430D02*
G75*
G02*
X185282969Y-65484430I-1050000J0D01*
G01*
X185282969Y-65484430D02*
G75*
G02*
X187382969Y-65484430I1050000J0D01*
G01*
X194072038Y-65484430D02*
X201597046Y-65484430D01*
X74273499Y-125015730D02*
G75*
G02*
X72173499Y-125015730I-1050000J0D01*
G01*
X72173499Y-125015730D02*
G75*
G02*
X74273499Y-125015730I1050000J0D01*
G01*
X201597046Y-47029727D02*
X47243750Y-47029727D01*
X201597046Y-47029727D02*
G75*
G02*
X203596973Y-49029727I-46J-1999973D01*
G01*
X203597046Y-63484430D02*
X203597046Y-49029727D01*
X45243750Y-49029727D02*
G75*
G02*
X47243750Y-47029750I1999950J27D01*
G01*
X126065730Y-51792231D02*
G75*
G02*
X123965730Y-51792231I-1050000J0D01*
G01*
X123965730Y-51792231D02*
G75*
G02*
X126065730Y-51792231I1050000J0D01*
G01*
X74273499Y-65484430D02*
G75*
G02*
X72173499Y-65484430I-1050000J0D01*
G01*
X72173499Y-65484430D02*
G75*
G02*
X74273499Y-65484430I1050000J0D01*
G01*
X203597046Y-63484430D02*
G75*
G02*
X201597046Y-65484446I-2000046J30D01*
G01*
X47243787Y-143470433D02*
X192072038Y-143470433D01*
X126065730Y-125015730D02*
G75*
G02*
X123965730Y-125015730I-1050000J0D01*
G01*
X123965730Y-125015730D02*
G75*
G02*
X126065730Y-125015730I1050000J0D01*
G01*
X196834542Y-86915698D02*
G75*
G02*
X198834602Y-88915698I-42J-2000102D01*
G01*
X201597046Y-105965714D02*
G75*
G02*
X203597086Y-107965714I-46J-2000086D01*
G01*
X196834542Y-86915698D02*
X194072038Y-86915698D01*
X187382969Y-125015730D02*
G75*
G02*
X185282969Y-125015730I-1050000J0D01*
G01*
X185282969Y-125015730D02*
G75*
G02*
X187382969Y-125015730I1050000J0D01*
G01*
X201597046Y-105965714D02*
X198834542Y-105965714D01*
X194072038Y-141470433D02*
X194072038Y-122634478D01*
X45243750Y-49029727D02*
X45243787Y-141470434D01*
X194072038Y-122634478D02*
X201597046Y-122634478D01*
X194072038Y-141470433D02*
G75*
G02*
X192072038Y-143470438I-2000038J33D01*
G01*
M02*
