M48
; DRILL file {KiCad 9.0.6} date 2025-12-17T14:31:33+0900
; FORMAT={-:-/ absolute / metric / decimal}
; #@! TF.CreationDate,2025-12-17T14:31:33+09:00
; #@! TF.GenerationSoftware,Kicad,Pcbnew,9.0.6
; #@! TF.FileFunction,Plated,1,2,PTH
FMAT,2
METRIC
; #@! TA.AperFunction,Plated,PTH,ViaDrill
T1C0.300
; #@! TA.AperFunction,Plated,PTH,ComponentDrill
T2C0.813
; #@! TA.AperFunction,Plated,PTH,ComponentDrill
T3C0.889
%
G90
G05
T1
X47.625Y-80.962
X47.625Y-88.106
X47.625Y-95.25
X47.625Y-102.394
X47.625Y-109.537
X47.625Y-116.681
X47.625Y-123.825
X47.625Y-130.969
X47.625Y-138.112
X52.387Y-83.344
X52.387Y-90.487
X52.387Y-97.631
X52.387Y-104.775
X52.387Y-111.919
X52.387Y-119.062
X52.387Y-126.206
X52.387Y-133.35
X52.387Y-140.494
X54.769Y-61.912
X54.769Y-64.294
X57.15Y-85.725
X57.15Y-102.394
X57.15Y-109.537
X57.15Y-116.681
X57.15Y-123.825
X57.15Y-135.731
X59.531Y-54.769
X59.531Y-61.912
X59.531Y-64.294
X59.531Y-69.056
X61.912Y-88.106
X61.912Y-92.869
X61.912Y-111.919
X61.912Y-126.206
X61.912Y-140.494
X64.294Y-78.581
X69.056Y-52.387
X69.056Y-69.056
X69.056Y-88.106
X69.056Y-95.25
X69.056Y-102.394
X69.056Y-109.537
X69.056Y-116.681
X69.056Y-123.825
X69.056Y-130.969
X69.056Y-59.531
X71.438Y-78.581
X72.033Y-67.27
X72.628Y-127.992
X73.819Y-85.725
X73.819Y-97.631
X73.819Y-104.775
X73.819Y-111.919
X73.819Y-119.062
X76.2Y-76.2
X76.2Y-67.27
X78.581Y-71.438
X78.581Y-102.394
X78.581Y-135.731
X83.344Y-52.387
X83.344Y-135.731
X84.306Y-86.85
X85.725Y-128.588
X88.106Y-126.206
X90.487Y-123.825
X90.487Y-130.969
X90.487Y-135.731
X90.487Y-140.494
X92.869Y-85.725
X92.869Y-107.156
X95.25Y-76.2
X95.25Y-95.25
X95.25Y-133.35
X95.25Y-138.112
X96.212Y-48.75
X100.012Y-80.962
X100.012Y-88.106
X100.012Y-95.25
X100.012Y-109.537
X100.012Y-116.681
X104.775Y-52.387
X107.156Y-107.156
X107.156Y-119.062
X107.156Y-126.206
X109.537Y-57.15
X109.537Y-133.35
X109.537Y-135.731
X111.919Y-69.056
X111.919Y-126.206
X114.3Y-88.106
X114.3Y-133.35
X114.3Y-135.731
X114.3Y-140.494
X115.262Y-48.75
X116.681Y-71.438
X116.681Y-90.487
X119.062Y-109.537
X121.444Y-50.006
X121.444Y-104.775
X126.206Y-54.769
X126.206Y-109.537
X126.206Y-128.588
X128.588Y-50.006
X128.588Y-61.912
X128.588Y-71.438
X128.588Y-135.731
X130.969Y-130.969
X130.969Y-135.731
X133.35Y-128.588
X133.35Y-140.494
X135.731Y-71.438
X135.731Y-78.581
X135.731Y-88.106
X140.494Y-50.006
X140.494Y-88.106
X140.494Y-92.869
X140.494Y-135.731
X142.875Y-97.631
X142.875Y-107.156
X142.875Y-126.206
X143.838Y-67.8
X145.256Y-80.962
X145.256Y-111.919
X145.256Y-121.444
X145.256Y-128.588
X147.637Y-50.006
X147.637Y-54.769
X147.637Y-107.156
X147.637Y-119.062
X152.4Y-71.438
X152.4Y-88.106
X152.4Y-135.731
X152.4Y-140.494
X154.781Y-76.2
X157.162Y-71.438
X157.162Y-90.487
X157.162Y-104.775
X157.162Y-119.062
X158.949Y-108.942
X159.544Y-50.006
X159.544Y-135.731
X161.925Y-54.769
X161.925Y-88.106
X161.925Y-97.631
X161.925Y-128.588
X162.887Y-67.8
X164.306Y-50.006
X164.306Y-107.156
X164.306Y-114.3
X164.306Y-123.825
X164.306Y-126.206
X165.497Y-126.802
X166.688Y-69.056
X169.069Y-140.494
X171.45Y-71.438
X171.45Y-85.725
X171.45Y-123.825
X171.45Y-128.588
X171.45Y-135.731
X172.412Y-48.75
X173.831Y-90.487
X173.831Y-140.494
X176.213Y-52.387
X176.213Y-69.056
X176.213Y-73.819
X176.213Y-80.962
X176.213Y-85.725
X176.213Y-109.537
X176.213Y-126.206
X178.594Y-95.25
X178.594Y-102.394
X180.975Y-135.731
X183.356Y-52.387
X183.356Y-88.106
X183.356Y-107.156
X183.356Y-127.397
X185.737Y-59.531
X185.737Y-121.444
X188.119Y-68.461
X190.5Y-71.438
X190.5Y-140.494
X191.095Y-88.106
X192.881Y-61.912
X192.881Y-133.35
X195.262Y-50.006
X195.262Y-92.869
X195.262Y-102.394
X195.262Y-107.156
X195.858Y-89.892
X197.644Y-97.631
X198.239Y-108.942
X200.025Y-50.006
X200.025Y-54.769
X200.025Y-111.919
T2
X59.531Y-90.845
X59.531Y-98.465
X59.531Y-106.323
X59.531Y-113.943
X59.531Y-121.801
X59.531Y-129.421
X65.484Y-83.106
X65.484Y-90.726
X65.484Y-98.584
X65.484Y-106.204
X65.484Y-114.062
X65.484Y-121.682
X75.962Y-63.698
X75.962Y-139.899
X80.724Y-82.749
X83.106Y-101.799
X83.582Y-63.698
X83.582Y-139.899
X85.487Y-120.849
X87.511Y-50.959
X87.511Y-58.579
X88.344Y-82.749
X90.726Y-101.799
X92.274Y-70.009
X92.274Y-77.629
X93.107Y-120.849
X95.012Y-63.698
X99.774Y-139.899
X102.632Y-63.698
X104.537Y-82.749
X107.394Y-139.899
X109.299Y-101.799
X112.157Y-82.749
X114.062Y-63.698
X114.062Y-120.849
X116.919Y-101.799
X118.824Y-139.899
X120.849Y-89.059
X120.849Y-96.679
X121.682Y-63.698
X121.682Y-120.849
X123.587Y-82.749
X126.444Y-139.899
X128.349Y-101.799
X131.207Y-82.749
X133.112Y-63.698
X133.112Y-120.849
X135.969Y-101.799
X137.874Y-139.899
X140.732Y-63.698
X140.732Y-120.849
X142.637Y-82.749
X145.494Y-139.899
X147.4Y-101.799
X149.424Y-127.159
X149.424Y-134.779
X150.257Y-82.749
X152.162Y-63.698
X152.162Y-120.849
X155.02Y-101.799
X156.925Y-139.899
X159.782Y-63.698
X159.782Y-120.849
X161.687Y-82.749
X164.545Y-139.899
X166.45Y-101.799
X168.474Y-127.159
X168.474Y-134.779
X169.307Y-82.749
X171.212Y-63.698
X171.212Y-120.849
X174.07Y-101.799
X178.356Y-139.899
X178.832Y-63.698
X178.832Y-120.849
X180.737Y-82.749
X185.5Y-101.799
X185.976Y-139.899
X188.357Y-82.749
X189.905Y-127.159
X189.905Y-134.779
X190.262Y-63.698
X190.262Y-120.849
X193.12Y-101.799
X197.882Y-63.698
X197.882Y-120.849
T3
X49.53Y-51.911
X49.53Y-54.451
X49.53Y-56.991
X49.53Y-59.531
X49.53Y-62.071
X49.53Y-64.611
X49.53Y-67.151
X64.77Y-51.911
X64.77Y-54.451
X64.77Y-56.991
X64.77Y-59.531
X64.77Y-62.071
X64.77Y-64.611
X64.77Y-67.151
M30
