G04 #@! TF.GenerationSoftware,KiCad,Pcbnew,9.0.6*
G04 #@! TF.CreationDate,2025-12-17T14:31:33+09:00*
G04 #@! TF.ProjectId,Assemble_L,41737365-6d62-46c6-955f-4c2e6b696361,rev?*
G04 #@! TF.SameCoordinates,Original*
G04 #@! TF.FileFunction,Soldermask,Top*
G04 #@! TF.FilePolarity,Negative*
%FSLAX46Y46*%
G04 Gerber Fmt 4.6, Leading zero omitted, Abs format (unit mm)*
G04 Created by KiCad (PCBNEW 9.0.6) date 2025-12-17 14:31:33*
%MOMM*%
%LPD*%
G01*
G04 APERTURE LIST*
G04 Aperture macros list*
%AMRoundRect*
0 Rectangle with rounded corners*
0 $1 Rounding radius*
0 $2 $3 $4 $5 $6 $7 $8 $9 X,Y pos of 4 corners*
0 Add a 4 corners polygon primitive as box body*
4,1,4,$2,$3,$4,$5,$6,$7,$8,$9,$2,$3,0*
0 Add four circle primitives for the rounded corners*
1,1,$1+$1,$2,$3*
1,1,$1+$1,$4,$5*
1,1,$1+$1,$6,$7*
1,1,$1+$1,$8,$9*
0 Add four rect primitives between the rounded corners*
20,1,$1+$1,$2,$3,$4,$5,0*
20,1,$1+$1,$4,$5,$6,$7,0*
20,1,$1+$1,$6,$7,$8,$9,0*
20,1,$1+$1,$8,$9,$2,$3,0*%
G04 Aperture macros list end*
%ADD10R,1.397000X1.397000*%
%ADD11C,1.397000*%
%ADD12C,3.000000*%
%ADD13C,5.000000*%
%ADD14O,2.000000X1.500000*%
%ADD15RoundRect,0.152400X1.063600X0.609600X-1.063600X0.609600X-1.063600X-0.609600X1.063600X-0.609600X0*%
%ADD16C,1.524000*%
%ADD17RoundRect,0.152400X-1.063600X-0.609600X1.063600X-0.609600X1.063600X0.609600X-1.063600X0.609600X0*%
G04 APERTURE END LIST*
D10*
G04 #@! TO.C,D5-0*
X159782006Y-63698491D03*
D11*
X152162006Y-63698491D03*
G04 #@! TD*
D10*
G04 #@! TO.C,D3-0*
X121681974Y-63698491D03*
D11*
X114061974Y-63698491D03*
G04 #@! TD*
D10*
G04 #@! TO.C,DS5*
X189904847Y-127158860D03*
D11*
X189904847Y-134778860D03*
G04 #@! TD*
D10*
G04 #@! TO.C,D3-2*
X135969486Y-101798523D03*
D11*
X128349486Y-101798523D03*
G04 #@! TD*
D10*
G04 #@! TO.C,DI4*
X65484430Y-114061974D03*
D11*
X65484430Y-121681974D03*
G04 #@! TD*
D10*
G04 #@! TO.C,D2-1*
X112156966Y-82748507D03*
D11*
X104536966Y-82748507D03*
G04 #@! TD*
D10*
G04 #@! TO.C,D1-4*
X107394462Y-139898555D03*
D11*
X99774462Y-139898555D03*
G04 #@! TD*
D12*
G04 #@! TO.C,RC1-3*
X113062500Y-114300000D03*
X115262500Y-109300000D03*
D13*
X119062500Y-114300000D03*
D14*
X124212500Y-119300000D03*
G04 #@! TD*
D10*
G04 #@! TO.C,D2-0*
X102631958Y-63698491D03*
D11*
X95011958Y-63698491D03*
G04 #@! TD*
D10*
G04 #@! TO.C,DI1*
X59531300Y-90844767D03*
D11*
X59531300Y-98464767D03*
G04 #@! TD*
D10*
G04 #@! TO.C,D3-4*
X145494494Y-139898555D03*
D11*
X137874494Y-139898555D03*
G04 #@! TD*
D12*
G04 #@! TO.C,RC1-0*
X74962500Y-57150000D03*
X77162500Y-52150000D03*
D13*
X80962500Y-57150000D03*
D14*
X86112500Y-62150000D03*
G04 #@! TD*
D10*
G04 #@! TO.C,D4-0*
X140731990Y-63698491D03*
D11*
X133111990Y-63698491D03*
G04 #@! TD*
D10*
G04 #@! TO.C,D2-4*
X126444478Y-139898555D03*
D11*
X118824478Y-139898555D03*
G04 #@! TD*
D10*
G04 #@! TO.C,D1-2*
X116919470Y-101798523D03*
D11*
X109299470Y-101798523D03*
G04 #@! TD*
D10*
G04 #@! TO.C,D6-0*
X178832022Y-63698491D03*
D11*
X171212022Y-63698491D03*
G04 #@! TD*
D10*
G04 #@! TO.C,D1-0*
X83581942Y-63698491D03*
D11*
X75961942Y-63698491D03*
G04 #@! TD*
D10*
G04 #@! TO.C,D4-1*
X150256998Y-82748507D03*
D11*
X142636998Y-82748507D03*
G04 #@! TD*
D12*
G04 #@! TO.C,RC4-2*
X146400000Y-95250000D03*
X148600000Y-90250000D03*
D13*
X152400000Y-95250000D03*
D14*
X157550000Y-100250000D03*
G04 #@! TD*
D10*
G04 #@! TO.C,D5-2*
X174069518Y-101798523D03*
D11*
X166449518Y-101798523D03*
G04 #@! TD*
D12*
G04 #@! TO.C,RC5-3*
X170212500Y-114300000D03*
X172412500Y-109300000D03*
D13*
X176212500Y-114300000D03*
D14*
X181362500Y-119300000D03*
G04 #@! TD*
D10*
G04 #@! TO.C,D2-3*
X140731990Y-120848539D03*
D11*
X133111990Y-120848539D03*
G04 #@! TD*
D10*
G04 #@! TO.C,DI0*
X65484430Y-83105698D03*
D11*
X65484430Y-90725698D03*
G04 #@! TD*
D12*
G04 #@! TO.C,RC0-2*
X82106250Y-95250000D03*
X84306250Y-90250000D03*
D13*
X88106250Y-95250000D03*
D14*
X93256250Y-100250000D03*
G04 #@! TD*
D12*
G04 #@! TO.C,RC5-0*
X151162500Y-57150000D03*
X153362500Y-52150000D03*
D13*
X157162500Y-57150000D03*
D14*
X162312500Y-62150000D03*
G04 #@! TD*
D12*
G04 #@! TO.C,RC3-1*
X122587500Y-76200000D03*
X124787500Y-71200000D03*
D13*
X128587500Y-76200000D03*
D14*
X133737500Y-81200000D03*
G04 #@! TD*
D10*
G04 #@! TO.C,DS1*
X92273515Y-70008812D03*
D11*
X92273515Y-77628812D03*
G04 #@! TD*
D12*
G04 #@! TO.C,RC2-0*
X94012500Y-57150000D03*
X96212500Y-52150000D03*
D13*
X100012500Y-57150000D03*
D14*
X105162500Y-62150000D03*
G04 #@! TD*
D12*
G04 #@! TO.C,RC4-1*
X141637500Y-76200000D03*
X143837500Y-71200000D03*
D13*
X147637500Y-76200000D03*
D14*
X152787500Y-81200000D03*
G04 #@! TD*
D12*
G04 #@! TO.C,RC6-1*
X189262500Y-57150000D03*
X191462500Y-52150000D03*
D13*
X195262500Y-57150000D03*
D14*
X200412500Y-62150000D03*
G04 #@! TD*
D10*
G04 #@! TO.C,D4-3*
X159782006Y-120848539D03*
D11*
X152162006Y-120848539D03*
G04 #@! TD*
D12*
G04 #@! TO.C,RC6-2*
X179737500Y-76200000D03*
X181937500Y-71200000D03*
D13*
X185737500Y-76200000D03*
D14*
X190887500Y-81200000D03*
G04 #@! TD*
D10*
G04 #@! TO.C,D5-3*
X178832022Y-120848539D03*
D11*
X171212022Y-120848539D03*
G04 #@! TD*
D10*
G04 #@! TO.C,D0-1*
X88344446Y-82748507D03*
D11*
X80724446Y-82748507D03*
G04 #@! TD*
D12*
G04 #@! TO.C,RC4-3*
X151162500Y-114300000D03*
X153362500Y-109300000D03*
D13*
X157162500Y-114300000D03*
D14*
X162312500Y-119300000D03*
G04 #@! TD*
D10*
G04 #@! TO.C,DI2*
X65484430Y-98583836D03*
D11*
X65484430Y-106203836D03*
G04 #@! TD*
D12*
G04 #@! TO.C,RC5-4*
X155925000Y-133350000D03*
X158125000Y-128350000D03*
D13*
X161925000Y-133350000D03*
D14*
X167075000Y-138350000D03*
G04 #@! TD*
D12*
G04 #@! TO.C,RC6-0*
X170212500Y-57150000D03*
X172412500Y-52150000D03*
D13*
X176212500Y-57150000D03*
D14*
X181362500Y-62150000D03*
G04 #@! TD*
D10*
G04 #@! TO.C,DI3*
X59531300Y-106322905D03*
D11*
X59531300Y-113942905D03*
G04 #@! TD*
D10*
G04 #@! TO.C,DS2*
X120848539Y-89058828D03*
D11*
X120848539Y-96678828D03*
G04 #@! TD*
D10*
G04 #@! TO.C,D0-2*
X90725698Y-101798523D03*
D11*
X83105698Y-101798523D03*
G04 #@! TD*
D10*
G04 #@! TO.C,D1-3*
X121681974Y-120848539D03*
D11*
X114061974Y-120848539D03*
G04 #@! TD*
D12*
G04 #@! TO.C,RC2-3*
X132112500Y-114300000D03*
X134312500Y-109300000D03*
D13*
X138112500Y-114300000D03*
D14*
X143262500Y-119300000D03*
G04 #@! TD*
D10*
G04 #@! TO.C,D5-4*
X164544510Y-139898555D03*
D11*
X156924510Y-139898555D03*
G04 #@! TD*
D15*
G04 #@! TO.C,U1*
X48695000Y-51911250D03*
D16*
X49530000Y-51911250D03*
D15*
X48695000Y-54451250D03*
D16*
X49530000Y-54451250D03*
D15*
X48695000Y-56991250D03*
D16*
X49530000Y-56991250D03*
D15*
X48695000Y-59531250D03*
D16*
X49530000Y-59531250D03*
D15*
X48695000Y-62071250D03*
D16*
X49530000Y-62071250D03*
D15*
X48695000Y-64611250D03*
D16*
X49530000Y-64611250D03*
D15*
X48695000Y-67151250D03*
D16*
X49530000Y-67151250D03*
X64770000Y-67151250D03*
D17*
X65605000Y-67151250D03*
D16*
X64770000Y-64611250D03*
D17*
X65605000Y-64611250D03*
D16*
X64770000Y-62071250D03*
D17*
X65605000Y-62071250D03*
D16*
X64770000Y-59531250D03*
D17*
X65605000Y-59531250D03*
D16*
X64770000Y-56991250D03*
D17*
X65605000Y-56991250D03*
D16*
X64770000Y-54451250D03*
D17*
X65605000Y-54451250D03*
D16*
X64770000Y-51911250D03*
D17*
X65605000Y-51911250D03*
G04 #@! TD*
D10*
G04 #@! TO.C,DI5*
X59531300Y-121801043D03*
D11*
X59531300Y-129421043D03*
G04 #@! TD*
D10*
G04 #@! TO.C,D6-5*
X185975778Y-139898555D03*
D11*
X178355778Y-139898555D03*
G04 #@! TD*
D10*
G04 #@! TO.C,DS4*
X168473579Y-127158860D03*
D11*
X168473579Y-134778860D03*
G04 #@! TD*
D12*
G04 #@! TO.C,RC0-4*
X74962500Y-133350000D03*
X77162500Y-128350000D03*
D13*
X80962500Y-133350000D03*
D14*
X86112500Y-138350000D03*
G04 #@! TD*
D10*
G04 #@! TO.C,D4-2*
X155019502Y-101798523D03*
D11*
X147399502Y-101798523D03*
G04 #@! TD*
D12*
G04 #@! TO.C,RC5-1*
X160687500Y-76200000D03*
X162887500Y-71200000D03*
D13*
X166687500Y-76200000D03*
D14*
X171837500Y-81200000D03*
G04 #@! TD*
D12*
G04 #@! TO.C,RC1-4*
X98775000Y-133350000D03*
X100975000Y-128350000D03*
D13*
X104775000Y-133350000D03*
D14*
X109925000Y-138350000D03*
G04 #@! TD*
D10*
G04 #@! TO.C,DS0*
X87511011Y-50958796D03*
D11*
X87511011Y-58578796D03*
G04 #@! TD*
D10*
G04 #@! TO.C,D6-4*
X197882038Y-120848539D03*
D11*
X190262038Y-120848539D03*
G04 #@! TD*
D12*
G04 #@! TO.C,RC4-0*
X132112500Y-57150000D03*
X134312500Y-52150000D03*
D13*
X138112500Y-57150000D03*
D14*
X143262500Y-62150000D03*
G04 #@! TD*
D12*
G04 #@! TO.C,RC5-2*
X165450000Y-95250000D03*
X167650000Y-90250000D03*
D13*
X171450000Y-95250000D03*
D14*
X176600000Y-100250000D03*
G04 #@! TD*
D12*
G04 #@! TO.C,RC6-3*
X184500000Y-95250000D03*
X186700000Y-90250000D03*
D13*
X190500000Y-95250000D03*
D14*
X195650000Y-100250000D03*
G04 #@! TD*
D10*
G04 #@! TO.C,D6-2*
X188357030Y-82748507D03*
D11*
X180737030Y-82748507D03*
G04 #@! TD*
D12*
G04 #@! TO.C,RC6-5*
X177356250Y-133350000D03*
X179556250Y-128350000D03*
D13*
X183356250Y-133350000D03*
D14*
X188506250Y-138350000D03*
G04 #@! TD*
D10*
G04 #@! TO.C,D6-1*
X197882038Y-63698491D03*
D11*
X190262038Y-63698491D03*
G04 #@! TD*
D12*
G04 #@! TO.C,RC2-1*
X103537500Y-76200000D03*
X105737500Y-71200000D03*
D13*
X109537500Y-76200000D03*
D14*
X114687500Y-81200000D03*
G04 #@! TD*
D12*
G04 #@! TO.C,RC6-4*
X189262500Y-114300000D03*
X191462500Y-109300000D03*
D13*
X195262500Y-114300000D03*
D14*
X200412500Y-119300000D03*
G04 #@! TD*
D12*
G04 #@! TO.C,RC2-4*
X117825000Y-133350000D03*
X120025000Y-128350000D03*
D13*
X123825000Y-133350000D03*
D14*
X128975000Y-138350000D03*
G04 #@! TD*
D10*
G04 #@! TO.C,D6-3*
X193119534Y-101798523D03*
D11*
X185499534Y-101798523D03*
G04 #@! TD*
D12*
G04 #@! TO.C,RC0-1*
X79725000Y-76200000D03*
X81925000Y-71200000D03*
D13*
X85725000Y-76200000D03*
D14*
X90875000Y-81200000D03*
G04 #@! TD*
D12*
G04 #@! TO.C,RC3-4*
X136875000Y-133350000D03*
X139075000Y-128350000D03*
D13*
X142875000Y-133350000D03*
D14*
X148025000Y-138350000D03*
G04 #@! TD*
D10*
G04 #@! TO.C,D0-3*
X93106950Y-120848539D03*
D11*
X85486950Y-120848539D03*
G04 #@! TD*
D10*
G04 #@! TO.C,D5-1*
X169307014Y-82748507D03*
D11*
X161687014Y-82748507D03*
G04 #@! TD*
D12*
G04 #@! TO.C,RC1-2*
X108300000Y-95250000D03*
X110500000Y-90250000D03*
D13*
X114300000Y-95250000D03*
D14*
X119450000Y-100250000D03*
G04 #@! TD*
D12*
G04 #@! TO.C,RC0-3*
X84487500Y-114300000D03*
X86687500Y-109300000D03*
D13*
X90487500Y-114300000D03*
D14*
X95637500Y-119300000D03*
G04 #@! TD*
D12*
G04 #@! TO.C,RC3-0*
X113062500Y-57150000D03*
X115262500Y-52150000D03*
D13*
X119062500Y-57150000D03*
D14*
X124212500Y-62150000D03*
G04 #@! TD*
D10*
G04 #@! TO.C,D3-1*
X131206982Y-82748507D03*
D11*
X123586982Y-82748507D03*
G04 #@! TD*
D10*
G04 #@! TO.C,D0-4*
X83581942Y-139898555D03*
D11*
X75961942Y-139898555D03*
G04 #@! TD*
D10*
G04 #@! TO.C,DS3*
X149423563Y-127158860D03*
D11*
X149423563Y-134778860D03*
G04 #@! TD*
D12*
G04 #@! TO.C,RC3-2*
X127350000Y-95250000D03*
X129550000Y-90250000D03*
D13*
X133350000Y-95250000D03*
D14*
X138500000Y-100250000D03*
G04 #@! TD*
M02*
